{"glyphs":{"0":{"ha":674,"x_min":41,"x_max":633,"o":"m 345 819 q 211 709 262 819 q 160 434 160 598 q 209 159 160 271 q 331 46 258 46 q 431 101 389 46 q 493 244 473 156 q 513 441 513 332 q 466 711 513 602 q 345 819 419 819 m 336 869 q 497 809 429 869 q 599 650 566 749 q 632 433 632 552 q 598 215 632 313 q 496 56 564 117 q 336 -4 427 -4 q 180 56 248 -4 q 76 215 111 117 q 41 433 41 313 q 75 650 41 552 q 178 809 110 749 q 336 869 247 869 z "},"1":{"ha":674,"x_min":165,"x_max":509,"o":"m 302 157 l 302 705 q 274 757 302 757 q 179 730 252 757 q 165 753 165 741 q 168 761 165 760 q 275 810 216 783 q 369 854 335 838 q 404 871 403 871 l 407 871 q 420 849 416 871 q 410 718 410 800 l 410 157 q 416 57 410 79 q 452 41 419 47 q 503 35 484 35 q 509 16 509 30 q 503 -4 509 1 q 353 3 365 3 q 208 -4 347 3 q 203 16 203 1 q 208 35 203 30 q 260 41 228 35 q 294 57 292 47 q 302 157 302 83 z "},"2":{"ha":674,"x_min":58,"x_max":616,"o":"m 616 203 q 543 0 586 132 q 73 0 543 0 q 64 9 68 3 q 60 19 60 15 q 382 415 274 256 q 434 517 420 472 q 448 618 448 563 q 405 736 448 689 q 298 783 362 783 q 225 769 260 783 q 165 734 190 755 q 127 696 141 713 q 103 666 113 680 q 87 675 96 666 q 79 688 79 684 q 102 731 83 703 q 152 791 121 760 q 231 847 183 823 q 328 871 278 871 q 492 802 423 871 q 562 644 562 732 q 486 439 562 534 q 190 99 381 312 l 458 99 q 524 124 498 99 q 572 203 549 149 q 589 212 575 212 q 616 203 605 212 z "},"3":{"ha":674,"x_min":81,"x_max":593,"o":"m 350 871 q 470 823 411 871 q 529 697 529 774 q 490 591 529 639 q 401 514 450 543 q 531 446 471 505 q 591 296 591 387 q 541 136 591 206 q 412 29 490 65 q 247 -7 334 -7 q 109 24 171 -7 q 92 45 102 30 q 81 76 81 61 q 98 123 81 104 q 138 141 115 141 q 169 132 156 141 q 196 104 182 123 q 214 81 210 85 q 315 47 250 47 q 427 99 378 47 q 475 258 475 151 q 422 393 475 338 q 301 449 370 449 q 273 446 289 449 q 240 437 258 442 q 220 431 222 431 q 212 458 212 442 q 214 472 212 468 q 366 542 307 492 q 426 673 426 591 q 389 763 426 727 q 293 799 351 799 q 235 786 264 799 q 190 758 206 773 q 158 727 174 743 q 141 709 142 711 q 130 720 136 709 q 125 739 125 730 q 220 832 163 793 q 350 871 278 871 z "},"4":{"ha":674,"x_min":35,"x_max":639,"o":"m 518 873 q 534 866 528 873 q 540 849 540 859 l 540 313 l 618 313 q 631 296 625 313 q 637 258 637 278 q 632 236 637 244 l 540 236 l 540 -1 q 480 -8 533 -8 q 431 3 431 -8 l 431 236 l 49 236 q 35 262 35 244 l 477 840 q 518 873 503 873 m 431 711 l 127 313 l 431 313 l 431 711 z "},"5":{"ha":674,"x_min":81,"x_max":593,"o":"m 336 536 q 521 463 450 536 q 591 296 591 389 q 541 136 591 206 q 412 29 490 65 q 247 -7 334 -7 q 109 24 171 -7 q 92 45 102 30 q 81 76 81 61 q 98 123 81 104 q 138 141 115 141 q 169 132 156 141 q 196 104 182 123 q 214 81 210 85 q 315 47 250 47 q 427 98 378 47 q 475 258 475 149 q 463 326 475 292 q 426 390 450 359 q 358 440 401 420 q 258 460 315 460 q 197 454 235 460 q 144 439 160 448 q 137 446 141 439 q 133 458 133 452 q 212 861 208 833 l 412 861 q 469 865 438 861 q 519 871 500 868 l 537 873 q 544 870 540 872 q 549 867 548 868 q 552 863 551 865 q 553 859 553 861 q 541 815 553 849 q 513 762 529 781 q 355 754 437 754 l 241 754 q 227 676 236 727 q 209 585 217 625 q 193 510 201 544 q 264 528 221 521 q 336 536 308 536 z "},"6":{"ha":674,"x_min":66,"x_max":608,"o":"m 189 415 q 183 323 183 377 q 226 127 183 217 q 343 37 269 37 q 450 98 407 37 q 492 250 492 159 q 450 407 492 345 q 321 469 407 469 q 189 415 239 469 m 359 536 q 478 509 427 536 q 555 441 529 483 q 595 358 582 400 q 608 275 608 316 q 528 76 608 160 q 332 -8 448 -8 q 141 86 216 -8 q 66 298 66 180 q 197 658 66 515 q 368 794 266 734 q 560 878 471 854 q 576 838 576 878 q 199 475 266 739 q 359 536 273 536 z "},"7":{"ha":674,"x_min":52,"x_max":623,"o":"m 521 859 q 578 861 543 859 q 613 863 613 863 q 621 850 621 863 q 617 831 621 842 q 600 793 613 819 q 583 760 587 766 l 225 -3 q 212 -7 222 -7 q 174 1 195 -7 q 152 18 152 9 q 311 297 214 111 q 472 621 407 483 l 537 760 l 193 760 q 133 735 155 760 q 95 655 111 711 q 79 647 94 647 q 52 655 62 647 q 109 859 94 785 l 521 859 z "},"8":{"ha":674,"x_min":81,"x_max":593,"o":"m 336 37 q 444 77 404 37 q 483 187 483 118 q 460 265 483 227 q 401 334 437 304 q 347 377 366 363 q 309 400 327 391 q 301 403 304 403 q 296 401 297 403 q 214 322 239 366 q 189 213 189 278 q 233 85 189 134 q 336 37 278 37 m 336 825 q 254 781 288 825 q 220 675 220 736 q 233 609 220 639 q 273 555 245 579 q 315 522 301 532 q 361 494 330 511 q 369 491 366 491 q 377 494 373 491 q 469 659 469 555 q 432 774 469 723 q 336 825 395 825 m 345 872 q 503 818 438 872 q 567 673 567 764 q 553 602 567 635 q 513 543 540 570 q 467 501 487 517 q 415 467 446 486 q 415 458 406 464 q 539 356 486 418 q 593 227 593 294 q 515 57 593 126 q 334 -12 437 -12 q 151 49 221 -12 q 81 209 81 110 q 85 243 81 227 q 94 274 90 260 q 110 303 99 288 q 128 329 121 319 q 151 353 136 339 q 172 372 165 366 q 197 391 179 378 q 219 406 214 403 q 241 420 224 410 l 258 431 q 258 439 264 435 q 162 527 205 471 q 119 651 119 583 q 187 805 119 738 q 345 872 255 872 z "},"9":{"ha":674,"x_min":66,"x_max":608,"o":"m 486 454 q 491 547 491 492 q 474 675 491 612 q 419 785 457 738 q 331 833 381 833 q 224 772 266 833 q 182 620 182 712 q 224 463 182 525 q 353 400 266 400 q 486 454 435 400 m 98 31 q 475 395 407 130 q 395 350 439 366 q 315 334 350 334 q 216 351 259 334 q 145 397 172 369 q 100 460 118 425 q 75 530 81 496 q 68 594 68 563 q 147 793 68 709 q 342 878 227 878 q 481 831 419 878 q 576 715 544 784 q 608 571 608 646 q 477 212 608 354 q 305 75 407 136 q 114 -8 203 15 q 102 6 106 -8 q 98 31 98 20 z "}," ":{"ha":294,"x_min":0,"x_max":0,"o":""},"!":{"ha":327,"x_min":88,"x_max":237,"o":"m 88 61 q 111 113 88 91 q 164 134 133 134 q 216 113 195 134 q 237 61 237 92 q 216 7 237 30 q 164 -15 194 -15 q 111 7 133 -15 q 88 61 88 30 m 170 871 q 214 846 198 871 q 229 792 229 822 q 224 715 229 776 q 205 511 218 655 q 182 233 193 366 q 160 216 174 217 q 142 231 148 221 q 102 792 102 699 q 120 847 102 823 q 170 871 138 871 z "},"\"":{"ha":380,"x_min":53,"x_max":321,"o":"m 286 948 q 321 930 308 948 q 302 667 321 831 q 275 642 294 651 q 263 650 267 642 q 216 853 216 812 q 236 917 216 886 q 286 948 256 948 m 123 948 q 159 930 145 948 q 140 667 159 831 q 113 642 132 651 q 100 650 104 642 q 53 853 53 812 q 73 917 53 886 q 123 948 94 948 z "},"#":{"ha":651,"x_min":69,"x_max":581,"o":"m 442 308 l 533 308 q 543 293 543 308 q 538 262 544 278 q 524 241 532 245 l 431 241 l 410 104 q 377 87 406 87 q 368 88 372 87 q 363 91 363 90 l 362 92 l 387 241 l 212 241 l 190 104 q 159 87 186 87 q 149 88 153 87 q 144 91 145 90 l 144 92 l 168 241 l 77 241 q 70 258 71 244 q 76 288 69 271 q 91 308 83 305 l 178 308 l 209 500 l 115 500 q 107 516 107 500 q 113 548 107 532 q 127 567 119 564 l 220 567 l 241 703 q 245 711 244 709 q 248 715 245 712 q 256 720 251 719 q 271 720 262 720 q 289 716 282 720 l 264 567 l 438 567 l 460 703 q 463 711 463 709 q 467 715 464 712 q 475 720 469 719 q 490 720 480 720 q 507 716 502 720 l 483 567 l 570 567 q 581 552 579 567 q 576 521 582 537 q 562 500 570 505 l 473 500 l 442 308 m 396 308 l 427 500 l 254 500 l 222 308 l 396 308 z "},"$":{"ha":675,"x_min":69,"x_max":608,"o":"m 396 926 q 444 917 444 926 l 434 859 q 484 846 449 856 q 545 830 519 836 q 562 646 556 784 q 537 640 552 640 q 518 647 525 640 q 488 727 514 684 q 423 796 461 770 l 372 481 q 376 479 373 480 q 381 476 380 477 q 426 448 387 472 q 479 414 465 425 q 525 379 494 404 q 570 334 556 354 q 595 286 583 315 q 608 225 608 256 q 526 54 608 121 q 335 -14 444 -14 q 290 -12 305 -14 l 281 -71 q 233 -58 233 -71 l 241 -5 q 159 12 210 0 q 100 24 109 23 q 69 224 69 172 q 103 235 80 235 q 118 228 114 235 q 251 49 148 91 l 307 385 q 230 433 258 414 q 165 484 202 452 q 111 555 129 517 q 94 637 94 593 q 170 802 94 738 q 349 867 247 867 q 387 865 376 867 l 396 926 m 351 359 l 298 35 q 338 33 323 33 q 448 75 403 33 q 494 190 494 117 q 484 249 494 224 q 450 296 475 274 q 408 328 425 317 q 351 359 392 338 m 327 509 l 378 817 q 340 822 354 822 q 231 779 263 822 q 198 678 198 736 q 231 585 198 623 q 327 509 264 548 z "},"%":{"ha":905,"x_min":54,"x_max":848,"o":"m 252 842 q 169 791 197 842 q 141 673 141 741 q 179 537 141 600 q 266 475 217 475 q 344 525 320 475 q 368 646 368 575 q 336 781 368 720 q 252 842 304 842 m 258 875 q 401 811 345 875 q 457 656 457 747 q 401 506 457 571 q 258 441 346 441 q 114 504 174 441 q 54 656 54 567 q 111 812 54 749 q 258 875 168 875 m 644 392 q 560 341 589 392 q 532 222 532 290 q 570 87 532 151 q 658 24 608 24 q 735 75 712 24 q 758 195 758 125 q 726 331 758 270 q 644 392 694 392 m 650 425 q 792 361 736 425 q 848 206 848 297 q 793 55 848 119 q 648 -9 738 -9 q 505 54 564 -9 q 445 206 445 117 q 503 361 445 298 q 650 425 560 425 m 811 846 l 156 0 q 111 -16 142 -16 q 87 -1 95 -16 l 741 846 q 768 863 754 863 q 790 861 783 863 q 800 859 798 860 q 805 854 802 859 q 811 846 808 849 z "},"&":{"ha":926,"x_min":72,"x_max":890,"o":"m 551 129 q 456 243 511 168 q 363 372 400 317 l 328 426 q 256 374 279 392 q 211 317 233 355 q 189 233 189 279 q 244 99 189 144 q 381 54 300 54 q 471 75 423 54 q 551 129 519 95 m 425 841 q 349 812 380 841 q 317 736 317 783 q 388 522 317 650 q 490 604 458 563 q 522 719 522 646 q 495 804 522 768 q 425 841 468 841 m 418 890 q 562 850 509 890 q 614 738 614 810 q 562 597 614 655 q 412 479 509 538 q 613 209 491 346 q 669 308 647 260 q 690 368 690 355 q 678 385 690 380 q 648 391 666 391 q 629 392 631 392 q 627 408 627 397 q 631 423 627 419 l 738 423 q 781 425 758 423 q 833 427 803 426 q 887 430 864 429 q 889 410 890 429 q 886 392 888 392 q 836 384 868 392 q 792 369 803 376 q 773 338 791 368 q 722 259 755 309 q 651 167 688 209 q 694 122 682 134 q 727 92 707 110 q 760 67 747 73 q 784 61 772 61 q 825 84 803 61 q 854 123 848 107 q 876 115 865 123 q 886 99 886 107 q 873 77 880 88 q 850 46 867 66 q 804 13 833 26 q 738 0 774 0 q 663 24 703 0 q 602 73 624 49 l 582 98 q 335 -4 465 -4 q 143 54 214 -4 q 72 214 72 113 q 132 361 72 302 q 297 475 191 420 q 258 545 271 518 q 232 616 245 571 q 218 704 218 661 q 275 836 218 781 q 418 890 332 890 z "},"'":{"ha":217,"x_min":53,"x_max":159,"o":"m 123 948 q 159 930 145 948 q 140 667 159 831 q 113 642 132 651 q 100 650 104 642 q 53 853 53 812 q 73 917 53 886 q 123 948 94 948 z "},"(":{"ha":355,"x_min":50,"x_max":347,"o":"m 202 710 q 176 632 202 710 q 149 387 149 553 q 202 62 149 220 q 347 -176 255 -95 q 344 -182 349 -176 q 332 -194 339 -187 q 321 -203 326 -201 q 123 45 197 -106 q 50 387 50 197 q 123 726 50 576 q 321 975 197 876 q 332 966 326 972 q 344 954 339 959 q 347 948 349 948 q 202 710 255 867 z "},")":{"ha":355,"x_min":8,"x_max":305,"o":"m 232 726 q 269 651 232 726 q 305 387 305 576 q 232 45 305 197 q 34 -203 159 -106 q 23 -194 30 -201 q 12 -182 16 -187 q 8 -176 7 -176 q 153 62 100 -95 q 206 387 206 220 q 153 710 206 553 q 8 948 100 867 q 12 954 7 948 q 23 966 16 959 q 34 975 30 972 q 232 726 159 876 z "},"*":{"ha":601,"x_min":49,"x_max":537,"o":"m 410 831 q 448 857 427 852 q 486 848 469 863 q 499 810 502 831 q 477 772 496 789 q 409 726 453 750 q 346 685 365 703 l 339 666 q 353 652 340 656 q 420 633 374 642 q 498 612 467 625 q 534 583 522 601 q 537 545 547 564 q 506 521 528 525 q 463 529 484 517 q 397 580 433 545 q 339 627 361 614 l 320 631 q 312 613 315 628 q 315 543 309 589 q 317 463 321 496 q 300 419 315 435 q 266 406 286 403 q 233 427 244 408 q 228 471 222 445 q 257 550 235 505 q 283 620 279 595 q 279 637 285 632 q 262 642 274 644 q 197 616 239 636 q 119 589 155 595 q 73 591 94 583 q 49 620 52 600 q 60 658 45 642 q 100 677 75 674 q 184 674 134 681 q 258 670 233 667 q 273 681 270 674 q 270 700 277 689 q 226 755 258 720 q 176 819 194 789 q 184 895 146 873 q 254 864 228 917 q 276 784 267 833 q 296 712 285 735 q 309 697 302 699 q 327 705 317 696 q 365 764 343 723 q 410 831 387 806 z "},"+":{"ha":735,"x_min":42,"x_max":693,"o":"m 328 643 q 387 658 368 658 q 397 656 392 658 q 403 651 401 654 l 404 650 l 404 372 l 681 372 q 693 355 693 372 q 671 296 693 317 l 404 296 l 404 22 q 346 7 384 7 q 328 19 328 7 l 328 296 l 50 296 q 42 309 42 296 q 48 341 42 317 q 62 372 54 365 l 328 372 l 328 643 z "},",":{"ha":273,"x_min":23,"x_max":203,"o":"m 144 167 q 179 157 163 167 q 203 62 203 115 q 150 -77 203 5 q 43 -189 96 -160 q 30 -178 37 -189 q 23 -160 23 -167 q 109 -9 109 -96 q 86 43 109 12 q 64 100 64 73 q 87 145 64 123 q 144 167 110 167 z "},"-":{"ha":511,"x_min":79,"x_max":433,"o":"m 96 354 q 423 370 378 369 q 433 358 433 370 q 415 285 433 323 q 88 270 388 283 q 79 285 79 270 q 96 354 79 316 z "},".":{"ha":281,"x_min":65,"x_max":214,"o":"m 65 61 q 87 113 65 91 q 141 134 110 134 q 193 113 171 134 q 214 61 214 92 q 193 7 214 30 q 141 -15 171 -15 q 88 7 111 -15 q 65 61 65 30 z "},"/":{"ha":560,"x_min":41,"x_max":518,"o":"m 500 1032 q 518 1020 514 1032 l 118 -16 q 65 -47 104 -47 q 50 -45 56 -47 q 42 -41 43 -43 l 41 -38 l 446 1012 q 454 1019 448 1015 q 473 1028 460 1024 q 500 1032 486 1032 z "},":":{"ha":307,"x_min":79,"x_max":228,"o":"m 79 61 q 101 113 79 91 q 155 134 123 134 q 206 113 184 134 q 228 61 228 92 q 206 7 228 30 q 155 -15 184 -15 q 102 7 125 -15 q 79 61 79 30 m 79 511 q 101 563 79 541 q 155 585 123 585 q 206 564 184 585 q 228 511 228 543 q 206 458 228 480 q 155 435 184 435 q 102 458 125 435 q 79 511 79 480 z "},";":{"ha":315,"x_min":52,"x_max":232,"o":"m 172 167 q 208 157 191 167 q 232 62 232 115 q 178 -77 232 5 q 72 -189 125 -160 q 58 -178 65 -189 q 52 -160 52 -167 q 137 -9 137 -96 q 115 43 137 12 q 92 100 92 73 q 115 145 92 123 q 172 167 138 167 m 83 511 q 105 563 83 541 q 159 585 127 585 q 211 564 190 585 q 232 511 232 543 q 210 458 232 480 q 159 435 189 435 q 105 458 127 435 q 83 511 83 480 z "},"<":{"ha":667,"x_min":41,"x_max":602,"o":"m 602 47 q 594 9 602 38 q 581 -20 586 -20 q 574 -18 579 -20 l 65 240 q 41 294 41 254 q 65 327 41 315 l 566 581 q 572 583 571 583 q 595 519 583 583 l 591 507 l 149 283 l 598 56 q 602 47 602 54 z "},"=":{"ha":766,"x_min":94,"x_max":675,"o":"m 650 163 q 99 163 650 163 q 94 180 92 165 q 103 215 95 195 q 121 237 111 235 l 667 237 q 675 220 675 235 q 667 186 675 205 q 650 163 659 167 m 650 358 l 99 358 q 94 376 92 361 q 103 410 95 391 q 121 433 111 430 l 667 433 q 675 415 675 430 q 667 381 675 400 q 650 358 659 362 z "},">":{"ha":669,"x_min":65,"x_max":627,"o":"m 65 47 q 69 56 65 47 l 518 283 l 77 507 q 73 518 73 509 q 82 559 73 536 q 95 583 91 583 q 102 581 96 583 l 604 327 q 627 294 627 315 q 604 240 627 252 l 95 -18 q 88 -20 90 -20 q 74 9 83 -20 q 65 47 65 38 z "},"?":{"ha":483,"x_min":76,"x_max":420,"o":"m 85 61 q 108 113 85 91 q 161 134 130 134 q 214 113 193 134 q 235 61 235 92 q 213 7 235 30 q 161 -15 191 -15 q 108 7 130 -15 q 85 61 85 30 m 136 743 q 97 762 118 743 q 76 811 76 781 q 88 861 76 844 q 153 871 107 871 q 328 799 235 871 q 420 620 420 727 q 390 503 420 549 q 283 412 359 456 q 219 368 255 396 q 178 328 183 339 q 170 233 170 313 q 148 216 161 217 q 130 231 136 221 q 119 354 119 277 q 128 416 119 389 q 161 466 137 444 q 193 495 184 488 q 235 522 202 502 q 297 564 278 549 q 334 604 316 578 q 353 661 353 629 q 323 741 353 711 q 252 772 293 772 q 180 758 212 772 q 136 743 149 743 z "},"@":{"ha":1015,"x_min":66,"x_max":966,"o":"m 567 784 q 861 661 755 784 q 966 366 966 537 q 885 100 966 209 q 686 -9 804 -9 q 574 107 574 -9 q 583 170 574 144 q 499 54 555 114 q 392 -7 444 -7 q 298 47 332 -7 q 263 176 263 100 q 321 370 263 273 q 469 528 378 467 q 651 590 560 590 q 750 572 703 590 l 667 144 q 663 110 663 127 q 728 49 663 49 q 853 144 795 49 q 911 362 911 239 q 876 539 911 458 q 760 675 841 620 q 567 730 680 730 q 330 653 435 730 q 173 464 225 576 q 121 231 121 351 q 172 28 121 117 q 301 -106 222 -60 q 403 -144 353 -136 q 385 -160 403 -152 q 354 -168 368 -168 q 301 -160 323 -168 q 135 -16 203 -123 q 66 231 66 92 q 101 429 66 331 q 198 607 136 528 q 357 735 260 686 q 567 784 453 784 m 594 528 q 439 424 514 528 q 363 205 363 320 q 433 72 363 72 q 542 171 481 72 q 623 372 602 270 l 650 510 q 594 528 633 528 z "},"A":{"ha":850,"x_min":-19,"x_max":856,"o":"m 129 189 q 391 860 308 648 q 414 885 396 871 q 442 899 433 899 q 446 898 445 899 q 450 895 449 895 l 727 171 l 761 81 q 803 48 769 61 q 853 35 837 35 q 856 -4 864 20 q 707 3 720 3 q 549 -4 705 3 q 545 16 544 1 q 551 35 545 30 q 627 53 606 35 q 632 72 632 58 q 609 156 632 90 q 563 279 586 222 l 540 336 q 532 342 536 342 q 397 343 514 343 q 251 339 312 343 l 244 335 q 183 170 206 235 q 164 73 164 114 q 199 44 164 53 q 258 35 235 35 q 262 17 260 33 q 260 -4 263 1 q 218 -1 241 -3 q 176 1 195 0 q 129 3 156 3 q 80 1 102 3 q 33 -1 58 0 q -16 -4 7 -3 q -19 14 -19 -1 q -16 35 -19 28 q 28 42 1 35 q 65 61 56 49 q 129 189 94 98 m 395 735 l 270 404 q 273 399 270 399 q 396 396 343 396 q 510 400 448 396 l 514 407 l 395 735 z "},"B":{"ha":808,"x_min":56,"x_max":749,"o":"m 279 450 l 279 156 q 292 64 279 76 q 399 39 315 39 q 614 239 614 39 q 362 450 614 450 l 279 450 m 279 502 l 393 502 q 521 549 479 502 q 563 661 563 595 q 507 800 563 750 q 354 850 450 850 q 286 837 292 850 q 279 735 279 821 l 279 502 m 414 894 q 540 877 481 894 q 642 812 598 860 q 686 692 686 765 q 641 566 686 621 q 549 495 595 511 q 549 488 544 492 q 680 423 610 486 q 749 270 749 361 q 658 69 749 145 q 373 -4 572 -1 l 61 -4 q 56 16 56 1 q 61 35 57 30 q 117 41 81 35 q 155 57 152 47 q 161 157 161 79 l 161 736 q 155 837 161 815 q 117 852 152 846 q 61 859 81 859 q 56 878 57 864 q 61 898 56 892 q 221 891 201 891 q 307 892 244 891 q 414 894 370 894 z "},"C":{"ha":914,"x_min":65,"x_max":857,"o":"m 524 905 q 811 876 680 905 q 842 675 842 689 q 833 664 844 670 q 812 658 823 658 q 796 662 803 658 q 530 860 758 860 q 293 739 387 860 q 199 465 199 617 q 237 260 199 355 q 357 101 274 165 q 552 37 439 37 q 731 102 658 37 q 814 259 792 156 q 857 248 837 262 q 840 143 857 222 q 810 53 822 64 q 518 -8 701 -8 q 193 122 321 -8 q 65 437 65 252 q 196 768 65 631 q 524 905 327 905 z "},"D":{"ha":963,"x_min":56,"x_max":894,"o":"m 281 734 l 281 156 q 289 58 281 68 q 400 39 302 39 q 657 138 555 39 q 760 425 760 236 q 728 620 760 536 q 643 753 697 704 q 523 825 589 802 q 381 849 457 849 q 288 834 292 849 q 281 734 281 812 m 418 892 q 765 769 636 892 q 894 453 894 646 q 869 283 894 361 q 791 139 845 206 q 638 34 738 72 q 400 -4 538 -4 l 61 -4 q 56 16 56 1 q 61 35 57 30 q 117 41 81 35 q 155 57 152 47 q 161 157 161 79 l 161 736 q 155 837 161 815 q 117 852 152 846 q 61 859 81 859 q 56 878 57 864 q 61 898 56 892 q 221 891 201 891 q 317 892 247 891 q 418 892 387 892 z "},"E":{"ha":796,"x_min":56,"x_max":758,"o":"m 221 891 q 432 896 282 891 q 658 901 582 901 q 679 797 663 861 q 697 716 694 732 q 673 709 690 709 q 654 719 655 709 q 595 821 633 795 q 496 846 557 846 l 380 846 q 286 831 290 846 q 279 735 279 810 l 279 481 q 338 473 279 473 l 410 473 q 521 486 500 473 q 556 559 541 499 q 559 571 557 567 q 579 581 560 581 q 602 574 595 581 l 602 317 q 581 312 597 312 q 559 323 563 312 q 543 379 549 361 q 532 402 536 397 q 521 412 528 407 q 377 423 503 423 q 279 411 279 423 l 279 153 q 288 60 279 66 q 384 46 305 46 l 449 46 q 620 83 560 46 q 705 220 665 109 q 724 228 708 228 q 758 220 750 228 q 737 163 751 202 q 715 101 723 125 q 697 46 707 77 q 685 -5 688 15 q 467 -3 616 -5 q 222 0 317 0 q 138 -2 190 0 q 61 -4 87 -4 q 56 16 56 1 q 61 35 57 30 q 117 41 81 35 q 155 57 152 47 q 161 157 161 79 l 161 736 q 155 837 161 815 q 117 852 152 846 q 61 859 81 859 q 56 878 57 864 q 61 898 56 892 q 221 891 201 891 z "},"F":{"ha":726,"x_min":56,"x_max":697,"o":"m 221 891 q 432 896 282 891 q 658 901 582 901 q 679 797 663 861 q 697 716 694 732 q 673 709 690 709 q 654 719 655 709 q 595 821 633 795 q 496 846 557 846 l 380 846 q 286 831 290 846 q 279 735 279 810 l 279 481 q 338 473 279 473 l 410 473 q 521 486 500 473 q 556 559 541 499 q 559 571 557 567 q 579 581 560 581 q 602 574 595 581 l 602 317 q 581 312 597 312 q 559 323 563 312 q 543 379 549 361 q 532 402 536 397 q 521 412 528 407 q 377 423 503 423 q 279 411 279 423 l 279 157 q 286 57 279 79 q 330 41 289 47 q 393 35 372 35 q 398 16 397 30 q 393 -4 399 1 q 221 3 255 3 q 137 -1 187 3 q 61 -4 87 -4 q 56 16 56 1 q 61 35 57 30 q 117 41 81 35 q 155 57 152 47 q 161 157 161 79 l 161 736 q 155 837 161 815 q 117 852 152 846 q 61 859 81 859 q 56 878 57 864 q 61 898 56 892 q 221 891 201 891 z "},"G":{"ha":977,"x_min":65,"x_max":943,"o":"m 726 237 q 719 338 726 316 q 682 353 716 347 q 627 359 647 359 q 622 379 623 365 q 627 399 621 393 q 785 392 765 392 q 937 399 798 392 q 942 379 943 393 q 937 359 941 365 q 884 353 917 359 q 849 338 852 347 q 842 237 842 316 l 842 141 q 849 109 842 125 q 856 87 856 92 q 829 62 856 77 q 760 29 788 41 q 667 5 732 18 q 518 -8 601 -8 q 193 122 321 -8 q 65 437 65 252 q 196 768 65 631 q 524 905 327 905 q 811 876 680 905 q 842 675 842 689 q 833 664 844 670 q 812 658 823 658 q 796 662 803 658 q 530 860 758 860 q 293 739 387 860 q 199 465 199 617 q 222 309 199 384 q 286 172 244 233 q 397 73 328 110 q 552 37 467 37 q 716 80 629 37 q 726 100 726 84 l 726 237 z "},"H":{"ha":985,"x_min":56,"x_max":929,"o":"m 61 898 q 221 891 201 891 q 380 898 241 891 q 385 876 385 892 q 380 854 384 860 q 324 848 359 854 q 286 833 289 842 q 279 732 279 811 l 279 495 l 282 491 q 495 487 481 487 q 703 491 519 487 q 705 496 705 494 l 705 732 q 699 833 705 811 q 661 848 696 842 q 605 854 625 854 q 600 876 601 860 q 605 898 600 892 q 765 891 743 891 q 924 898 784 891 q 928 876 929 892 q 924 854 928 860 q 868 848 903 854 q 830 833 833 842 q 823 732 823 811 l 823 161 q 830 61 823 83 q 868 45 833 52 q 924 39 903 39 q 928 18 928 34 q 924 -4 929 1 q 765 3 784 3 q 605 -4 743 3 q 600 18 600 1 q 605 39 601 34 q 661 45 625 39 q 699 61 696 52 q 705 161 705 83 l 705 430 l 703 435 q 611 438 686 435 q 495 441 536 441 q 281 433 297 441 l 279 430 l 279 161 q 286 61 279 83 q 324 45 289 52 q 380 39 359 39 q 385 18 384 34 q 380 -4 385 1 q 221 3 241 3 q 61 -4 201 3 q 56 18 56 1 q 61 39 57 34 q 117 45 81 39 q 155 61 152 52 q 161 161 161 83 l 161 732 q 155 833 161 811 q 117 848 152 842 q 61 854 81 854 q 56 876 57 860 q 61 898 56 892 z "},"I":{"ha":439,"x_min":56,"x_max":385,"o":"m 61 898 q 221 891 201 891 q 380 898 241 891 q 385 878 385 892 q 380 859 384 864 q 324 852 359 859 q 286 837 289 846 q 279 736 279 815 l 279 157 q 286 57 279 79 q 324 41 289 47 q 380 35 359 35 q 385 16 384 30 q 380 -4 385 1 q 221 3 241 3 q 61 -4 201 3 q 56 16 56 1 q 61 35 57 30 q 117 41 81 35 q 155 57 152 47 q 161 157 161 79 l 161 736 q 155 837 161 815 q 117 852 152 846 q 61 859 81 859 q 56 878 57 864 q 61 898 56 892 z "},"J":{"ha":425,"x_min":-141,"x_max":378,"o":"m 214 891 q 373 898 233 891 q 378 878 378 892 q 373 859 377 864 q 317 852 353 859 q 279 837 282 846 q 273 736 273 815 l 273 164 q 187 -193 273 -79 q -45 -308 102 -308 q -90 -300 -61 -308 q -130 -283 -118 -292 q -141 -252 -141 -273 q -124 -198 -141 -220 q -76 -176 -107 -176 q -11 -216 -53 -176 q 50 -244 20 -244 q 103 -214 81 -244 q 140 -92 125 -184 q 155 157 155 1 l 155 736 q 148 837 155 815 q 110 852 145 846 q 54 859 75 859 q 50 878 50 864 q 54 898 49 892 q 214 891 193 891 z "},"K":{"ha":891,"x_min":56,"x_max":898,"o":"m 61 898 q 221 891 201 891 q 380 898 241 891 q 385 876 385 892 q 380 854 384 860 q 324 848 359 854 q 286 833 289 842 q 279 732 279 811 l 279 463 q 433 600 315 484 q 605 784 559 724 q 624 826 624 810 q 548 856 624 856 q 548 898 540 872 q 704 890 699 890 q 789 894 739 890 q 850 898 838 898 q 852 874 853 892 q 848 856 852 856 l 837 854 q 817 853 826 854 q 793 848 808 852 q 766 840 779 845 q 739 827 753 836 q 713 806 724 818 q 629 717 673 761 q 560 648 586 673 q 479 570 534 623 q 400 494 425 518 q 400 483 396 488 q 453 421 407 475 q 509 355 499 368 q 557 300 519 343 q 610 241 594 258 q 654 193 625 224 q 704 140 682 161 q 747 98 726 118 q 895 35 808 42 q 898 14 899 28 q 894 -4 897 0 q 701 11 743 -4 q 609 69 648 30 q 304 412 572 106 q 292 416 301 416 q 279 414 285 416 l 279 161 q 286 61 279 83 q 324 45 289 52 q 380 39 359 39 q 385 18 384 34 q 380 -4 385 1 q 221 3 241 3 q 61 -4 201 3 q 56 18 56 1 q 61 39 57 34 q 117 45 81 39 q 155 61 152 52 q 161 161 161 83 l 161 732 q 155 833 161 811 q 117 848 152 842 q 61 854 81 854 q 56 876 57 860 q 61 898 56 892 z "},"L":{"ha":765,"x_min":56,"x_max":758,"o":"m 279 157 q 288 60 279 66 q 384 46 305 46 l 461 46 q 620 83 566 46 q 705 220 675 121 q 724 228 708 228 q 758 220 750 228 q 737 163 751 202 q 715 101 723 125 q 697 46 707 77 q 685 -5 688 15 q 467 -3 616 -5 q 222 0 317 0 q 138 -2 190 0 q 61 -4 87 -4 q 56 16 56 1 q 61 35 57 30 q 117 41 81 35 q 155 57 152 47 q 161 157 161 79 l 161 736 q 155 837 161 815 q 117 852 152 846 q 61 859 81 859 q 56 878 57 864 q 61 898 56 892 q 221 891 201 891 q 380 898 241 891 q 385 878 385 892 q 380 859 384 864 q 324 852 359 859 q 286 837 289 846 q 279 736 279 815 l 279 157 z "},"M":{"ha":1230,"x_min":31,"x_max":1184,"o":"m 220 891 q 330 898 255 891 q 391 742 342 861 q 510 458 441 623 q 617 198 579 294 q 623 195 618 195 q 629 201 628 195 q 837 735 827 711 l 897 898 q 1004 892 983 892 q 1156 898 1088 892 l 1160 859 q 1104 851 1141 859 q 1063 834 1067 844 q 1057 783 1057 819 q 1060 636 1058 741 q 1065 391 1062 532 q 1070 190 1069 251 q 1086 58 1073 95 q 1126 41 1090 46 q 1181 35 1161 35 q 1184 -4 1191 18 q 1023 3 1048 3 q 860 -4 1016 3 q 857 13 857 -1 q 860 35 856 27 q 948 50 922 35 q 960 107 960 57 q 959 146 960 117 q 958 186 958 175 q 940 766 945 604 q 928 793 940 793 q 921 784 925 793 q 635 66 890 707 q 610 25 628 52 q 583 -3 593 -1 q 571 0 581 -3 l 240 792 q 233 492 237 662 q 226 214 229 323 q 222 102 222 104 q 228 60 222 75 q 273 41 233 46 q 335 35 312 35 q 338 -4 346 22 q 194 3 202 3 q 35 -4 191 3 q 32 13 33 -1 q 35 35 31 27 q 97 42 57 35 q 145 60 137 49 q 161 127 159 80 q 180 776 180 633 q 175 830 180 815 q 134 850 171 841 q 80 859 98 859 q 79 877 79 859 q 80 898 79 895 q 141 894 99 897 q 220 891 183 891 z "},"N":{"ha":1053,"x_min":56,"x_max":1010,"o":"m 194 895 q 297 898 259 895 q 541 589 331 845 q 829 225 751 332 l 829 304 l 829 739 q 815 833 829 811 q 771 851 810 842 q 712 860 732 860 q 709 899 701 875 q 865 892 845 892 q 914 894 892 892 q 962 897 936 895 q 1010 899 987 898 q 1010 860 1020 882 q 951 852 991 860 q 905 833 911 844 q 891 741 891 810 l 891 189 q 894 1 891 72 q 876 -7 892 -7 q 829 24 853 -7 l 237 772 l 237 156 q 251 62 237 84 q 294 44 256 53 q 353 35 332 35 q 355 -4 363 20 q 201 3 220 3 q 152 1 174 3 q 104 -1 130 0 q 56 -4 79 -3 q 56 35 46 14 q 115 43 75 35 q 161 62 155 52 q 175 155 175 85 l 175 743 q 161 836 175 812 q 115 854 155 846 q 56 863 75 863 q 56 902 46 884 q 123 898 77 901 q 194 895 168 895 z "},"O":{"ha":1015,"x_min":66,"x_max":948,"o":"m 486 859 q 355 825 412 859 q 266 734 298 791 q 217 612 233 678 q 201 475 201 545 q 237 267 201 366 q 351 100 274 168 q 528 33 427 33 q 658 66 601 33 q 747 157 715 100 q 797 281 780 214 q 814 419 814 347 q 777 626 814 528 q 663 791 739 724 q 486 859 586 859 m 506 905 q 819 774 689 905 q 948 445 948 644 q 817 121 948 256 q 506 -14 686 -14 q 195 117 324 -14 q 66 445 66 247 q 197 770 66 635 q 506 905 327 905 z "},"P":{"ha":743,"x_min":56,"x_max":703,"o":"m 703 650 q 621 452 703 526 q 404 377 538 377 q 346 388 368 377 q 327 418 327 400 q 334 425 327 426 q 385 415 369 415 q 524 471 469 415 q 578 627 578 528 q 521 791 578 731 q 354 850 464 850 q 286 837 292 850 q 279 735 279 821 l 279 157 q 286 57 279 79 q 324 41 289 47 q 380 35 359 35 q 385 16 384 30 q 380 -4 385 1 q 221 3 241 3 q 61 -4 201 3 q 56 16 56 1 q 61 35 57 30 q 117 41 81 35 q 155 57 152 47 q 161 157 161 79 l 161 736 q 155 837 161 815 q 117 852 152 846 q 61 859 81 859 q 56 878 57 864 q 61 898 56 892 q 221 891 201 891 q 307 892 244 891 q 414 894 370 894 q 616 828 529 894 q 703 650 703 762 z "},"Q":{"ha":1013,"x_min":66,"x_max":1051,"o":"m 486 859 q 355 825 412 859 q 266 734 298 791 q 217 612 233 678 q 201 475 201 545 q 237 267 201 366 q 351 100 274 168 q 528 33 427 33 q 658 66 601 33 q 747 157 715 100 q 797 281 780 214 q 814 419 814 347 q 777 626 814 528 q 663 791 739 724 q 486 859 586 859 m 506 905 q 819 774 689 905 q 948 445 948 644 q 859 170 948 292 q 632 5 769 49 q 728 -49 670 -14 q 826 -97 787 -84 q 929 -110 865 -110 q 1025 -102 997 -110 q 1050 -111 1043 -102 q 1051 -115 1051 -113 q 826 -184 920 -184 q 696 -149 764 -184 q 548 -65 628 -113 q 397 0 468 -18 q 159 157 252 37 q 66 445 66 278 q 197 770 66 635 q 506 905 327 905 z "},"R":{"ha":842,"x_min":56,"x_max":879,"o":"m 414 894 q 603 831 517 894 q 689 659 689 768 q 633 524 689 589 q 505 435 576 460 q 723 117 595 286 q 787 58 753 77 q 876 35 822 39 q 879 14 880 28 q 875 -4 878 0 q 696 12 742 -4 q 608 72 637 33 q 392 393 545 156 q 351 410 381 410 l 279 410 l 279 157 q 286 57 279 79 q 324 41 289 47 q 380 35 359 35 q 385 16 384 30 q 380 -4 385 1 q 221 3 241 3 q 61 -4 201 3 q 56 16 56 1 q 61 35 57 30 q 117 41 81 35 q 155 57 152 47 q 161 157 161 79 l 161 736 q 155 837 161 815 q 117 852 152 846 q 61 859 81 859 q 56 878 57 864 q 61 898 56 892 q 221 891 201 891 q 307 892 244 891 q 414 894 370 894 m 563 647 q 512 795 563 741 q 354 850 461 850 q 286 837 292 850 q 279 735 279 821 l 279 452 l 353 452 q 500 507 437 452 q 563 647 563 562 z "},"S":{"ha":681,"x_min":66,"x_max":623,"o":"m 354 903 q 410 900 384 903 q 454 892 437 897 q 503 880 471 888 q 559 865 534 871 q 578 673 568 806 q 569 662 579 666 q 549 658 559 658 q 534 663 540 658 q 474 792 526 727 q 345 857 422 857 q 233 811 269 857 q 197 707 197 765 q 206 657 197 681 q 225 618 216 633 q 260 582 235 602 q 296 553 285 562 q 342 524 308 545 q 387 496 377 502 q 434 467 393 492 q 490 432 475 442 q 536 395 505 422 q 583 349 568 369 q 610 298 597 328 q 623 235 623 267 q 538 56 623 126 q 339 -14 453 -14 q 270 -9 307 -14 q 209 1 233 -4 q 147 14 184 5 q 95 26 110 23 q 66 236 66 165 q 102 252 83 252 q 117 240 114 252 q 128 198 121 220 q 154 145 136 176 q 195 90 172 114 q 257 50 218 66 q 342 33 296 33 q 458 77 411 33 q 505 198 505 122 q 496 248 505 225 q 479 286 488 271 q 448 318 471 301 q 414 343 426 335 q 369 369 401 351 q 324 393 336 387 q 269 426 285 416 q 218 459 254 435 q 165 501 182 483 q 127 546 149 519 q 97 602 106 572 q 88 665 88 632 q 168 836 88 769 q 354 903 248 903 z "},"T":{"ha":849,"x_min":16,"x_max":831,"o":"m 689 897 q 770 917 730 897 q 796 920 787 925 q 831 686 812 777 q 806 677 821 675 q 787 684 791 677 q 739 804 772 758 q 656 849 705 849 l 484 849 l 484 157 q 491 57 484 79 q 529 41 494 47 q 585 35 564 35 q 589 16 589 30 q 585 -4 590 1 q 426 3 445 3 q 266 -4 404 3 q 261 16 260 1 q 266 35 262 30 q 321 41 286 35 q 359 57 357 47 q 366 157 366 79 l 366 849 l 191 849 q 109 804 142 849 q 61 684 76 758 q 42 677 57 677 q 16 686 27 675 q 52 920 35 777 q 83 916 62 925 q 159 897 121 897 l 689 897 z "},"U":{"ha":981,"x_min":34,"x_max":955,"o":"m 39 898 q 199 891 179 891 q 358 898 220 891 q 363 878 363 892 q 358 859 362 864 q 302 852 338 859 q 264 837 267 846 q 258 736 258 815 l 258 401 q 324 152 258 235 q 510 73 387 73 q 773 372 768 73 l 773 739 q 760 833 773 811 q 718 851 754 842 q 662 860 681 860 q 659 899 651 875 q 810 892 795 892 q 859 894 837 892 q 906 897 880 895 q 955 899 932 898 q 955 860 966 882 q 896 852 936 860 q 849 833 856 844 q 836 741 836 810 l 836 374 q 742 87 836 179 q 481 -5 648 -5 q 240 84 334 -5 q 140 340 140 180 l 140 736 q 133 837 140 815 q 95 852 130 846 q 39 859 60 859 q 35 878 35 864 q 39 898 34 892 z "},"V":{"ha":865,"x_min":-11,"x_max":886,"o":"m 149 891 q 317 898 182 891 q 319 876 320 892 q 315 859 319 860 q 288 856 305 859 q 252 842 271 853 q 233 814 233 831 q 256 722 233 787 q 458 175 382 376 q 499 271 464 186 q 587 486 534 357 q 675 709 639 614 q 700 804 700 772 q 680 837 700 823 q 641 854 659 850 q 610 857 623 857 q 605 876 605 860 q 610 897 605 891 q 751 891 711 891 q 799 892 779 891 q 842 895 819 894 q 884 898 865 897 q 886 876 887 892 q 882 859 884 859 q 838 850 867 859 q 795 823 810 841 q 727 686 769 793 q 464 43 613 400 q 412 -3 445 -3 q 399 19 410 -3 q 286 318 372 90 q 141 697 199 547 q 79 827 109 781 q 39 850 69 842 q -8 859 9 859 q -11 877 -11 859 q -8 898 -11 895 q 149 891 148 891 z "},"W":{"ha":1221,"x_min":-8,"x_max":1227,"o":"m 160 891 q 307 898 171 891 q 309 876 309 892 q 304 859 308 860 q 277 856 294 859 q 241 842 260 853 q 222 814 222 831 q 243 726 222 798 q 319 469 260 663 q 400 201 378 275 q 513 561 435 319 q 605 853 590 803 q 626 884 610 871 q 654 898 642 898 q 670 876 661 898 q 886 205 849 315 q 935 376 906 279 q 985 549 963 473 q 1028 711 1006 625 q 1044 806 1044 776 q 1023 838 1044 825 q 983 855 1002 852 q 952 859 964 859 q 947 876 947 860 q 952 898 947 892 q 1099 891 1077 891 q 1145 892 1126 891 q 1185 895 1164 894 q 1226 898 1206 897 q 1227 876 1229 892 q 1223 859 1226 859 q 1184 848 1213 859 q 1138 823 1156 838 q 1089 720 1114 802 q 996 392 1057 609 q 895 43 935 175 q 873 12 890 26 q 844 -3 857 -3 q 830 19 836 -3 q 781 163 811 73 q 722 341 751 254 q 667 509 693 429 q 624 640 640 590 l 608 689 q 507 370 571 571 q 404 43 442 168 q 382 12 399 26 q 353 -3 366 -3 q 339 19 345 -3 q 221 401 294 163 q 122 722 148 639 q 117 741 121 727 q 111 759 113 754 q 106 774 110 764 q 101 788 103 784 q 96 800 99 792 q 90 812 92 807 q 83 822 87 817 q 73 831 79 827 q -5 859 43 859 q -8 877 -8 859 q -5 898 -8 895 q 160 891 151 891 z "},"X":{"ha":906,"x_min":-12,"x_max":909,"o":"m 216 891 q 389 898 254 891 q 391 876 392 892 q 387 859 391 859 q 334 848 362 859 q 305 815 305 838 q 321 774 305 799 l 479 533 q 553 632 502 564 q 633 738 605 700 q 677 800 662 776 q 682 822 682 808 q 591 857 682 857 q 587 874 587 859 q 589 897 586 890 q 728 890 680 890 q 878 897 796 890 q 881 878 882 892 q 875 857 880 863 q 847 854 864 857 q 801 838 830 850 q 754 803 772 825 q 505 488 624 647 l 772 90 q 828 49 789 62 q 905 35 867 35 q 908 14 909 28 q 906 -4 907 -1 q 766 3 770 3 q 568 -4 758 3 q 563 18 563 1 q 568 35 563 35 q 617 46 587 35 q 647 73 647 57 q 640 90 647 79 l 434 408 q 209 90 244 155 q 202 68 202 69 q 307 35 202 35 q 311 14 311 30 q 309 -4 312 -1 q 156 3 184 3 q -11 -4 125 3 q -12 17 -14 3 q -8 35 -11 31 q 64 50 15 35 q 137 95 113 64 q 226 210 183 153 q 318 336 269 267 q 403 450 368 404 l 212 743 q 122 837 170 810 q 46 859 85 859 q 41 876 41 859 q 46 898 41 892 q 216 891 212 891 z "},"Y":{"ha":811,"x_min":-19,"x_max":819,"o":"m 354 157 l 354 362 q 345 400 354 381 q 245 578 302 476 q 152 743 187 680 q 62 837 117 806 q -14 859 26 859 q -19 876 -19 859 q -14 898 -19 892 q 156 891 152 891 q 330 898 194 891 q 332 876 332 892 q 327 859 331 859 q 274 848 302 859 q 245 815 245 838 q 262 774 245 800 l 450 449 q 627 800 570 663 q 631 821 631 812 q 623 836 631 829 q 593 850 616 844 q 536 857 571 857 q 532 876 533 857 q 533 897 530 894 q 669 890 659 890 q 818 897 682 890 q 819 873 821 890 q 815 857 818 857 q 694 803 726 857 q 480 408 654 730 q 473 366 473 396 l 472 157 q 479 57 472 79 q 517 41 481 47 q 572 35 552 35 q 577 16 576 30 q 572 -4 578 1 q 414 3 434 3 q 254 -4 393 3 q 249 16 248 1 q 254 35 250 30 q 309 41 274 35 q 347 57 345 47 q 354 157 354 79 z "},"Z":{"ha":859,"x_min":47,"x_max":817,"o":"m 293 849 q 109 671 156 849 q 94 666 104 666 q 58 677 69 666 q 103 907 91 764 q 214 897 179 897 l 477 897 q 762 910 572 897 q 777 898 768 909 q 787 880 787 887 q 642 667 785 875 q 355 252 499 458 l 213 47 l 567 47 q 693 96 644 47 q 765 229 727 130 q 784 233 768 233 q 817 221 804 233 q 751 0 758 30 l 72 0 q 52 7 61 0 q 47 19 43 14 l 624 849 l 293 849 z "},"[":{"ha":351,"x_min":107,"x_max":345,"o":"m 133 974 q 340 982 133 974 q 345 970 345 978 q 331 948 345 952 q 269 932 308 940 q 201 921 229 925 l 172 917 l 172 -130 q 331 -161 279 -144 q 345 -183 345 -165 l 340 -195 q 133 -187 244 -187 q 107 -156 107 -187 l 107 943 q 133 974 107 974 z "},"\\":{"ha":544,"x_min":42,"x_max":500,"o":"m 42 1017 q 69 1027 47 1027 q 92 1020 80 1027 q 107 1005 104 1013 q 500 -23 500 -15 q 469 -38 496 -38 q 441 -19 449 -38 q 42 1017 98 873 z "},"]":{"ha":353,"x_min":8,"x_max":245,"o":"m 220 974 q 245 943 245 974 l 245 -156 q 220 -187 245 -187 q 12 -195 220 -187 q 8 -183 8 -191 q 22 -161 8 -165 q 84 -146 45 -153 q 152 -134 123 -138 l 180 -130 l 180 917 q 22 948 73 930 q 8 970 8 952 l 12 982 q 220 974 109 974 z "},"^":{"ha":529,"x_min":83,"x_max":422,"o":"m 252 875 q 274 857 266 875 q 422 595 290 823 q 415 580 422 586 q 401 574 408 574 q 337 646 374 602 q 277 719 300 690 l 252 749 q 104 574 167 639 q 90 580 98 574 q 83 595 83 586 q 132 680 102 629 q 185 770 163 730 q 232 857 208 810 q 252 875 241 875 z "},"_":{"ha":685,"x_min":19,"x_max":654,"o":"m 19 -45 q 39 18 26 18 l 648 18 q 654 11 654 18 q 640 -50 654 0 q 637 -56 639 -54 q 633 -58 635 -58 l 632 -58 l 28 -58 q 19 -45 19 -58 z "},"`":{"ha":464,"x_min":157,"x_max":374,"o":"m 206 928 q 243 917 232 928 q 325 805 275 876 q 374 728 374 734 q 362 711 374 711 q 252 785 347 711 q 157 888 157 860 q 206 928 157 928 z "},"a":{"ha":585,"x_min":50,"x_max":567,"o":"m 254 62 q 329 84 286 62 q 372 118 372 106 l 372 302 q 245 263 267 271 q 163 157 163 231 q 189 91 163 119 q 254 62 216 62 m 327 591 q 430 537 385 591 q 475 406 475 483 l 475 126 q 517 62 475 62 q 562 80 534 62 q 567 69 567 80 q 560 43 567 54 q 511 10 544 28 q 458 -8 477 -8 q 406 19 430 -8 q 376 80 382 46 q 298 25 357 61 q 209 -11 240 -11 q 96 34 141 -11 q 50 145 50 79 q 71 214 50 184 q 118 254 92 244 q 355 339 349 336 q 369 349 366 343 q 372 373 372 355 l 372 410 q 337 498 372 457 q 255 540 302 540 q 205 519 221 540 q 180 456 189 498 q 117 391 170 391 q 83 408 96 391 q 71 448 71 426 q 80 480 71 468 q 191 555 122 519 q 327 591 260 591 z "},"b":{"ha":675,"x_min":4,"x_max":621,"o":"m 286 -9 q 186 11 258 -9 q 98 19 123 28 q 87 31 94 19 q 80 49 80 43 q 96 149 96 85 l 96 757 q 90 827 96 811 q 7 852 79 852 q 5 861 5 852 q 5 878 4 869 q 8 887 5 887 q 201 941 102 897 q 211 934 206 941 q 216 920 216 926 q 201 802 201 876 l 201 534 q 205 519 201 519 q 209 521 206 519 q 288 568 236 541 q 373 594 339 594 q 554 507 487 594 q 621 316 621 419 q 525 86 621 182 q 286 -9 429 -9 m 308 514 q 251 501 283 514 q 208 477 218 488 q 201 463 201 471 l 201 133 q 240 64 201 91 q 327 37 279 37 q 453 108 399 37 q 507 263 507 179 q 453 447 507 380 q 308 514 399 514 z "},"c":{"ha":574,"x_min":53,"x_max":533,"o":"m 518 524 q 503 474 518 490 q 467 458 487 458 q 439 467 453 458 q 410 490 426 476 q 388 509 395 505 q 311 534 350 534 q 205 471 252 534 q 159 308 159 408 q 220 136 159 194 q 378 79 281 79 q 522 148 463 79 q 526 146 524 148 q 530 139 528 144 q 533 129 533 134 q 525 104 533 118 q 448 26 499 62 q 327 -11 397 -11 q 130 71 208 -11 q 53 263 53 153 q 160 498 53 403 q 382 594 267 594 q 505 562 456 594 q 518 524 518 548 z "},"d":{"ha":699,"x_min":53,"x_max":674,"o":"m 376 594 q 469 581 435 594 q 476 609 476 581 l 476 757 q 469 827 476 811 q 387 852 458 852 q 385 861 385 852 q 385 878 384 869 q 388 887 385 887 q 581 941 481 897 q 591 934 586 941 q 595 920 595 926 q 581 802 581 876 l 581 221 q 590 88 581 110 q 607 75 594 80 q 633 67 620 69 q 658 65 646 65 l 670 64 q 674 47 674 62 q 671 35 674 43 q 663 27 667 27 q 618 22 643 26 q 571 12 593 18 q 530 1 549 7 q 499 -8 510 -4 l 487 -11 q 476 15 476 -11 l 476 62 q 472 71 475 72 q 393 19 452 49 q 292 -11 335 -11 q 125 73 197 -11 q 53 279 53 157 q 109 439 53 363 q 239 554 164 514 q 376 594 313 594 m 332 537 q 212 470 258 537 q 167 312 167 403 q 218 142 167 212 q 358 73 269 73 q 439 92 401 73 q 476 127 476 110 l 476 471 q 432 516 476 495 q 332 537 388 537 z "},"e":{"ha":583,"x_min":54,"x_max":532,"o":"m 157 387 q 378 387 157 387 q 410 418 410 387 q 381 502 410 458 q 298 545 353 545 q 213 506 248 545 q 165 427 178 467 q 157 387 153 387 m 151 336 q 151 327 151 331 q 214 142 151 208 q 372 76 278 76 q 460 100 420 76 q 521 148 499 123 q 524 146 522 148 q 529 139 526 144 q 532 129 532 134 q 524 104 532 118 q 447 26 498 62 q 326 -11 396 -11 q 130 70 206 -11 q 54 271 54 151 q 140 498 54 401 q 321 594 227 594 q 421 574 378 594 q 485 522 464 553 q 515 462 506 490 q 525 410 525 434 q 492 346 525 347 q 151 336 345 336 z "},"f":{"ha":418,"x_min":33,"x_max":442,"o":"m 365 945 q 403 943 393 945 q 429 929 412 940 q 442 891 442 916 q 388 837 442 837 q 349 852 376 837 q 309 864 326 864 q 255 831 277 864 q 235 736 233 798 l 235 586 l 395 586 q 401 571 401 586 q 382 530 401 549 l 235 530 l 235 157 q 241 57 235 79 q 278 41 244 47 q 332 35 312 35 q 337 16 336 30 q 332 -4 338 1 q 182 3 193 3 q 38 -4 176 3 q 33 16 33 1 q 38 35 34 30 q 89 41 57 35 q 123 57 121 47 q 130 157 130 79 l 130 530 l 52 530 q 45 543 45 530 q 80 586 45 551 l 130 586 l 130 591 l 130 594 q 212 838 130 731 q 365 945 294 945 z "},"g":{"ha":632,"x_min":31,"x_max":618,"o":"m 292 555 q 205 507 237 555 q 172 396 172 458 q 208 278 172 330 q 302 227 244 227 q 387 273 355 227 q 418 381 418 320 q 385 503 418 450 q 292 555 351 555 m 346 -5 q 220 -12 232 -5 q 138 -103 138 -58 q 187 -213 138 -171 q 320 -255 236 -255 q 458 -210 392 -255 q 525 -110 525 -164 q 479 -39 525 -73 q 346 -5 433 -5 m 408 91 q 554 48 490 91 q 618 -52 618 5 q 510 -223 618 -140 q 266 -308 401 -307 q 103 -265 175 -309 q 31 -142 31 -221 q 77 -65 31 -103 q 175 -1 123 -27 q 98 45 133 12 q 64 125 64 79 q 118 174 79 144 q 180 217 157 203 q 99 292 130 244 q 68 391 68 340 q 134 534 68 472 q 297 595 201 595 q 420 566 343 595 q 452 556 438 559 l 597 576 q 610 563 610 572 q 600 533 610 553 q 579 507 589 513 l 490 513 q 484 509 484 513 q 508 463 494 499 q 522 385 522 426 q 454 248 522 311 q 293 186 387 186 q 217 198 247 186 q 167 138 167 170 q 189 108 167 125 q 248 91 212 91 l 408 91 z "},"h":{"ha":700,"x_min":23,"x_max":689,"o":"m 416 594 q 556 529 521 594 q 591 307 591 464 l 591 157 q 598 57 591 79 q 633 41 601 47 q 684 35 665 35 q 688 16 688 30 q 684 -4 689 1 q 538 3 545 3 q 395 -4 534 3 q 390 16 389 1 q 395 35 391 30 q 446 41 414 35 q 480 57 477 47 q 487 157 487 79 l 487 293 q 460 468 487 420 q 354 515 433 515 q 273 484 320 515 q 225 441 225 453 l 225 157 q 232 57 225 79 q 267 41 235 47 q 317 35 298 35 q 322 16 321 30 q 317 -4 323 1 q 172 3 179 3 q 28 -4 168 3 q 24 16 23 1 q 28 35 24 30 q 79 41 47 35 q 114 57 111 47 q 121 157 121 79 l 121 757 q 114 827 121 811 q 31 852 103 852 q 29 861 30 852 q 29 878 28 869 q 33 887 30 887 q 225 941 126 897 q 235 934 231 941 q 240 920 240 926 q 225 802 225 876 l 225 495 q 229 492 225 492 q 233 495 231 492 q 317 559 260 525 q 416 594 373 594 z "},"i":{"ha":366,"x_min":46,"x_max":338,"o":"m 245 441 l 245 157 q 252 57 245 79 q 287 41 255 47 q 338 35 319 35 q 342 16 342 30 q 338 -4 343 1 q 193 3 198 3 q 49 -4 187 3 q 44 16 43 1 q 49 35 45 30 q 100 41 68 35 q 134 57 132 47 q 141 157 141 79 l 141 410 q 134 480 141 464 q 46 505 125 505 q 43 521 43 507 q 46 540 42 534 q 240 597 161 556 q 250 589 245 597 q 255 575 255 581 q 245 486 245 509 l 245 441 m 135 756 q 125 766 135 756 q 115 804 115 776 q 135 852 115 833 q 183 872 155 872 q 231 852 212 872 q 251 804 251 833 q 231 756 251 776 q 183 736 212 736 q 135 756 155 736 z "},"j":{"ha":324,"x_min":-23,"x_max":239,"o":"m 125 61 l 125 410 q 118 480 125 464 q 30 505 109 505 q 26 521 27 507 q 30 540 26 534 q 224 597 145 556 q 234 589 229 597 q 239 575 239 581 q 229 486 229 509 l 229 439 l 229 92 q 206 -75 229 0 q 145 -195 183 -149 q 71 -269 107 -241 q -5 -313 34 -297 q -23 -293 -18 -305 q -23 -283 -26 -286 q 52 -219 24 -250 q 102 -117 79 -189 q 125 61 125 -45 m 109 756 q 99 766 109 756 q 90 804 90 776 q 109 852 90 833 q 157 872 129 872 q 205 852 186 872 q 225 804 225 833 q 205 756 225 776 q 157 736 186 736 q 109 756 129 736 z "},"k":{"ha":703,"x_min":23,"x_max":697,"o":"m 225 157 q 232 57 225 79 q 267 41 235 47 q 317 35 298 35 q 322 16 321 30 q 317 -4 323 1 q 172 3 179 3 q 28 -4 168 3 q 24 16 23 1 q 28 35 24 30 q 79 41 47 35 q 114 57 111 47 q 121 157 121 79 l 121 757 q 114 827 121 811 q 31 852 103 852 q 29 861 30 852 q 29 878 28 869 q 33 887 30 887 q 225 941 126 897 q 235 934 231 941 q 240 920 240 926 q 225 802 225 876 l 225 319 q 336 401 250 327 q 376 435 354 416 q 412 464 399 453 q 437 486 425 475 q 456 503 450 496 q 461 514 461 510 q 396 537 461 530 q 392 559 391 544 q 399 576 393 574 q 529 570 464 570 q 648 576 598 570 q 652 555 652 570 q 648 537 651 541 q 597 528 631 537 q 544 506 563 519 q 324 338 393 397 q 421 230 362 296 q 517 124 480 164 q 568 72 553 84 q 693 35 617 33 q 696 20 696 31 q 694 3 697 8 q 606 -5 675 -5 q 505 14 552 -5 q 439 54 458 34 q 245 264 323 180 l 225 277 l 225 157 z "},"l":{"ha":346,"x_min":23,"x_max":323,"o":"m 121 757 q 114 827 121 811 q 31 852 103 852 q 29 861 30 852 q 29 878 28 869 q 33 887 30 887 q 225 941 126 897 q 235 934 231 941 q 240 920 240 926 q 225 802 225 876 l 225 157 q 232 57 225 79 q 267 41 235 47 q 317 35 298 35 q 322 16 321 30 q 317 -4 323 1 q 172 3 179 3 q 28 -4 168 3 q 24 16 23 1 q 28 35 24 30 q 79 41 47 35 q 114 57 111 47 q 121 157 121 79 l 121 757 z "},"m":{"ha":1072,"x_min":42,"x_max":1059,"o":"m 433 594 q 587 481 557 594 q 787 594 711 594 q 926 529 891 594 q 962 307 962 464 l 962 157 q 968 57 962 79 q 1003 41 971 47 q 1054 35 1035 35 q 1059 16 1058 30 q 1054 -4 1059 1 q 909 3 914 3 q 765 -4 903 3 q 760 16 760 1 q 765 35 761 30 q 816 41 784 35 q 850 57 848 47 q 857 157 857 79 l 857 302 q 832 465 857 414 q 730 515 807 515 q 667 498 700 515 q 615 462 633 480 q 597 438 597 444 l 597 430 q 598 420 598 422 q 604 324 604 387 l 604 157 q 610 57 604 79 q 645 41 613 47 q 696 35 677 35 q 701 16 700 30 q 696 -4 701 1 q 551 3 556 3 q 407 -4 545 3 q 402 16 401 1 q 407 35 403 30 q 458 41 426 35 q 492 57 490 47 q 499 157 499 79 l 499 296 q 472 468 499 420 q 372 515 445 515 q 288 486 331 515 q 245 441 245 457 l 245 157 q 252 57 245 79 q 287 41 255 47 q 338 35 319 35 q 342 16 342 30 q 338 -4 343 1 q 193 3 198 3 q 49 -4 187 3 q 44 16 43 1 q 49 35 45 30 q 100 41 68 35 q 134 57 132 47 q 141 157 141 79 l 141 404 q 134 480 141 464 q 46 505 125 505 q 43 521 43 507 q 46 540 42 534 q 240 597 161 556 q 250 589 245 597 q 255 575 255 581 q 247 505 247 518 q 250 499 247 499 q 254 502 251 499 q 433 594 363 594 z "},"n":{"ha":722,"x_min":42,"x_max":709,"o":"m 437 594 q 576 529 541 594 q 612 307 612 464 l 612 157 q 618 57 612 79 q 653 41 621 47 q 704 35 685 35 q 709 16 708 30 q 704 -4 709 1 q 559 3 564 3 q 415 -4 553 3 q 410 16 410 1 q 415 35 411 30 q 466 41 434 35 q 500 57 498 47 q 507 157 507 79 l 507 293 q 480 468 507 420 q 374 515 453 515 q 293 484 340 515 q 245 441 245 453 l 245 157 q 252 57 245 79 q 287 41 255 47 q 338 35 319 35 q 342 16 342 30 q 338 -4 343 1 q 193 3 198 3 q 49 -4 187 3 q 44 16 43 1 q 49 35 45 30 q 100 41 68 35 q 134 57 132 47 q 141 157 141 79 l 141 404 q 134 480 141 464 q 46 505 125 505 q 43 521 43 507 q 46 540 42 534 q 240 597 161 556 q 250 589 245 597 q 255 575 255 581 q 247 498 247 518 q 250 492 247 492 q 254 495 251 492 q 337 559 281 525 q 437 594 393 594 z "},"o":{"ha":690,"x_min":56,"x_max":635,"o":"m 330 551 q 211 483 250 551 q 172 316 172 415 q 224 121 172 208 q 361 35 275 35 q 479 103 441 35 q 518 269 518 171 q 467 463 518 376 q 330 551 415 551 m 345 595 q 555 512 476 595 q 635 300 635 429 q 553 79 635 168 q 347 -9 471 -9 q 136 75 216 -9 q 56 289 56 159 q 138 508 56 420 q 345 595 221 595 z "},"p":{"ha":692,"x_min":18,"x_max":639,"o":"m 393 594 q 574 505 509 594 q 639 315 639 416 q 539 87 639 186 q 321 -11 439 -11 q 227 4 274 -11 q 221 -14 221 -3 l 221 -145 q 228 -245 221 -224 q 262 -261 231 -255 q 313 -267 294 -267 q 318 -287 317 -273 q 313 -307 319 -301 q 168 -300 174 -300 q 24 -307 163 -300 q 20 -287 19 -301 q 24 -267 20 -273 q 75 -261 43 -267 q 110 -245 107 -255 q 117 -145 117 -224 l 117 410 q 110 480 117 464 q 22 505 100 505 q 18 521 19 507 q 22 540 18 534 q 216 597 137 556 q 226 589 221 597 q 231 575 231 581 q 226 550 231 574 q 221 519 221 526 q 224 514 221 514 q 228 517 225 514 q 309 569 260 544 q 393 594 357 594 m 335 514 q 258 495 296 514 q 221 461 221 476 l 221 136 q 262 62 221 88 q 347 37 304 37 q 476 106 427 37 q 525 264 525 176 q 471 448 525 381 q 335 514 416 514 z "},"q":{"ha":674,"x_min":53,"x_max":675,"o":"m 347 545 q 245 505 288 545 q 184 414 202 464 q 167 319 167 365 q 222 137 167 202 q 365 72 278 72 q 438 91 403 72 q 473 126 473 110 l 473 450 q 434 519 473 492 q 347 545 395 545 m 388 594 q 467 577 408 594 q 549 560 526 560 q 576 564 564 560 q 588 553 582 564 q 594 534 594 541 q 578 434 578 498 l 578 -146 q 585 -247 578 -225 q 619 -262 587 -256 q 670 -269 651 -269 q 675 -288 674 -274 q 670 -308 675 -302 q 525 -301 532 -301 q 381 -308 521 -301 q 376 -288 376 -302 q 381 -269 377 -274 q 432 -262 400 -269 q 467 -247 464 -256 q 473 -146 473 -225 l 473 54 q 471 66 473 61 q 464 68 468 72 q 386 19 439 47 q 294 -9 332 -9 q 119 79 186 -9 q 53 270 53 168 q 162 498 53 401 q 388 594 271 594 z "},"r":{"ha":519,"x_min":42,"x_max":499,"o":"m 411 593 q 460 581 437 593 q 494 553 484 570 q 499 517 499 537 q 484 465 499 483 q 454 446 468 446 q 438 450 446 446 q 418 462 430 453 q 404 472 406 471 q 354 488 380 488 q 280 442 315 488 q 245 366 245 396 l 245 157 q 252 57 245 79 q 300 41 255 47 q 369 35 346 35 q 374 16 373 30 q 369 -4 374 1 q 201 3 231 3 q 49 -4 187 3 q 44 16 43 1 q 49 35 45 30 q 100 41 68 35 q 134 57 132 47 q 141 157 141 79 l 141 410 q 134 480 141 464 q 46 505 125 505 q 43 521 43 507 q 46 540 42 534 q 240 597 161 556 q 250 589 245 597 q 255 575 255 581 q 245 450 245 509 q 251 448 245 442 q 321 545 274 498 q 411 593 369 593 z "},"s":{"ha":500,"x_min":56,"x_max":446,"o":"m 264 593 q 340 585 294 593 q 403 575 385 578 q 419 426 416 514 q 406 419 419 419 q 382 426 391 419 q 339 511 370 472 q 269 551 308 551 q 197 527 221 551 q 172 465 172 503 q 178 433 172 448 q 189 410 183 419 q 209 389 194 400 q 232 372 224 377 q 261 355 240 366 q 290 338 282 343 q 321 319 293 336 q 359 297 350 302 q 390 274 368 292 q 420 244 412 256 q 437 212 429 232 q 446 172 446 193 q 384 39 446 92 q 237 -15 321 -15 q 185 -12 209 -15 q 129 0 161 -8 q 79 11 96 8 q 63 79 71 33 q 56 152 56 125 q 80 160 66 160 q 92 157 88 160 q 147 69 106 110 q 239 28 189 28 q 309 54 282 28 q 336 126 336 80 q 328 170 336 151 q 300 205 320 189 q 264 231 279 221 q 217 257 248 240 q 171 282 186 274 q 68 427 68 342 q 127 547 68 500 q 264 593 186 593 z "},"t":{"ha":422,"x_min":27,"x_max":399,"o":"m 217 586 l 392 586 q 399 571 399 586 q 380 530 399 549 l 217 530 l 217 175 q 307 64 217 64 q 395 95 351 64 q 399 85 399 92 q 393 65 399 71 q 254 -9 328 -9 q 113 137 113 -9 l 113 530 l 34 530 q 27 543 27 530 q 62 586 27 551 q 113 586 62 586 q 113 671 113 586 q 144 706 123 684 q 179 745 164 728 q 195 762 194 761 q 203 766 198 765 q 213 767 209 768 q 217 764 217 766 l 217 586 z "},"u":{"ha":699,"x_min":19,"x_max":673,"o":"m 475 434 q 464 507 475 487 q 388 534 449 534 q 385 551 385 537 q 388 570 384 564 q 574 597 499 574 q 583 584 578 597 q 589 564 589 571 q 579 476 579 545 l 579 414 l 579 191 q 589 88 579 133 q 604 73 591 79 q 629 66 616 68 q 656 65 643 65 l 669 64 q 673 49 673 62 q 669 36 673 45 q 662 27 666 27 q 616 22 642 26 q 570 12 591 18 q 528 1 548 7 q 496 -8 509 -4 l 486 -11 q 475 11 475 -11 l 475 73 l 472 80 q 385 18 441 46 q 279 -9 328 -9 q 110 260 110 -9 l 110 434 q 99 507 110 487 q 23 534 84 534 q 20 551 20 537 q 23 570 19 564 q 209 597 134 574 q 218 586 213 597 q 224 570 224 575 q 214 476 214 551 l 214 418 l 214 277 q 247 117 214 168 q 350 66 279 66 q 434 92 393 66 q 475 141 475 117 l 475 434 z "},"v":{"ha":642,"x_min":3,"x_max":642,"o":"m 138 576 q 274 583 138 576 q 275 561 277 578 q 269 544 273 544 q 202 521 202 544 q 203 515 202 518 l 353 149 q 473 457 422 330 q 481 500 481 476 q 460 532 481 521 q 403 544 438 544 q 397 561 397 544 q 403 583 397 578 q 513 576 507 576 q 554 578 536 576 q 595 581 572 579 q 639 583 618 582 q 641 561 643 578 q 635 544 639 544 q 589 533 617 544 q 549 498 560 522 q 346 8 404 152 q 330 -7 343 0 q 311 -15 317 -15 q 298 -9 301 -15 q 222 176 267 65 q 144 368 178 288 q 77 517 110 449 q 3 544 64 544 q 3 583 -5 564 q 48 581 23 582 q 94 578 73 579 q 138 576 114 576 z "},"w":{"ha":978,"x_min":0,"x_max":978,"o":"m 137 576 q 273 583 137 576 q 275 562 275 578 q 270 544 274 545 q 202 513 202 544 l 209 492 q 349 159 222 454 q 458 444 458 437 q 426 518 458 471 q 366 544 408 544 q 361 562 361 547 q 366 583 361 578 q 420 579 382 582 q 490 576 457 576 q 631 583 495 576 q 633 562 633 576 q 629 544 633 548 q 562 500 562 544 q 566 486 562 496 q 689 163 571 468 q 808 467 787 404 q 815 499 815 486 q 808 522 815 513 q 785 536 800 532 q 761 541 769 540 q 734 544 753 543 q 729 562 730 547 q 734 583 728 578 q 787 579 753 582 q 852 576 821 576 q 893 578 875 576 q 934 581 911 579 q 977 583 956 582 q 978 564 978 581 q 972 544 978 548 q 922 532 954 544 q 880 495 891 521 q 684 8 761 194 q 671 -7 681 0 q 655 -15 662 -15 q 639 -9 642 -15 l 488 382 l 342 11 q 329 -5 340 5 q 308 -15 317 -15 q 296 -9 298 -15 q 76 514 182 274 q 3 544 64 544 q 0 564 0 551 q 3 583 0 578 q 47 581 23 582 q 92 578 72 579 q 137 576 113 576 z "},"x":{"ha":646,"x_min":14,"x_max":637,"o":"m 167 576 q 304 583 229 576 q 301 544 311 556 q 247 521 247 544 q 254 505 247 515 l 343 362 q 382 418 354 380 q 425 481 410 457 q 439 518 439 506 q 429 534 439 528 q 406 541 418 540 q 378 543 393 543 l 363 544 q 361 562 361 545 q 363 583 361 579 q 409 581 384 582 q 455 578 434 579 q 500 576 476 576 q 609 583 562 576 q 610 561 610 578 q 608 544 609 544 q 503 514 522 540 q 451 441 486 490 q 395 363 416 393 q 368 326 373 332 l 530 84 q 635 35 564 35 q 637 26 636 35 q 636 8 637 18 q 633 -4 635 -1 q 506 3 507 3 q 355 -4 502 3 q 353 19 353 3 q 357 35 354 35 q 414 60 414 39 q 411 68 414 62 q 304 237 340 183 q 262 176 297 227 q 206 91 228 125 q 198 65 198 77 q 266 35 198 41 q 273 35 270 35 q 275 27 274 35 q 275 9 275 19 q 271 -4 274 -1 q 229 -1 252 -3 q 185 1 205 0 q 142 3 165 3 q 100 1 119 3 q 57 -1 81 0 q 15 -4 33 -3 q 14 17 12 4 q 18 35 15 30 q 34 37 20 35 q 52 40 47 39 q 69 43 57 41 q 87 48 81 46 q 103 54 92 50 q 120 63 114 58 q 134 74 126 68 q 146 88 141 80 q 279 279 273 270 l 122 514 q 31 544 103 544 q 29 552 30 544 q 30 570 28 560 q 33 583 31 579 q 167 576 107 576 z "},"y":{"ha":636,"x_min":0,"x_max":635,"o":"m 138 576 q 274 583 217 576 q 275 561 277 578 q 269 544 273 544 q 201 521 201 544 l 203 515 l 347 149 q 467 457 415 330 q 475 500 475 476 q 453 532 475 521 q 396 544 431 544 q 391 561 391 544 q 396 583 391 578 q 518 576 448 576 q 632 583 564 576 q 635 561 636 578 q 629 544 633 544 q 583 533 612 544 q 543 498 553 522 q 339 8 397 152 q 310 -68 331 -11 q 271 -163 289 -126 q 232 -233 254 -201 q 114 -309 180 -309 q 54 -251 54 -309 q 71 -212 54 -231 q 156 -198 125 -212 q 225 -134 187 -184 q 263 -64 240 -115 q 290 3 286 -12 q 76 517 163 330 q 3 544 62 544 q 0 562 0 544 q 3 583 0 581 q 138 576 68 576 z "},"z":{"ha":606,"x_min":46,"x_max":568,"o":"m 201 585 l 374 585 q 540 595 450 585 q 544 563 544 589 q 184 47 184 52 l 374 47 q 471 84 431 47 q 524 170 510 121 q 533 178 525 178 q 568 161 555 178 q 507 0 528 62 l 66 0 q 53 11 60 3 q 46 27 46 19 q 47 37 46 35 l 396 537 l 206 538 q 168 532 184 538 q 139 511 151 525 q 122 488 127 496 q 110 461 117 480 l 103 444 q 73 431 98 431 q 58 435 58 431 q 80 595 75 495 q 201 585 152 585 z "},"{":{"ha":301,"x_min":35,"x_max":245,"o":"m 141 519 q 110 621 141 551 q 79 734 79 689 q 125 890 79 823 q 224 977 171 956 q 239 968 232 977 q 245 951 245 960 q 175 890 212 935 q 138 799 138 845 q 172 675 138 754 q 203 549 203 610 q 171 447 203 490 q 104 391 138 404 q 171 334 138 377 q 203 232 203 292 q 172 106 203 171 q 138 -18 138 27 q 175 -109 138 -64 q 245 -170 212 -153 q 239 -187 245 -179 q 224 -195 232 -195 q 125 -109 171 -175 q 79 47 79 -42 q 110 160 79 92 q 141 262 141 231 q 38 376 141 350 q 35 391 35 378 q 38 406 35 403 q 141 519 141 431 z "},"|":{"ha":278,"x_min":104,"x_max":174,"o":"m 174 -144 q 146 -159 174 -151 q 111 -167 118 -167 q 104 -156 104 -167 l 104 1027 q 111 1038 103 1035 q 161 1047 144 1047 q 170 1045 167 1047 q 172 1042 172 1043 l 172 1039 l 174 -144 z "},"}":{"ha":302,"x_min":56,"x_max":266,"o":"m 77 977 q 176 890 130 956 q 222 734 222 823 q 191 621 222 689 q 160 519 160 551 q 263 406 160 431 q 266 391 266 400 q 263 376 266 380 q 160 262 160 350 q 191 160 160 231 q 222 47 222 92 q 176 -109 222 -42 q 77 -195 130 -175 q 62 -187 69 -195 q 56 -170 56 -179 q 126 -109 90 -153 q 163 -18 163 -64 q 129 106 163 27 q 98 232 98 171 q 130 334 98 292 q 197 391 163 377 q 130 447 163 404 q 98 549 98 490 q 129 675 98 610 q 163 799 163 754 q 126 890 163 845 q 56 951 90 935 q 62 968 56 960 q 77 977 69 977 z "},"~":{"ha":773,"x_min":76,"x_max":707,"o":"m 368 376 q 212 411 273 411 q 88 351 153 411 q 76 374 76 358 q 136 446 76 411 q 252 480 197 480 q 414 444 312 480 q 572 408 509 408 q 591 410 582 408 q 608 413 601 411 q 624 420 614 415 q 638 427 633 425 q 653 436 643 429 q 666 446 663 444 q 680 456 669 448 q 694 468 692 465 q 707 445 707 461 q 650 374 707 410 q 533 339 594 339 q 368 376 464 339 z "},"":{"ha":294,"x_min":0,"x_max":0,"o":""},"":{"ha":292,"x_min":72,"x_max":221,"o":"m 72 507 q 94 561 72 538 q 145 583 115 583 q 199 560 176 583 q 221 507 221 537 q 199 456 221 477 q 145 434 176 434 q 93 456 114 434 q 72 507 72 477 m 140 -302 q 96 -278 111 -302 q 80 -224 80 -254 q 126 335 80 -214 q 148 353 134 351 q 167 338 163 347 q 208 -224 208 -130 q 189 -279 208 -255 q 140 -302 171 -302 z "},"":{"ha":605,"x_min":61,"x_max":541,"o":"m 369 640 q 407 632 407 640 l 294 -61 q 256 -52 256 -61 l 369 640 m 526 524 q 511 474 526 490 q 475 458 495 458 q 448 467 461 458 q 418 490 434 476 q 396 509 403 505 q 319 534 358 534 q 214 471 260 534 q 167 308 167 408 q 228 136 167 194 q 387 79 289 79 q 530 148 471 79 q 534 146 532 148 q 538 139 536 144 q 541 129 541 134 q 533 104 541 118 q 456 26 507 62 q 335 -11 406 -11 q 138 71 216 -11 q 61 263 61 153 q 168 498 61 403 q 391 594 275 594 q 513 562 464 594 q 526 524 526 548 z "},"":{"ha":647,"x_min":60,"x_max":597,"o":"m 426 863 q 524 830 475 863 q 537 792 537 817 q 522 743 537 758 q 486 727 506 727 q 464 732 475 727 q 446 744 453 738 q 429 762 439 750 q 414 777 418 773 q 366 800 389 800 q 274 623 274 800 q 292 464 274 571 l 517 464 q 521 436 528 450 q 505 415 514 422 l 300 415 q 302 369 302 389 q 262 235 302 302 q 182 132 221 167 q 229 142 203 142 q 319 111 260 142 q 444 79 377 79 q 509 103 477 79 q 555 148 541 127 q 579 189 570 168 q 585 186 581 189 q 593 178 589 183 q 597 167 597 172 q 593 146 597 159 q 520 44 576 99 q 395 -11 464 -11 q 259 28 331 -11 q 157 66 187 66 q 125 54 138 66 q 101 20 113 41 q 81 -8 90 -1 q 66 2 73 -8 q 60 22 60 12 q 127 127 60 60 q 179 211 157 157 q 201 313 201 264 q 187 415 201 327 l 75 415 q 83 442 69 420 q 106 464 96 464 l 179 464 q 170 541 170 522 q 245 768 165 674 q 426 863 326 863 z "},"":{"ha":779,"x_min":106,"x_max":675,"o":"m 399 206 q 497 263 458 206 q 536 399 536 320 q 488 560 536 492 q 376 628 439 628 q 277 570 316 628 q 237 433 237 511 q 286 273 237 340 q 399 206 334 206 m 540 617 l 620 692 q 637 689 625 697 q 660 665 648 681 q 675 632 671 648 l 594 556 q 633 416 633 491 q 589 270 633 336 l 662 191 q 659 174 667 186 q 635 151 651 163 q 602 136 618 140 l 532 210 q 388 163 467 163 q 233 217 301 163 l 161 149 q 144 152 156 144 q 121 176 133 160 q 106 209 110 193 l 179 278 q 138 416 138 342 q 190 574 138 505 l 119 650 q 122 667 114 655 q 146 690 130 678 q 179 705 163 701 l 250 631 q 388 673 311 673 q 540 617 473 673 z "},"":{"ha":911,"x_min":35,"x_max":873,"o":"m 408 296 l 275 296 q 281 323 270 301 q 302 346 293 346 l 407 346 q 399 370 404 359 q 299 548 357 446 q 206 713 241 650 q 117 807 171 776 q 41 829 80 829 q 35 846 35 829 q 41 868 35 863 q 210 861 206 861 q 384 868 248 861 q 386 846 387 863 q 381 829 385 829 q 328 819 357 829 q 300 785 300 808 q 316 745 300 770 l 505 422 q 684 773 636 659 q 688 793 688 785 q 679 806 688 799 q 645 821 670 814 q 586 827 620 827 q 582 846 583 827 q 583 867 581 864 q 723 860 708 860 q 872 867 736 860 q 873 844 875 860 q 869 827 872 827 q 749 773 780 827 q 534 378 708 700 q 528 346 528 366 l 658 346 q 661 317 669 332 q 644 296 654 302 l 528 296 q 528 237 528 269 l 658 237 q 661 209 669 224 q 644 187 654 194 l 526 187 q 526 157 526 168 q 533 57 526 79 q 571 41 536 47 q 627 35 606 35 q 631 16 631 30 q 627 -4 632 1 q 468 3 488 3 q 308 -4 448 3 q 303 16 302 1 q 308 35 304 30 q 363 41 328 35 q 401 57 399 47 q 408 157 408 79 l 408 187 l 275 187 q 281 215 270 193 q 302 237 293 237 l 408 237 l 408 296 z "},"":{"ha":290,"x_min":111,"x_max":180,"o":"m 180 543 q 153 529 180 536 q 118 522 125 522 q 111 533 111 522 l 111 1027 q 118 1038 110 1035 q 170 1044 141 1044 q 178 1042 175 1044 q 180 1039 180 1040 l 180 1036 l 180 543 m 111 -156 l 111 338 q 118 349 110 346 q 170 355 141 355 q 178 353 175 355 q 180 350 180 351 l 180 347 l 180 -146 q 153 -160 180 -153 q 118 -167 125 -167 q 111 -156 111 -167 z "},"":{"ha":598,"x_min":52,"x_max":548,"o":"m 187 -106 q 132 -95 157 -106 q 123 -60 123 -79 q 140 -28 123 -45 q 172 -11 156 -11 q 221 -27 189 -11 q 264 -38 243 -38 q 338 -19 302 -38 q 374 35 374 0 q 209 260 374 109 q 52 537 52 406 q 105 680 52 597 q 213 811 159 762 q 164 711 172 768 q 143 674 149 686 q 131 641 137 662 q 125 597 125 620 q 277 326 125 467 q 301 303 279 323 q 330 277 323 283 q 355 252 336 271 q 382 223 374 233 q 403 194 389 213 q 422 161 416 175 q 432 128 427 146 q 437 92 437 110 q 435 69 437 81 q 420 45 426 54 q 374 -4 388 19 q 366 -47 373 -7 q 387 -31 376 -42 q 187 -106 315 -106 m 387 -31 q 494 100 441 18 q 548 243 548 183 q 391 519 548 374 q 225 745 225 671 q 261 799 225 780 q 335 818 297 818 q 378 807 357 818 q 427 791 411 791 q 460 808 444 791 q 476 840 476 825 q 468 875 476 859 q 412 886 442 886 q 213 811 285 886 q 233 827 224 822 q 225 784 227 787 q 208 761 220 773 q 187 742 197 749 l 179 735 q 164 711 174 726 q 163 688 163 699 q 168 652 163 670 q 178 619 172 633 q 197 586 183 605 q 218 557 210 567 q 244 528 225 547 q 270 503 263 509 q 298 477 277 496 q 323 454 320 457 q 475 183 475 313 q 469 139 475 160 q 456 106 463 118 q 435 69 450 94 q 387 -31 427 12 z "},"":{"ha":511,"x_min":68,"x_max":444,"o":"m 336 745 q 346 754 336 745 q 381 764 355 764 q 425 745 407 764 q 444 700 444 726 q 425 656 444 674 q 380 639 406 639 q 335 657 354 639 q 316 701 316 675 q 336 745 316 727 m 87 745 q 97 754 87 745 q 133 764 107 764 q 177 745 159 764 q 195 700 195 726 q 176 656 195 674 q 132 639 157 639 q 87 657 106 639 q 68 701 68 675 q 87 745 68 727 z "},"":{"ha":894,"x_min":76,"x_max":818,"o":"m 618 374 q 608 330 618 368 q 591 290 597 293 q 448 264 528 264 q 309 320 365 264 q 254 456 254 376 q 308 597 254 538 q 445 655 362 655 q 597 629 529 655 q 618 547 618 552 q 597 534 618 534 q 587 537 593 534 q 575 564 585 551 q 535 593 566 578 q 461 609 505 609 q 369 567 407 609 q 331 468 331 525 q 376 350 331 392 q 473 308 420 308 q 571 334 543 308 q 583 351 578 340 q 589 370 587 362 q 591 378 590 378 q 618 374 616 378 m 216 696 q 169 648 216 696 q 121 464 121 600 q 216 232 121 328 q 448 136 312 136 q 680 232 583 136 q 776 464 776 328 q 680 696 776 600 q 448 792 583 792 q 216 696 312 792 m 184 202 q 130 256 184 202 q 76 464 76 311 q 184 726 76 617 q 446 834 293 834 q 709 726 600 834 q 818 464 818 617 q 709 202 818 311 q 446 94 600 94 q 184 202 293 94 z "},"":{"ha":468,"x_min":64,"x_max":422,"o":"m 205 388 q 256 407 227 388 q 286 434 286 426 l 286 549 q 258 541 278 547 q 222 530 237 534 q 199 522 206 525 q 141 454 141 499 q 160 408 141 427 q 205 388 179 388 m 255 754 q 327 717 296 754 q 358 627 358 680 l 358 433 q 387 388 358 388 q 418 400 393 388 q 422 393 422 400 q 416 376 422 384 q 383 353 407 366 q 346 339 359 339 q 310 358 327 339 q 289 400 293 377 q 235 362 275 387 q 174 338 195 338 q 96 369 127 338 q 64 446 64 400 q 79 493 64 472 q 111 521 94 514 q 275 581 267 576 q 286 604 286 585 l 286 629 q 264 688 286 663 q 206 713 243 713 q 170 701 182 713 q 153 661 159 689 q 110 616 146 616 q 86 628 95 616 q 77 655 77 640 q 84 678 77 671 q 161 730 113 705 q 255 754 209 754 z "},"":{"ha":654,"x_min":37,"x_max":601,"o":"m 281 334 q 288 358 281 343 q 571 574 458 461 q 601 557 595 566 q 524 459 595 537 q 400 335 452 381 q 524 211 452 289 q 601 113 595 133 q 571 96 595 104 q 288 312 458 209 q 281 334 281 323 m 37 334 q 43 358 37 343 q 327 574 214 461 q 357 557 351 566 q 279 459 351 537 q 156 335 208 381 q 279 211 208 289 q 357 113 351 133 q 327 96 351 104 q 43 312 214 209 q 37 334 37 323 z "},"":{"ha":796,"x_min":61,"x_max":700,"o":"m 700 570 l 700 229 q 689 223 699 228 q 664 214 680 218 q 636 209 648 209 q 618 218 623 210 l 618 494 l 69 494 q 61 507 61 494 q 81 570 68 570 l 700 570 z "},"":{"ha":894,"x_min":76,"x_max":818,"o":"m 438 750 q 521 722 481 750 q 560 650 560 694 q 538 594 560 620 q 486 556 517 568 q 583 420 522 495 q 648 389 605 393 q 649 383 650 387 q 648 374 648 380 l 647 370 q 555 377 572 370 q 518 401 530 385 q 423 540 487 444 q 406 547 418 547 l 385 547 l 385 441 q 388 399 385 408 q 427 389 389 389 q 429 380 429 388 q 427 370 429 372 q 354 373 381 373 q 279 370 326 373 q 277 380 277 372 q 279 389 277 388 q 319 399 317 389 q 321 441 321 408 l 321 681 q 319 723 321 713 q 279 732 317 732 q 277 742 277 735 q 279 751 277 749 q 357 749 326 749 q 393 749 366 749 q 438 750 419 750 m 495 636 q 416 727 495 727 q 388 722 391 727 q 385 678 385 715 l 385 571 l 410 571 q 495 636 495 571 m 216 783 q 169 735 216 783 q 121 552 121 688 q 216 320 121 416 q 448 224 312 224 q 680 320 583 224 q 776 552 776 416 q 680 783 776 688 q 448 879 583 879 q 216 783 312 879 m 184 290 q 130 344 184 290 q 76 552 76 399 q 184 814 76 705 q 446 922 293 922 q 709 814 600 922 q 818 552 818 705 q 709 290 818 399 q 446 180 600 180 q 184 290 293 180 z "},"":{"ha":458,"x_min":75,"x_max":387,"o":"m 378 675 q 75 675 378 675 q 69 703 65 680 q 83 732 73 726 l 387 732 q 391 707 393 727 q 378 675 388 686 z "},"":{"ha":372,"x_min":52,"x_max":319,"o":"m 102 727 q 127 667 102 692 q 186 643 152 643 q 244 667 220 643 q 269 727 269 692 q 244 786 269 762 q 186 810 220 810 q 126 785 151 810 q 102 727 102 761 m 91 633 q 71 653 91 633 q 52 727 52 673 q 91 821 52 781 q 186 860 130 860 q 280 821 241 860 q 319 727 319 781 q 279 632 319 671 q 186 593 240 593 q 91 633 130 593 z "},"":{"ha":743,"x_min":46,"x_max":697,"o":"m 66 84 q 685 84 66 84 q 697 68 697 84 q 675 8 697 30 l 54 8 q 46 22 46 8 q 52 54 46 30 q 66 84 58 77 m 66 490 l 332 490 l 332 761 q 391 776 372 776 q 401 774 396 776 q 407 770 406 772 l 408 768 l 408 490 l 685 490 q 697 473 697 490 q 675 414 697 435 l 408 414 l 408 140 q 350 125 388 125 q 332 137 332 125 l 332 414 l 54 414 q 46 427 46 414 q 52 460 46 437 q 66 490 58 483 z "},"":{"ha":486,"x_min":53,"x_max":434,"o":"m 434 488 q 412 422 429 475 q 384 345 395 370 l 69 345 q 57 351 62 345 q 53 361 52 357 q 135 445 58 368 q 244 567 212 522 q 308 719 308 651 q 284 789 308 762 q 218 817 260 817 q 100 750 155 817 q 86 757 96 746 q 77 773 76 768 q 146 847 102 817 q 235 878 190 878 q 351 837 307 878 q 396 732 396 796 q 334 595 396 670 q 164 419 313 572 l 327 419 q 356 425 343 419 q 378 441 369 431 q 392 460 387 452 q 402 480 397 469 q 408 492 407 491 q 415 496 410 495 q 434 488 429 496 z "},"":{"ha":431,"x_min":53,"x_max":381,"o":"m 220 876 q 302 848 266 876 q 338 772 338 821 q 313 702 338 731 q 259 659 288 673 q 338 621 294 659 q 381 524 381 583 q 317 388 381 438 q 160 338 254 338 q 69 358 92 338 q 53 391 53 373 q 66 422 53 410 q 95 435 79 435 q 113 430 106 435 q 130 412 121 425 q 144 396 140 400 q 197 376 164 376 q 268 408 241 376 q 294 499 294 439 q 264 582 294 548 q 197 616 235 616 q 174 614 186 616 q 153 608 163 612 q 142 605 144 605 q 136 620 138 609 q 136 633 133 629 q 226 675 190 644 q 262 754 262 707 q 241 802 262 781 q 193 823 220 823 q 98 773 148 823 q 92 779 95 774 q 86 789 88 784 q 85 795 84 793 q 220 876 140 876 z "},"":{"ha":353,"x_min":68,"x_max":285,"o":"m 236 928 q 285 888 285 928 q 190 785 285 860 q 80 711 95 711 q 68 728 68 711 q 117 805 68 734 q 199 917 167 876 q 236 928 210 928 z "},"":{"ha":734,"x_min":106,"x_max":697,"o":"m 195 302 q 213 150 195 213 q 264 87 231 87 q 376 153 327 87 q 457 308 426 220 l 457 404 l 457 566 q 490 593 475 593 q 532 574 502 593 q 562 543 562 555 q 530 334 562 532 l 517 264 q 542 139 517 189 q 612 90 567 90 q 681 130 650 90 q 693 118 686 130 q 697 103 697 110 q 648 26 684 58 q 571 -5 612 -5 q 530 20 548 -5 q 503 81 513 45 q 489 145 494 118 q 483 193 484 172 q 392 48 446 109 q 273 -12 338 -12 q 187 137 212 -12 q 187 56 187 133 q 192 -115 187 -20 q 210 -281 197 -210 q 178 -308 193 -308 q 136 -289 165 -308 q 106 -258 106 -270 q 115 -14 106 -214 q 134 277 123 187 q 132 341 134 293 q 129 404 129 389 l 129 566 q 161 593 146 593 q 203 574 174 593 q 233 543 233 555 q 202 334 233 480 l 195 302 z "},"":{"ha":656,"x_min":46,"x_max":586,"o":"m 437 452 q 437 822 437 452 q 397 829 430 829 q 359 821 368 829 q 359 445 359 821 q 437 452 427 445 m 435 396 q 414 395 430 396 q 383 392 397 393 q 359 391 369 391 l 359 157 q 363 57 359 79 q 397 49 365 49 q 433 57 431 49 q 437 157 437 79 l 435 396 m 490 406 l 490 157 q 496 57 490 79 q 533 39 499 47 q 585 31 567 31 q 586 14 586 31 q 585 -5 586 -3 q 500 -1 551 -4 q 403 3 450 3 q 214 -5 377 3 q 212 14 212 0 q 217 31 213 27 q 264 39 231 31 q 300 57 297 47 q 307 157 307 79 l 307 389 q 117 471 187 389 q 46 636 46 552 q 118 813 46 742 q 278 884 190 884 q 343 882 317 884 q 410 879 369 879 l 574 886 q 578 865 579 880 q 572 846 578 849 q 526 838 553 846 q 495 819 499 830 q 491 732 491 806 l 491 460 l 557 477 q 571 469 571 477 q 555 441 570 460 q 532 419 540 422 q 490 406 506 408 z "},"":{"ha":304,"x_min":73,"x_max":231,"o":"m 96 302 q 85 314 96 302 q 73 358 73 326 q 96 414 73 391 q 152 437 119 437 q 208 414 184 437 q 231 358 231 391 q 208 302 231 326 q 152 278 184 278 q 96 302 119 278 z "},"":{"ha":313,"x_min":68,"x_max":245,"o":"m 152 -37 l 186 -37 q 229 -56 212 -37 q 245 -103 245 -76 q 209 -178 245 -149 q 118 -206 172 -206 q 72 -194 91 -206 q 70 -186 72 -193 q 68 -175 68 -180 q 74 -162 68 -168 q 87 -156 80 -156 q 110 -165 94 -156 q 137 -174 126 -174 q 180 -161 164 -174 q 195 -129 195 -148 q 182 -95 195 -107 q 153 -83 168 -83 q 118 -92 142 -83 q 109 -85 115 -92 q 104 -75 103 -79 q 126 -41 110 -66 q 148 -5 142 -16 l 176 -5 l 152 -37 z "},"":{"ha":396,"x_min":53,"x_max":351,"o":"m 167 703 q 161 759 167 746 q 141 772 155 772 q 65 750 127 772 q 53 773 53 757 q 57 784 53 781 q 171 836 121 810 q 241 873 221 861 l 260 884 l 263 884 q 279 853 269 884 q 267 743 267 796 l 267 461 q 278 397 267 422 q 309 385 281 391 q 349 378 336 378 q 351 363 351 378 q 349 343 351 347 q 290 345 331 343 q 218 347 248 347 q 142 345 187 347 q 83 343 98 343 q 77 361 77 346 q 83 377 77 377 q 127 383 98 377 q 159 396 156 389 q 167 458 167 418 l 167 703 z "},"":{"ha":526,"x_min":52,"x_max":475,"o":"m 254 719 q 172 671 199 719 q 145 557 145 623 q 180 425 145 483 q 277 368 214 368 q 355 417 328 368 q 381 530 381 467 q 348 662 381 605 q 254 719 315 719 m 266 751 q 414 692 354 751 q 475 547 475 632 q 414 398 475 461 q 266 335 353 335 q 115 396 178 335 q 52 541 52 457 q 114 690 52 628 q 266 751 176 751 z "},"":{"ha":654,"x_min":56,"x_max":620,"o":"m 376 334 q 369 312 376 323 q 85 96 198 209 q 56 113 61 104 q 133 211 61 133 q 256 335 205 289 q 133 459 205 381 q 56 557 61 537 q 85 574 61 566 q 369 358 198 461 q 376 334 376 343 m 620 334 q 613 312 620 323 q 330 96 442 209 q 300 113 305 104 q 377 211 305 133 q 500 335 449 289 q 377 459 449 381 q 300 557 305 537 q 330 574 305 566 q 613 358 442 461 q 620 334 620 343 z "},"":{"ha":948,"x_min":46,"x_max":895,"o":"m 822 552 q 834 536 834 552 q 834 198 834 536 q 882 198 834 198 q 895 174 891 190 q 890 144 898 159 l 838 144 l 838 0 q 798 -4 834 -4 q 754 3 762 -4 l 754 144 l 530 144 q 517 165 518 146 l 795 536 q 822 552 808 552 m 754 205 q 754 414 754 205 q 677 310 726 377 q 600 205 629 243 l 754 205 m 236 724 l 236 456 q 245 389 236 418 q 274 376 247 382 q 313 370 301 370 q 315 340 324 359 q 261 342 294 340 q 198 345 228 345 q 130 342 168 345 q 73 340 92 340 q 68 355 68 343 q 73 370 69 366 q 113 377 87 370 q 141 391 138 384 q 152 453 152 419 l 152 705 q 129 753 152 753 q 64 732 122 753 q 46 757 53 738 q 229 865 65 769 q 247 844 247 860 q 236 724 236 777 m 252 -18 q 242 -14 245 -16 q 239 -8 239 -11 l 237 -5 l 711 863 q 717 868 712 865 q 732 873 722 871 q 753 873 742 875 q 764 860 764 872 l 296 3 q 252 -18 282 -23 z "},"":{"ha":1017,"x_min":50,"x_max":971,"o":"m 772 532 q 888 491 844 532 q 933 387 933 450 q 871 250 933 324 q 701 73 850 227 l 864 73 q 893 79 880 73 q 915 96 906 85 q 929 115 924 106 q 939 134 935 123 q 945 146 944 145 q 952 151 947 149 q 971 142 966 151 q 949 77 966 129 q 921 -1 932 24 l 606 -1 q 594 5 600 -1 q 590 15 589 11 q 665 91 593 18 q 769 206 736 164 q 845 373 845 304 q 821 444 845 416 q 755 471 798 471 q 637 404 692 471 q 623 411 633 400 q 614 427 613 422 q 683 501 639 471 q 772 532 727 532 m 240 724 l 240 456 q 250 389 240 418 q 279 376 251 382 q 317 370 307 370 q 319 340 328 359 q 265 342 298 340 q 202 345 232 345 q 134 342 172 345 q 77 340 96 340 q 73 355 72 343 q 77 370 73 366 q 117 377 91 370 q 145 391 142 384 q 156 453 156 419 l 156 705 q 133 753 156 753 q 68 732 126 753 q 50 757 57 738 q 233 865 69 769 q 251 844 251 860 q 240 724 240 777 m 765 860 l 297 3 q 254 -18 283 -23 q 243 -14 247 -16 q 239 -8 240 -11 l 239 -5 l 712 863 q 718 868 713 865 q 733 873 723 871 q 754 873 743 875 q 765 860 765 872 z "},"":{"ha":949,"x_min":47,"x_max":897,"o":"m 823 552 q 836 536 836 552 q 836 198 836 536 q 883 198 836 198 q 896 174 892 190 q 891 144 899 159 l 840 144 l 840 0 q 799 -4 836 -4 q 755 3 764 -4 l 755 144 l 532 144 q 518 165 519 146 l 796 536 q 823 552 810 552 m 755 205 q 755 414 755 205 q 679 310 727 377 q 601 205 631 243 l 755 205 m 214 876 q 296 848 260 876 q 332 772 332 821 q 307 702 332 731 q 254 659 282 673 q 332 621 289 659 q 376 524 376 583 q 312 388 376 438 q 155 338 248 338 q 64 358 87 338 q 47 391 47 373 q 60 422 47 410 q 90 435 73 435 q 108 430 100 435 q 125 412 115 425 q 138 396 134 400 q 191 376 159 376 q 262 408 236 376 q 289 499 289 439 q 259 582 289 548 q 191 616 229 616 q 169 614 180 616 q 148 608 157 612 q 137 605 138 605 q 130 621 133 609 q 130 633 127 628 q 220 675 184 644 q 256 754 256 707 q 235 802 256 781 q 187 823 214 823 q 92 773 142 823 q 86 779 90 774 q 81 789 83 784 q 80 795 79 793 q 214 876 134 876 m 772 860 l 304 3 q 260 -18 290 -23 q 250 -14 254 -16 q 247 -8 247 -11 l 245 -5 l 719 863 q 725 868 720 865 q 740 873 730 871 q 761 873 750 875 q 772 860 772 872 z "},"":{"ha":468,"x_min":56,"x_max":400,"o":"m 368 560 q 379 549 368 560 q 391 507 391 537 q 368 456 391 477 q 315 434 346 434 q 263 456 285 434 q 241 507 241 477 q 263 561 241 538 q 315 583 285 583 q 368 560 345 583 m 346 338 q 357 214 357 292 q 348 152 357 179 q 315 102 339 125 q 283 73 292 80 q 241 46 274 66 q 179 5 198 19 q 142 -35 160 -9 q 123 -92 123 -61 q 153 -173 123 -142 q 224 -203 183 -203 q 296 -189 264 -203 q 340 -175 327 -175 q 379 -194 358 -175 q 400 -243 400 -213 q 388 -293 400 -275 q 323 -302 369 -302 q 149 -231 241 -302 q 56 -52 56 -159 q 86 66 56 19 q 193 156 117 113 q 257 201 221 172 q 298 240 293 229 q 307 335 307 255 q 328 353 315 351 q 346 338 340 347 z "},"":{"ha":850,"x_min":-16,"x_max":856,"o":"m 129 189 q 391 860 308 648 q 414 885 396 871 q 442 899 433 899 q 446 898 445 899 q 450 895 449 895 l 727 171 l 761 81 q 803 48 769 61 q 853 35 837 35 q 856 -4 864 20 q 707 3 720 3 q 549 -4 705 3 q 545 16 544 1 q 551 35 545 30 q 627 53 606 35 q 632 72 632 58 q 609 156 632 90 q 563 279 586 222 l 540 336 q 532 342 536 342 q 397 343 514 343 q 251 339 312 343 l 244 335 q 183 170 206 235 q 164 73 164 114 q 199 44 164 53 q 258 35 235 35 q 262 17 260 33 q 260 -4 263 1 q 218 -1 241 -3 q 176 1 195 0 q 129 3 156 3 q 80 1 102 3 q 33 -1 58 0 q -16 -4 7 -3 q -19 14 -19 -1 q -16 35 -19 28 q 28 42 1 35 q 65 61 56 49 q 129 189 94 98 m 395 735 l 270 404 q 273 399 270 399 q 396 396 343 396 q 510 400 448 396 l 514 407 l 395 735 m 481 1000 q 473 987 481 987 q 339 1042 448 987 q 231 1127 231 1096 q 293 1168 231 1168 q 317 1164 309 1168 q 416 1073 351 1138 q 481 1000 481 1008 z "},"":{"ha":850,"x_min":-16,"x_max":856,"o":"m 129 189 q 391 860 308 648 q 414 885 396 871 q 442 899 433 899 q 446 898 445 899 q 450 895 449 895 l 727 171 l 761 81 q 803 48 769 61 q 853 35 837 35 q 856 -4 864 20 q 707 3 720 3 q 549 -4 705 3 q 545 16 544 1 q 551 35 545 30 q 627 53 606 35 q 632 72 632 58 q 609 156 632 90 q 563 279 586 222 l 540 336 q 532 342 536 342 q 397 343 514 343 q 251 339 312 343 l 244 335 q 183 170 206 235 q 164 73 164 114 q 199 44 164 53 q 258 35 235 35 q 262 17 260 33 q 260 -4 263 1 q 218 -1 241 -3 q 176 1 195 0 q 129 3 156 3 q 80 1 102 3 q 33 -1 58 0 q -16 -4 7 -3 q -19 14 -19 -1 q -16 35 -19 28 q 28 42 1 35 q 65 61 56 49 q 129 189 94 98 m 395 735 l 270 404 q 273 399 270 399 q 396 396 343 396 q 510 400 448 396 l 514 407 l 395 735 m 365 1000 q 430 1073 365 1008 q 529 1164 495 1138 q 553 1168 537 1168 q 616 1127 616 1168 q 507 1042 616 1096 q 373 987 399 987 q 365 1000 365 987 z "},"":{"ha":850,"x_min":-16,"x_max":856,"o":"m 129 189 q 391 860 308 648 q 414 885 396 871 q 442 899 433 899 q 446 898 445 899 q 450 895 449 895 l 727 171 l 761 81 q 803 48 769 61 q 853 35 837 35 q 856 -4 864 20 q 707 3 720 3 q 549 -4 705 3 q 545 16 544 1 q 551 35 545 30 q 627 53 606 35 q 632 72 632 58 q 609 156 632 90 q 563 279 586 222 l 540 336 q 532 342 536 342 q 397 343 514 343 q 251 339 312 343 l 244 335 q 183 170 206 235 q 164 73 164 114 q 199 44 164 53 q 258 35 235 35 q 262 17 260 33 q 260 -4 263 1 q 218 -1 241 -3 q 176 1 195 0 q 129 3 156 3 q 80 1 102 3 q 33 -1 58 0 q -16 -4 7 -3 q -19 14 -19 -1 q -16 35 -19 28 q 28 42 1 35 q 65 61 56 49 q 129 189 94 98 m 395 735 l 270 404 q 273 399 270 399 q 396 396 343 396 q 510 400 448 396 l 514 407 l 395 735 m 425 1154 q 441 1165 435 1165 q 457 1154 446 1165 q 526 1082 484 1124 q 595 1009 567 1040 q 582 986 595 986 l 441 1073 q 300 986 441 1073 q 290 994 294 986 q 285 1009 285 1002 q 347 1074 302 1028 q 425 1154 392 1119 z "},"":{"ha":850,"x_min":-16,"x_max":856,"o":"m 129 189 q 391 860 308 648 q 414 885 396 871 q 442 899 433 899 q 446 898 445 899 q 450 895 449 895 l 727 171 l 761 81 q 803 48 769 61 q 853 35 837 35 q 856 -4 864 20 q 707 3 720 3 q 549 -4 705 3 q 545 16 544 1 q 551 35 545 30 q 627 53 606 35 q 632 72 632 58 q 609 156 632 90 q 563 279 586 222 l 540 336 q 532 342 536 342 q 397 343 514 343 q 251 339 312 343 l 244 335 q 183 170 206 235 q 164 73 164 114 q 199 44 164 53 q 258 35 235 35 q 262 17 260 33 q 260 -4 263 1 q 218 -1 241 -3 q 176 1 195 0 q 129 3 156 3 q 80 1 102 3 q 33 -1 58 0 q -16 -4 7 -3 q -19 14 -19 -1 q -16 35 -19 28 q 28 42 1 35 q 65 61 56 49 q 129 189 94 98 m 395 735 l 270 404 q 273 399 270 399 q 396 396 343 396 q 510 400 448 396 l 514 407 l 395 735 m 366 1100 q 457 1070 403 1100 q 540 1038 514 1038 q 583 1049 564 1038 q 614 1075 602 1061 q 628 1089 627 1089 q 636 1076 636 1089 q 617 1028 636 1053 q 524 978 575 978 q 433 1008 487 978 q 349 1040 376 1040 q 305 1029 324 1040 q 275 1003 286 1017 q 262 989 263 989 q 254 1004 254 989 q 273 1051 254 1027 q 366 1100 313 1100 z "},"":{"ha":850,"x_min":-16,"x_max":856,"o":"m 516 1007 q 506 1017 516 1007 q 496 1055 496 1027 q 516 1103 496 1084 q 564 1123 536 1123 q 612 1103 593 1123 q 632 1055 632 1084 q 612 1007 632 1027 q 564 987 593 987 q 516 1007 536 987 m 271 1007 q 261 1017 271 1007 q 251 1055 251 1027 q 271 1103 251 1084 q 319 1123 290 1123 q 367 1103 347 1123 q 387 1055 387 1084 q 367 1007 387 1027 q 319 987 347 987 q 271 1007 290 987 m 129 189 q 391 860 308 648 q 414 885 396 871 q 442 899 433 899 q 446 898 445 899 q 450 895 449 895 l 727 171 l 761 81 q 803 48 769 61 q 853 35 837 35 q 856 -4 864 20 q 707 3 720 3 q 549 -4 705 3 q 545 16 544 1 q 551 35 545 30 q 627 53 606 35 q 632 72 632 58 q 609 156 632 90 q 563 279 586 222 l 540 336 q 532 342 536 342 q 397 343 514 343 q 251 339 312 343 l 244 335 q 183 170 206 235 q 164 73 164 114 q 199 44 164 53 q 258 35 235 35 q 262 17 260 33 q 260 -4 263 1 q 218 -1 241 -3 q 176 1 195 0 q 129 3 156 3 q 80 1 102 3 q 33 -1 58 0 q -16 -4 7 -3 q -19 14 -19 -1 q -16 35 -19 28 q 28 42 1 35 q 65 61 56 49 q 129 189 94 98 m 395 735 l 270 404 q 273 399 270 399 q 396 396 343 396 q 510 400 448 396 l 514 407 l 395 735 z "},"":{"ha":850,"x_min":-16,"x_max":856,"o":"m 129 189 q 391 860 308 648 q 414 885 396 871 q 442 899 433 899 q 446 898 445 899 q 450 895 449 895 l 727 171 l 761 81 q 803 48 769 61 q 853 35 837 35 q 856 -4 864 20 q 707 3 720 3 q 549 -4 705 3 q 545 16 544 1 q 551 35 545 30 q 627 53 606 35 q 632 72 632 58 q 609 156 632 90 q 563 279 586 222 l 540 336 q 532 342 536 342 q 397 343 514 343 q 251 339 312 343 l 244 335 q 183 170 206 235 q 164 73 164 114 q 199 44 164 53 q 258 35 235 35 q 262 17 260 33 q 260 -4 263 1 q 218 -1 241 -3 q 176 1 195 0 q 129 3 156 3 q 80 1 102 3 q 33 -1 58 0 q -16 -4 7 -3 q -19 14 -19 -1 q -16 35 -19 28 q 28 42 1 35 q 65 61 56 49 q 129 189 94 98 m 395 735 l 270 404 q 273 399 270 399 q 396 396 343 396 q 510 400 448 396 l 514 407 l 395 735 m 383 1073 q 372 1062 383 1073 q 361 1020 361 1051 q 383 966 361 989 q 437 944 406 944 q 488 966 467 944 q 510 1020 510 989 q 489 1073 510 1051 q 437 1095 468 1095 q 383 1073 406 1095 m 352 934 q 334 952 352 934 q 316 1020 316 970 q 352 1105 316 1070 q 437 1141 388 1141 q 520 1105 486 1141 q 555 1020 555 1070 q 520 934 555 970 q 437 898 486 898 q 352 934 388 898 z "},"":{"ha":1217,"x_min":-22,"x_max":1177,"o":"m 642 0 q 484 -4 642 0 q 481 9 481 -1 q 481 27 480 19 q 484 35 483 35 q 535 45 500 35 q 574 66 570 56 q 583 183 583 103 l 583 346 q 463 349 534 349 q 324 342 429 349 l 317 338 q 218 175 260 241 q 164 71 164 91 q 185 47 164 56 q 222 37 206 38 q 251 35 239 35 q 255 17 254 33 q 254 -4 256 1 q 212 -1 235 -3 q 169 1 189 0 q 122 3 149 3 q 75 1 95 3 q 29 -1 54 0 q -19 -4 4 -3 q -22 14 -22 -1 q -19 35 -22 28 q 58 61 18 35 q 160 186 100 88 l 536 792 q 545 819 545 808 q 524 844 545 836 q 484 853 502 853 q 481 875 480 860 q 484 892 481 890 q 642 891 551 891 q 852 896 703 891 q 1077 901 1001 901 q 1098 797 1082 861 q 1116 716 1114 732 q 1092 709 1109 709 q 1073 719 1074 709 q 1015 821 1053 795 q 916 846 977 846 l 799 846 q 705 831 709 846 q 699 735 699 810 l 699 481 q 757 473 699 473 l 829 473 q 940 486 920 473 q 975 559 960 499 q 978 571 977 567 q 998 581 979 581 q 1021 574 1015 581 l 1021 317 q 1000 312 1016 312 q 978 323 982 312 q 962 379 968 361 q 951 402 955 397 q 940 412 947 407 q 796 423 922 423 q 699 411 699 423 l 699 153 q 707 60 699 66 q 803 46 724 46 l 868 46 q 1039 83 979 46 q 1124 220 1084 109 q 1143 228 1126 228 q 1177 220 1169 228 q 1156 163 1171 202 q 1134 101 1142 125 q 1116 46 1126 77 q 1104 -5 1107 15 q 884 -3 1034 -5 q 642 0 735 0 m 583 403 l 583 768 l 361 407 q 362 401 359 401 q 469 400 397 400 q 583 403 532 400 z "},"":{"ha":914,"x_min":66,"x_max":859,"o":"m 515 -37 l 556 -37 q 607 -60 587 -37 q 627 -115 627 -83 q 583 -203 627 -170 q 476 -236 540 -236 q 422 -222 441 -236 q 419 -212 422 -220 q 416 -199 416 -205 q 424 -184 416 -191 q 439 -178 431 -178 q 466 -188 448 -178 q 498 -198 484 -198 q 549 -182 530 -198 q 567 -145 567 -167 q 551 -105 567 -119 q 518 -91 536 -91 q 476 -102 502 -91 q 466 -94 473 -102 q 460 -81 458 -85 q 484 -44 464 -75 q 511 0 505 -14 l 545 0 l 515 -37 m 525 905 q 812 876 681 905 q 844 675 844 689 q 835 664 845 670 q 814 658 825 658 q 798 662 804 658 q 532 860 760 860 q 294 739 388 860 q 201 465 201 617 q 238 260 201 355 q 358 101 275 165 q 553 37 441 37 q 732 102 659 37 q 815 259 793 156 q 859 248 838 262 q 841 143 859 222 q 811 53 823 64 q 519 -8 703 -8 q 195 122 323 -8 q 66 437 66 252 q 197 768 66 631 q 525 905 328 905 z "},"":{"ha":796,"x_min":61,"x_max":758,"o":"m 221 891 q 432 896 282 891 q 658 901 582 901 q 679 797 663 861 q 697 716 694 732 q 673 709 690 709 q 654 719 655 709 q 595 821 633 795 q 496 846 557 846 l 380 846 q 286 831 290 846 q 279 735 279 810 l 279 481 q 338 473 279 473 l 410 473 q 521 486 500 473 q 556 559 541 499 q 559 571 557 567 q 579 581 560 581 q 602 574 595 581 l 602 317 q 581 312 597 312 q 559 323 563 312 q 543 379 549 361 q 532 402 536 397 q 521 412 528 407 q 377 423 503 423 q 279 411 279 423 l 279 153 q 288 60 279 66 q 384 46 305 46 l 449 46 q 620 83 560 46 q 705 220 665 109 q 724 228 708 228 q 758 220 750 228 q 737 163 751 202 q 715 101 723 125 q 697 46 707 77 q 685 -5 688 15 q 467 -3 616 -5 q 222 0 317 0 q 138 -2 190 0 q 61 -4 87 -4 q 56 16 56 1 q 61 35 57 30 q 117 41 81 35 q 155 57 152 47 q 161 157 161 79 l 161 736 q 155 837 161 815 q 117 852 152 846 q 61 859 81 859 q 56 878 57 864 q 61 898 56 892 q 221 891 201 891 m 465 1000 q 457 987 465 987 q 323 1042 431 987 q 214 1127 214 1096 q 277 1168 214 1168 q 301 1164 293 1168 q 400 1073 335 1138 q 465 1000 465 1008 z "},"":{"ha":796,"x_min":61,"x_max":758,"o":"m 221 891 q 432 896 282 891 q 658 901 582 901 q 679 797 663 861 q 697 716 694 732 q 673 709 690 709 q 654 719 655 709 q 595 821 633 795 q 496 846 557 846 l 380 846 q 286 831 290 846 q 279 735 279 810 l 279 481 q 338 473 279 473 l 410 473 q 521 486 500 473 q 556 559 541 499 q 559 571 557 567 q 579 581 560 581 q 602 574 595 581 l 602 317 q 581 312 597 312 q 559 323 563 312 q 543 379 549 361 q 532 402 536 397 q 521 412 528 407 q 377 423 503 423 q 279 411 279 423 l 279 153 q 288 60 279 66 q 384 46 305 46 l 449 46 q 620 83 560 46 q 705 220 665 109 q 724 228 708 228 q 758 220 750 228 q 737 163 751 202 q 715 101 723 125 q 697 46 707 77 q 685 -5 688 15 q 467 -3 616 -5 q 222 0 317 0 q 138 -2 190 0 q 61 -4 87 -4 q 56 16 56 1 q 61 35 57 30 q 117 41 81 35 q 155 57 152 47 q 161 157 161 79 l 161 736 q 155 837 161 815 q 117 852 152 846 q 61 859 81 859 q 56 878 57 864 q 61 898 56 892 q 221 891 201 891 m 347 1000 q 412 1073 347 1008 q 511 1164 477 1138 q 536 1168 519 1168 q 598 1127 598 1168 q 490 1042 598 1096 q 355 987 381 987 q 347 1000 347 987 z "},"":{"ha":796,"x_min":61,"x_max":758,"o":"m 221 891 q 432 896 282 891 q 658 901 582 901 q 679 797 663 861 q 697 716 694 732 q 673 709 690 709 q 654 719 655 709 q 595 821 633 795 q 496 846 557 846 l 380 846 q 286 831 290 846 q 279 735 279 810 l 279 481 q 338 473 279 473 l 410 473 q 521 486 500 473 q 556 559 541 499 q 559 571 557 567 q 579 581 560 581 q 602 574 595 581 l 602 317 q 581 312 597 312 q 559 323 563 312 q 543 379 549 361 q 532 402 536 397 q 521 412 528 407 q 377 423 503 423 q 279 411 279 423 l 279 153 q 288 60 279 66 q 384 46 305 46 l 449 46 q 620 83 560 46 q 705 220 665 109 q 724 228 708 228 q 758 220 750 228 q 737 163 751 202 q 715 101 723 125 q 697 46 707 77 q 685 -5 688 15 q 467 -3 616 -5 q 222 0 317 0 q 138 -2 190 0 q 61 -4 87 -4 q 56 16 56 1 q 61 35 57 30 q 117 41 81 35 q 155 57 152 47 q 161 157 161 79 l 161 736 q 155 837 161 815 q 117 852 152 846 q 61 859 81 859 q 56 878 57 864 q 61 898 56 892 q 221 891 201 891 m 396 1154 q 412 1165 407 1165 q 429 1154 418 1165 q 497 1082 456 1124 q 567 1009 538 1040 q 553 986 567 986 l 412 1073 q 271 986 412 1073 q 261 994 266 986 q 256 1009 256 1002 q 319 1074 274 1028 q 396 1154 363 1119 z "},"":{"ha":796,"x_min":61,"x_max":758,"o":"m 477 1007 q 467 1017 477 1007 q 457 1055 457 1027 q 477 1103 457 1084 q 525 1123 496 1123 q 573 1103 553 1123 q 593 1055 593 1084 q 573 1007 593 1027 q 525 987 553 987 q 477 1007 496 987 m 231 1007 q 221 1017 231 1007 q 212 1055 212 1027 q 231 1103 212 1084 q 279 1123 251 1123 q 328 1103 308 1123 q 347 1055 347 1084 q 328 1007 347 1027 q 279 987 308 987 q 231 1007 251 987 m 221 891 q 432 896 282 891 q 658 901 582 901 q 679 797 663 861 q 697 716 694 732 q 673 709 690 709 q 654 719 655 709 q 595 821 633 795 q 496 846 557 846 l 380 846 q 286 831 290 846 q 279 735 279 810 l 279 481 q 338 473 279 473 l 410 473 q 521 486 500 473 q 556 559 541 499 q 559 571 557 567 q 579 581 560 581 q 602 574 595 581 l 602 317 q 581 312 597 312 q 559 323 563 312 q 543 379 549 361 q 532 402 536 397 q 521 412 528 407 q 377 423 503 423 q 279 411 279 423 l 279 153 q 288 60 279 66 q 384 46 305 46 l 449 46 q 620 83 560 46 q 705 220 665 109 q 724 228 708 228 q 758 220 750 228 q 737 163 751 202 q 715 101 723 125 q 697 46 707 77 q 685 -5 688 15 q 467 -3 616 -5 q 222 0 317 0 q 138 -2 190 0 q 61 -4 87 -4 q 56 16 56 1 q 61 35 57 30 q 117 41 81 35 q 155 57 152 47 q 161 157 161 79 l 161 736 q 155 837 161 815 q 117 852 152 846 q 61 859 81 859 q 56 878 57 864 q 61 898 56 892 q 221 891 201 891 z "},"":{"ha":439,"x_min":50,"x_max":380,"o":"m 61 898 q 221 891 201 891 q 380 898 241 891 q 385 878 385 892 q 380 859 384 864 q 324 852 359 859 q 286 837 289 846 q 279 736 279 815 l 279 157 q 286 57 279 79 q 324 41 289 47 q 380 35 359 35 q 385 16 384 30 q 380 -4 385 1 q 221 3 241 3 q 61 -4 201 3 q 56 16 56 1 q 61 35 57 30 q 117 41 81 35 q 155 57 152 47 q 161 157 161 79 l 161 736 q 155 837 161 815 q 117 852 152 846 q 61 859 81 859 q 56 878 57 864 q 61 898 56 892 m 301 1000 q 293 987 301 987 q 159 1042 267 987 q 50 1127 50 1096 q 113 1168 50 1168 q 137 1164 129 1168 q 236 1073 171 1138 q 301 1000 301 1008 z "},"":{"ha":439,"x_min":61,"x_max":407,"o":"m 61 898 q 221 891 201 891 q 380 898 241 891 q 385 878 385 892 q 380 859 384 864 q 324 852 359 859 q 286 837 289 846 q 279 736 279 815 l 279 157 q 286 57 279 79 q 324 41 289 47 q 380 35 359 35 q 385 16 384 30 q 380 -4 385 1 q 221 3 241 3 q 61 -4 201 3 q 56 16 56 1 q 61 35 57 30 q 117 41 81 35 q 155 57 152 47 q 161 157 161 79 l 161 736 q 155 837 161 815 q 117 852 152 846 q 61 859 81 859 q 56 878 57 864 q 61 898 56 892 m 156 1000 q 221 1073 156 1008 q 320 1164 286 1138 q 345 1168 328 1168 q 407 1127 407 1168 q 298 1042 407 1096 q 164 987 190 987 q 156 1000 156 987 z "},"":{"ha":439,"x_min":61,"x_max":387,"o":"m 61 898 q 221 891 201 891 q 380 898 241 891 q 385 878 385 892 q 380 859 384 864 q 324 852 359 859 q 286 837 289 846 q 279 736 279 815 l 279 157 q 286 57 279 79 q 324 41 289 47 q 380 35 359 35 q 385 16 384 30 q 380 -4 385 1 q 221 3 241 3 q 61 -4 201 3 q 56 16 56 1 q 61 35 57 30 q 117 41 81 35 q 155 57 152 47 q 161 157 161 79 l 161 736 q 155 837 161 815 q 117 852 152 846 q 61 859 81 859 q 56 878 57 864 q 61 898 56 892 m 216 1123 q 232 1134 227 1134 q 248 1123 237 1134 q 317 1051 275 1093 q 387 978 358 1009 q 373 955 387 955 l 232 1042 q 91 955 232 1042 q 81 963 85 955 q 76 978 76 971 q 138 1042 94 997 q 216 1123 183 1088 z "},"":{"ha":439,"x_min":38,"x_max":419,"o":"m 303 1007 q 293 1017 303 1007 q 283 1055 283 1027 q 303 1103 283 1084 q 351 1123 323 1123 q 399 1103 380 1123 q 419 1055 419 1084 q 399 1007 419 1027 q 351 987 380 987 q 303 1007 323 987 m 58 1007 q 48 1017 58 1007 q 38 1055 38 1027 q 58 1103 38 1084 q 106 1123 77 1123 q 154 1103 134 1123 q 174 1055 174 1084 q 154 1007 174 1027 q 106 987 134 987 q 58 1007 77 987 m 62 898 q 222 891 202 891 q 381 898 243 891 q 386 878 387 892 q 381 859 385 864 q 326 852 361 859 q 288 837 290 846 q 281 736 281 815 l 281 157 q 288 57 281 79 q 326 41 290 47 q 381 35 361 35 q 386 16 385 30 q 381 -4 387 1 q 222 3 243 3 q 62 -4 202 3 q 58 16 57 1 q 62 35 58 30 q 118 41 83 35 q 156 57 153 47 q 163 157 163 79 l 163 736 q 156 837 163 815 q 118 852 153 846 q 62 859 83 859 q 58 878 58 864 q 62 898 57 892 z "},"":{"ha":963,"x_min":56,"x_max":894,"o":"m 495 422 q 66 422 495 422 q 62 432 64 422 q 62 454 61 442 q 68 472 64 467 l 495 472 q 499 452 499 472 q 495 422 499 431 m 281 734 l 281 156 q 289 58 281 68 q 400 39 302 39 q 657 138 555 39 q 760 425 760 236 q 728 620 760 536 q 643 753 697 704 q 523 825 589 802 q 381 849 457 849 q 288 834 292 849 q 281 734 281 812 m 418 892 q 765 769 636 892 q 894 453 894 646 q 869 283 894 361 q 791 139 845 206 q 638 34 738 72 q 400 -4 538 -4 l 61 -4 q 56 16 56 1 q 61 35 57 30 q 117 41 81 35 q 155 57 152 47 q 161 157 161 79 l 161 736 q 155 837 161 815 q 117 852 152 846 q 61 859 81 859 q 56 878 57 864 q 61 898 56 892 q 221 891 201 891 q 317 892 247 891 q 418 892 387 892 z "},"":{"ha":1053,"x_min":56,"x_max":1010,"o":"m 194 895 q 297 898 259 895 q 541 589 331 845 q 829 225 751 332 l 829 304 l 829 739 q 815 833 829 811 q 771 851 810 842 q 712 860 732 860 q 709 899 701 875 q 865 892 845 892 q 914 894 892 892 q 962 897 936 895 q 1010 899 987 898 q 1010 860 1020 882 q 951 852 991 860 q 905 833 911 844 q 891 741 891 810 l 891 189 q 894 1 891 72 q 876 -7 892 -7 q 829 24 853 -7 l 237 772 l 237 156 q 251 62 237 84 q 294 44 256 53 q 353 35 332 35 q 355 -4 363 20 q 201 3 220 3 q 152 1 174 3 q 104 -1 130 0 q 56 -4 79 -3 q 56 35 46 14 q 115 43 75 35 q 161 62 155 52 q 175 155 175 85 l 175 743 q 161 836 175 812 q 115 854 155 846 q 56 863 75 863 q 56 902 46 884 q 123 898 77 901 q 194 895 168 895 m 425 1100 q 515 1070 461 1100 q 598 1038 572 1038 q 642 1049 623 1038 q 673 1075 661 1061 q 686 1089 685 1089 q 694 1076 694 1089 q 675 1028 694 1053 q 582 978 633 978 q 491 1008 545 978 q 407 1040 434 1040 q 363 1029 382 1040 q 333 1003 345 1017 q 320 989 321 989 q 312 1004 312 989 q 331 1051 312 1027 q 425 1100 372 1100 z "},"":{"ha":1015,"x_min":66,"x_max":948,"o":"m 486 859 q 355 825 412 859 q 266 734 298 791 q 217 612 233 678 q 201 475 201 545 q 237 267 201 366 q 351 100 274 168 q 528 33 427 33 q 658 66 601 33 q 747 157 715 100 q 797 281 780 214 q 814 419 814 347 q 777 626 814 528 q 663 791 739 724 q 486 859 586 859 m 506 905 q 819 774 689 905 q 948 445 948 644 q 817 121 948 256 q 506 -14 686 -14 q 195 117 324 -14 q 66 445 66 247 q 197 770 66 635 q 506 905 327 905 m 567 1000 q 559 987 567 987 q 425 1042 533 987 q 316 1127 316 1096 q 378 1168 316 1168 q 403 1164 395 1168 q 502 1073 437 1138 q 567 1000 567 1008 z "},"":{"ha":1015,"x_min":66,"x_max":948,"o":"m 486 859 q 355 825 412 859 q 266 734 298 791 q 217 612 233 678 q 201 475 201 545 q 237 267 201 366 q 351 100 274 168 q 528 33 427 33 q 658 66 601 33 q 747 157 715 100 q 797 281 780 214 q 814 419 814 347 q 777 626 814 528 q 663 791 739 724 q 486 859 586 859 m 506 905 q 819 774 689 905 q 948 445 948 644 q 817 121 948 256 q 506 -14 686 -14 q 195 117 324 -14 q 66 445 66 247 q 197 770 66 635 q 506 905 327 905 m 423 1000 q 488 1073 423 1008 q 587 1164 553 1138 q 612 1168 595 1168 q 674 1127 674 1168 q 566 1042 674 1096 q 431 987 457 987 q 423 1000 423 987 z "},"":{"ha":1015,"x_min":66,"x_max":948,"o":"m 486 859 q 355 825 412 859 q 266 734 298 791 q 217 612 233 678 q 201 475 201 545 q 237 267 201 366 q 351 100 274 168 q 528 33 427 33 q 658 66 601 33 q 747 157 715 100 q 797 281 780 214 q 814 419 814 347 q 777 626 814 528 q 663 791 739 724 q 486 859 586 859 m 506 905 q 819 774 689 905 q 948 445 948 644 q 817 121 948 256 q 506 -14 686 -14 q 195 117 324 -14 q 66 445 66 247 q 197 770 66 635 q 506 905 327 905 m 494 1154 q 510 1165 505 1165 q 526 1154 515 1165 q 595 1082 553 1124 q 665 1009 636 1040 q 651 986 665 986 l 510 1073 q 369 986 510 1073 q 359 994 363 986 q 354 1009 354 1002 q 416 1074 372 1028 q 494 1154 461 1119 z "},"":{"ha":1015,"x_min":66,"x_max":948,"o":"m 486 859 q 355 825 412 859 q 266 734 298 791 q 217 612 233 678 q 201 475 201 545 q 237 267 201 366 q 351 100 274 168 q 528 33 427 33 q 658 66 601 33 q 747 157 715 100 q 797 281 780 214 q 814 419 814 347 q 777 626 814 528 q 663 791 739 724 q 486 859 586 859 m 506 905 q 819 774 689 905 q 948 445 948 644 q 817 121 948 256 q 506 -14 686 -14 q 195 117 324 -14 q 66 445 66 247 q 197 770 66 635 q 506 905 327 905 m 439 1099 q 530 1069 476 1099 q 613 1036 587 1036 q 656 1048 637 1036 q 688 1074 675 1059 q 701 1088 700 1088 q 709 1074 709 1088 q 690 1027 709 1051 q 597 977 648 977 q 506 1006 560 977 q 422 1039 449 1039 q 378 1027 397 1039 q 348 1002 359 1016 q 335 987 336 987 q 327 1002 327 987 q 346 1050 327 1025 q 439 1099 387 1099 z "},"":{"ha":1015,"x_min":66,"x_max":948,"o":"m 583 1007 q 573 1017 583 1007 q 563 1055 563 1027 q 583 1103 563 1084 q 631 1123 602 1123 q 679 1103 659 1123 q 699 1055 699 1084 q 679 1007 699 1027 q 631 987 659 987 q 583 1007 602 987 m 337 1007 q 327 1017 337 1007 q 317 1055 317 1027 q 337 1103 317 1084 q 385 1123 357 1123 q 433 1103 414 1123 q 453 1055 453 1084 q 433 1007 453 1027 q 385 987 414 987 q 337 1007 357 987 m 486 859 q 355 825 412 859 q 266 734 298 791 q 217 612 233 678 q 201 475 201 545 q 237 267 201 366 q 351 100 274 168 q 528 33 427 33 q 658 66 601 33 q 747 157 715 100 q 797 281 780 214 q 814 419 814 347 q 777 626 814 528 q 663 791 739 724 q 486 859 586 859 m 506 905 q 819 774 689 905 q 948 445 948 644 q 817 121 948 256 q 506 -14 686 -14 q 195 117 324 -14 q 66 445 66 247 q 197 770 66 635 q 506 905 327 905 z "},"":{"ha":629,"x_min":75,"x_max":553,"o":"m 270 335 l 75 530 q 86 564 75 545 q 107 582 98 582 q 117 579 114 582 q 319 384 316 387 l 515 579 q 524 582 518 582 q 543 561 532 582 q 553 528 553 540 q 363 339 368 343 l 553 142 q 544 107 553 126 q 524 88 534 88 q 514 91 517 88 l 315 290 l 113 90 q 104 87 107 87 q 85 109 96 87 q 75 142 75 130 q 270 335 264 330 z "},"":{"ha":1015,"x_min":66,"x_max":948,"o":"m 766 905 q 793 891 777 902 q 806 875 810 880 l 239 -18 q 211 -3 227 -14 q 199 14 195 8 l 766 905 m 486 859 q 355 825 412 859 q 266 734 298 791 q 217 612 233 678 q 201 475 201 545 q 237 267 201 366 q 351 100 274 168 q 528 33 427 33 q 658 66 601 33 q 747 157 715 100 q 797 281 780 214 q 814 419 814 347 q 777 626 814 528 q 663 791 739 724 q 486 859 586 859 m 506 905 q 819 774 689 905 q 948 445 948 644 q 817 121 948 256 q 506 -14 686 -14 q 195 117 324 -14 q 66 445 66 247 q 197 770 66 635 q 506 905 327 905 z "},"":{"ha":981,"x_min":39,"x_max":955,"o":"m 39 898 q 199 891 179 891 q 358 898 220 891 q 363 878 363 892 q 358 859 362 864 q 302 852 338 859 q 264 837 267 846 q 258 736 258 815 l 258 401 q 324 152 258 235 q 510 73 387 73 q 773 372 768 73 l 773 739 q 760 833 773 811 q 718 851 754 842 q 662 860 681 860 q 659 899 651 875 q 810 892 795 892 q 859 894 837 892 q 906 897 880 895 q 955 899 932 898 q 955 860 966 882 q 896 852 936 860 q 849 833 856 844 q 836 741 836 810 l 836 374 q 742 87 836 179 q 481 -5 648 -5 q 240 84 334 -5 q 140 340 140 180 l 140 736 q 133 837 140 815 q 95 852 130 846 q 39 859 60 859 q 35 878 35 864 q 39 898 34 892 m 570 1000 q 562 987 570 987 q 427 1042 536 987 q 319 1127 319 1096 q 381 1168 319 1168 q 406 1164 397 1168 q 505 1073 439 1138 q 570 1000 570 1008 z "},"":{"ha":981,"x_min":39,"x_max":955,"o":"m 39 898 q 199 891 179 891 q 358 898 220 891 q 363 878 363 892 q 358 859 362 864 q 302 852 338 859 q 264 837 267 846 q 258 736 258 815 l 258 401 q 324 152 258 235 q 510 73 387 73 q 773 372 768 73 l 773 739 q 760 833 773 811 q 718 851 754 842 q 662 860 681 860 q 659 899 651 875 q 810 892 795 892 q 859 894 837 892 q 906 897 880 895 q 955 899 932 898 q 955 860 966 882 q 896 852 936 860 q 849 833 856 844 q 836 741 836 810 l 836 374 q 742 87 836 179 q 481 -5 648 -5 q 240 84 334 -5 q 140 340 140 180 l 140 736 q 133 837 140 815 q 95 852 130 846 q 39 859 60 859 q 35 878 35 864 q 39 898 34 892 m 453 1000 q 518 1073 453 1008 q 617 1164 583 1138 q 642 1168 625 1168 q 704 1127 704 1168 q 595 1042 704 1096 q 461 987 487 987 q 453 1000 453 987 z "},"":{"ha":981,"x_min":39,"x_max":955,"o":"m 39 898 q 199 891 179 891 q 358 898 220 891 q 363 878 363 892 q 358 859 362 864 q 302 852 338 859 q 264 837 267 846 q 258 736 258 815 l 258 401 q 324 152 258 235 q 510 73 387 73 q 773 372 768 73 l 773 739 q 760 833 773 811 q 718 851 754 842 q 662 860 681 860 q 659 899 651 875 q 810 892 795 892 q 859 894 837 892 q 906 897 880 895 q 955 899 932 898 q 955 860 966 882 q 896 852 936 860 q 849 833 856 844 q 836 741 836 810 l 836 374 q 742 87 836 179 q 481 -5 648 -5 q 240 84 334 -5 q 140 340 140 180 l 140 736 q 133 837 140 815 q 95 852 130 846 q 39 859 60 859 q 35 878 35 864 q 39 898 34 892 m 480 1154 q 496 1165 491 1165 q 513 1154 502 1165 q 581 1082 540 1124 q 651 1009 623 1040 q 637 986 651 986 l 496 1073 q 355 986 496 1073 q 345 994 350 986 q 340 1009 340 1002 q 403 1074 358 1028 q 480 1154 448 1119 z "},"":{"ha":981,"x_min":39,"x_max":955,"o":"m 569 1007 q 559 1017 569 1007 q 549 1055 549 1027 q 569 1103 549 1084 q 617 1123 589 1123 q 665 1103 646 1123 q 685 1055 685 1084 q 665 1007 685 1027 q 617 987 646 987 q 569 1007 589 987 m 323 1007 q 314 1017 323 1007 q 304 1055 304 1027 q 323 1103 304 1084 q 372 1123 343 1123 q 420 1103 400 1123 q 439 1055 439 1084 q 420 1007 439 1027 q 372 987 400 987 q 323 1007 343 987 m 39 898 q 199 891 179 891 q 358 898 220 891 q 363 878 363 892 q 358 859 362 864 q 302 852 338 859 q 264 837 267 846 q 258 736 258 815 l 258 401 q 324 152 258 235 q 510 73 387 73 q 773 372 768 73 l 773 739 q 760 833 773 811 q 718 851 754 842 q 662 860 681 860 q 659 899 651 875 q 810 892 795 892 q 859 894 837 892 q 906 897 880 895 q 955 899 932 898 q 955 860 966 882 q 896 852 936 860 q 849 833 856 844 q 836 741 836 810 l 836 374 q 742 87 836 179 q 481 -5 648 -5 q 240 84 334 -5 q 140 340 140 180 l 140 736 q 133 837 140 815 q 95 852 130 846 q 39 859 60 859 q 35 878 35 864 q 39 898 34 892 z "},"":{"ha":811,"x_min":-14,"x_max":818,"o":"m 354 157 l 354 362 q 345 400 354 381 q 245 578 302 476 q 152 743 187 680 q 62 837 117 806 q -14 859 26 859 q -19 876 -19 859 q -14 898 -19 892 q 156 891 152 891 q 330 898 194 891 q 332 876 332 892 q 327 859 331 859 q 274 848 302 859 q 245 815 245 838 q 262 774 245 800 l 450 449 q 627 800 570 663 q 631 821 631 812 q 623 836 631 829 q 593 850 616 844 q 536 857 571 857 q 532 876 533 857 q 533 897 530 894 q 669 890 659 890 q 818 897 682 890 q 819 873 821 890 q 815 857 818 857 q 694 803 726 857 q 480 408 654 730 q 473 366 473 396 l 472 157 q 479 57 472 79 q 517 41 481 47 q 572 35 552 35 q 577 16 576 30 q 572 -4 578 1 q 414 3 434 3 q 254 -4 393 3 q 249 16 248 1 q 254 35 250 30 q 309 41 274 35 q 347 57 345 47 q 354 157 354 79 m 393 1000 q 458 1073 393 1008 q 557 1164 524 1138 q 582 1168 566 1168 q 644 1127 644 1168 q 536 1042 644 1096 q 401 987 427 987 q 393 1000 393 987 z "},"":{"ha":743,"x_min":56,"x_max":703,"o":"m 61 898 q 221 891 201 891 q 380 898 241 891 q 385 878 385 892 q 380 859 384 864 q 324 852 359 859 q 286 837 289 846 q 279 736 279 815 l 279 651 q 441 690 335 690 q 618 623 534 690 q 703 446 703 556 q 621 248 703 323 q 404 174 538 174 q 346 184 368 174 q 327 214 327 197 q 334 221 327 222 q 385 212 369 212 q 524 268 469 212 q 578 423 578 324 q 526 580 578 522 q 391 637 475 637 q 336 628 369 637 q 290 597 304 618 q 279 488 279 579 l 279 157 q 286 57 279 79 q 324 41 289 47 q 380 35 359 35 q 385 16 384 30 q 380 -4 385 1 q 221 3 241 3 q 61 -4 201 3 q 56 16 56 1 q 61 35 57 30 q 117 41 81 35 q 155 57 152 47 q 161 157 161 79 l 161 736 q 155 837 161 815 q 117 852 152 846 q 61 859 81 859 q 56 878 57 864 q 61 898 56 892 z "},"":{"ha":728,"x_min":33,"x_max":693,"o":"m 362 940 q 534 895 467 940 q 601 761 601 850 q 521 606 601 678 q 484 574 507 594 q 448 544 460 555 q 425 517 435 533 q 414 487 414 502 q 436 436 414 461 q 481 396 458 411 q 547 359 505 381 q 597 330 578 343 q 642 296 617 317 q 680 246 667 274 q 693 186 693 218 q 642 45 693 104 q 514 -14 590 -14 q 412 5 457 -14 q 354 45 366 24 q 355 54 354 47 q 355 62 355 60 q 400 123 359 123 q 418 117 410 123 q 431 105 426 111 q 444 85 435 99 q 456 66 452 72 q 517 28 481 28 q 577 58 553 28 q 601 138 601 88 q 572 205 601 179 q 487 262 544 232 q 443 286 457 278 q 404 312 429 294 q 367 346 378 330 q 345 387 355 362 q 335 441 335 412 q 345 481 335 461 q 367 513 355 500 q 401 548 378 526 q 435 583 423 570 q 499 745 499 655 q 465 854 499 812 q 366 895 430 895 q 295 873 323 895 q 255 810 267 850 q 239 732 243 769 q 235 644 235 694 l 235 157 q 241 57 235 79 q 278 41 244 47 q 332 35 312 35 q 337 16 336 30 q 332 -4 338 1 q 182 3 193 3 q 38 -4 176 3 q 33 16 33 1 q 38 35 34 30 q 89 41 57 35 q 123 57 121 47 q 130 157 130 79 l 130 530 l 52 530 q 45 543 45 530 q 80 586 45 551 l 130 586 l 130 594 q 205 829 130 718 q 362 940 281 940 z "},"":{"ha":585,"x_min":50,"x_max":567,"o":"m 254 62 q 329 84 286 62 q 372 118 372 106 l 372 302 q 245 263 267 271 q 163 157 163 231 q 189 91 163 119 q 254 62 216 62 m 327 591 q 430 537 385 591 q 475 406 475 483 l 475 126 q 517 62 475 62 q 562 80 534 62 q 567 69 567 80 q 560 43 567 54 q 511 10 544 28 q 458 -8 477 -8 q 406 19 430 -8 q 376 80 382 46 q 298 25 357 61 q 209 -11 240 -11 q 96 34 141 -11 q 50 145 50 79 q 71 214 50 184 q 118 254 92 244 q 355 339 349 336 q 369 349 366 343 q 372 373 372 355 l 372 410 q 337 498 372 457 q 255 540 302 540 q 205 519 221 540 q 180 456 189 498 q 117 391 170 391 q 83 408 96 391 q 71 448 71 426 q 80 480 71 468 q 191 555 122 519 q 327 591 260 591 m 174 887 q 210 876 199 887 q 292 764 243 836 q 342 688 342 693 q 330 670 342 670 q 220 745 315 670 q 125 848 125 819 q 174 887 125 887 z "},"":{"ha":585,"x_min":50,"x_max":567,"o":"m 254 62 q 329 84 286 62 q 372 118 372 106 l 372 302 q 245 263 267 271 q 163 157 163 231 q 189 91 163 119 q 254 62 216 62 m 327 591 q 430 537 385 591 q 475 406 475 483 l 475 126 q 517 62 475 62 q 562 80 534 62 q 567 69 567 80 q 560 43 567 54 q 511 10 544 28 q 458 -8 477 -8 q 406 19 430 -8 q 376 80 382 46 q 298 25 357 61 q 209 -11 240 -11 q 96 34 141 -11 q 50 145 50 79 q 71 214 50 184 q 118 254 92 244 q 355 339 349 336 q 369 349 366 343 q 372 373 372 355 l 372 410 q 337 498 372 457 q 255 540 302 540 q 205 519 221 540 q 180 456 189 498 q 117 391 170 391 q 83 408 96 391 q 71 448 71 426 q 80 480 71 468 q 191 555 122 519 q 327 591 260 591 m 372 887 q 420 848 420 887 q 326 745 420 819 q 216 670 231 670 q 203 688 203 670 q 253 764 203 693 q 335 876 302 836 q 372 887 346 887 z "},"":{"ha":585,"x_min":50,"x_max":567,"o":"m 254 62 q 329 84 286 62 q 372 118 372 106 l 372 302 q 245 263 267 271 q 163 157 163 231 q 189 91 163 119 q 254 62 216 62 m 327 591 q 430 537 385 591 q 475 406 475 483 l 475 126 q 517 62 475 62 q 562 80 534 62 q 567 69 567 80 q 560 43 567 54 q 511 10 544 28 q 458 -8 477 -8 q 406 19 430 -8 q 376 80 382 46 q 298 25 357 61 q 209 -11 240 -11 q 96 34 141 -11 q 50 145 50 79 q 71 214 50 184 q 118 254 92 244 q 355 339 349 336 q 369 349 366 343 q 372 373 372 355 l 372 410 q 337 498 372 457 q 255 540 302 540 q 205 519 221 540 q 180 456 189 498 q 117 391 170 391 q 83 408 96 391 q 71 448 71 426 q 80 480 71 468 q 191 555 122 519 q 327 591 260 591 m 285 864 q 300 876 292 876 q 315 864 308 876 q 442 685 354 800 q 437 673 442 678 q 427 667 433 667 l 300 770 q 172 667 220 705 q 162 673 167 667 q 157 685 157 678 q 285 864 245 800 z "},"":{"ha":585,"x_min":50,"x_max":567,"o":"m 254 62 q 329 84 286 62 q 372 118 372 106 l 372 302 q 245 263 267 271 q 163 157 163 231 q 189 91 163 119 q 254 62 216 62 m 327 591 q 430 537 385 591 q 475 406 475 483 l 475 126 q 517 62 475 62 q 562 80 534 62 q 567 69 567 80 q 560 43 567 54 q 511 10 544 28 q 458 -8 477 -8 q 406 19 430 -8 q 376 80 382 46 q 298 25 357 61 q 209 -11 240 -11 q 96 34 141 -11 q 50 145 50 79 q 71 214 50 184 q 118 254 92 244 q 355 339 349 336 q 369 349 366 343 q 372 373 372 355 l 372 410 q 337 498 372 457 q 255 540 302 540 q 205 519 221 540 q 180 456 189 498 q 117 391 170 391 q 83 408 96 391 q 71 448 71 426 q 80 480 71 468 q 191 555 122 519 q 327 591 260 591 m 214 798 q 297 766 245 798 q 376 734 349 734 q 414 745 397 734 q 440 771 430 757 q 452 787 450 785 q 460 774 460 787 q 441 723 460 751 q 357 673 404 673 q 275 703 324 673 q 195 736 221 736 q 159 725 174 736 q 136 699 144 713 q 125 684 127 685 q 114 699 114 684 q 130 749 114 724 q 214 798 167 798 z "},"":{"ha":585,"x_min":50,"x_max":567,"o":"m 254 62 q 329 84 286 62 q 372 118 372 106 l 372 302 q 245 263 267 271 q 163 157 163 231 q 189 91 163 119 q 254 62 216 62 m 327 591 q 430 537 385 591 q 475 406 475 483 l 475 126 q 517 62 475 62 q 562 80 534 62 q 567 69 567 80 q 560 43 567 54 q 511 10 544 28 q 458 -8 477 -8 q 406 19 430 -8 q 376 80 382 46 q 298 25 357 61 q 209 -11 240 -11 q 96 34 141 -11 q 50 145 50 79 q 71 214 50 184 q 118 254 92 244 q 355 339 349 336 q 369 349 366 343 q 372 373 372 355 l 372 410 q 337 498 372 457 q 255 540 302 540 q 205 519 221 540 q 180 456 189 498 q 117 391 170 391 q 83 408 96 391 q 71 448 71 426 q 80 480 71 468 q 191 555 122 519 q 327 591 260 591 m 355 785 q 365 794 355 785 q 400 803 374 803 q 444 784 426 803 q 463 739 463 765 q 444 696 463 713 q 399 678 425 678 q 354 696 373 678 q 335 741 335 715 q 355 785 335 766 m 106 785 q 116 794 106 785 q 152 803 126 803 q 196 784 178 803 q 214 739 214 765 q 195 696 214 713 q 151 678 176 678 q 106 696 125 678 q 87 741 87 715 q 106 785 87 766 z "},"":{"ha":585,"x_min":50,"x_max":567,"o":"m 254 62 q 329 84 286 62 q 372 118 372 106 l 372 302 q 245 263 267 271 q 163 157 163 231 q 189 91 163 119 q 254 62 216 62 m 327 591 q 430 537 385 591 q 475 406 475 483 l 475 126 q 517 62 475 62 q 562 80 534 62 q 567 69 567 80 q 560 43 567 54 q 511 10 544 28 q 458 -8 477 -8 q 406 19 430 -8 q 376 80 382 46 q 298 25 357 61 q 209 -11 240 -11 q 96 34 141 -11 q 50 145 50 79 q 71 214 50 184 q 118 254 92 244 q 355 339 349 336 q 369 349 366 343 q 372 373 372 355 l 372 410 q 337 498 372 457 q 255 540 302 540 q 205 519 221 540 q 180 456 189 498 q 117 391 170 391 q 83 408 96 391 q 71 448 71 426 q 80 480 71 468 q 191 555 122 519 q 327 591 260 591 m 251 849 q 240 838 251 849 q 229 796 229 827 q 251 743 229 765 q 304 720 273 720 q 355 743 334 720 q 377 796 377 765 q 356 849 377 827 q 304 871 335 871 q 251 849 273 871 m 220 710 q 202 728 220 710 q 184 796 184 746 q 220 882 184 846 q 304 917 255 917 q 387 882 353 917 q 422 796 422 846 q 387 710 422 746 q 304 674 353 674 q 220 710 255 674 z "},"":{"ha":886,"x_min":50,"x_max":834,"o":"m 245 263 q 163 157 163 233 q 189 91 163 119 q 254 62 216 62 q 336 87 293 62 q 378 141 378 113 q 354 262 362 176 q 351 298 351 292 q 295 279 334 292 q 245 263 256 267 m 601 545 q 515 506 551 545 q 468 427 480 467 q 460 387 456 387 l 681 387 q 712 418 711 387 q 684 499 713 453 q 601 545 655 545 m 624 594 q 724 574 681 594 q 787 522 766 553 q 818 462 808 490 q 827 410 827 434 q 795 346 827 347 q 453 336 648 336 q 515 144 450 213 q 674 76 579 76 q 762 100 723 76 q 823 148 802 123 q 827 146 825 148 q 831 139 829 144 q 834 129 834 134 q 826 104 834 118 q 749 26 800 62 q 628 -11 699 -11 q 499 19 562 -11 q 404 104 437 49 q 308 31 374 73 q 209 -11 241 -11 q 96 34 141 -11 q 50 145 50 79 q 113 252 50 220 q 241 308 151 271 q 338 347 331 345 q 357 366 354 354 q 359 410 359 378 q 331 500 359 460 q 255 540 302 540 q 205 519 221 540 q 180 454 189 498 q 117 391 170 391 q 83 408 96 391 q 71 448 71 426 q 80 480 71 468 q 188 553 117 514 q 324 591 259 591 q 450 507 406 591 q 624 594 530 594 z "},"":{"ha":574,"x_min":53,"x_max":533,"o":"m 518 524 q 503 474 518 490 q 467 458 487 458 q 439 467 453 458 q 410 490 426 476 q 388 509 395 505 q 311 534 350 534 q 205 471 252 534 q 159 308 159 408 q 220 136 159 194 q 378 79 281 79 q 522 148 463 79 q 526 146 524 148 q 530 139 528 144 q 533 129 533 134 q 525 104 533 118 q 448 26 499 62 q 327 -11 397 -11 q 130 71 208 -11 q 53 263 53 153 q 160 498 53 403 q 382 594 267 594 q 505 562 456 594 q 518 524 518 548 m 327 -31 l 361 -31 q 404 -51 387 -31 q 420 -98 420 -71 q 384 -172 420 -144 q 293 -201 347 -201 q 247 -189 266 -201 q 245 -181 247 -187 q 243 -170 243 -175 q 249 -157 243 -163 q 262 -151 255 -151 q 285 -159 269 -151 q 312 -168 301 -168 q 355 -155 339 -168 q 370 -123 370 -142 q 357 -90 370 -102 q 328 -77 343 -77 q 293 -87 317 -77 q 284 -80 290 -87 q 279 -69 278 -73 q 301 -36 285 -61 q 323 0 317 -11 l 351 0 l 327 -31 z "},"":{"ha":583,"x_min":54,"x_max":532,"o":"m 157 387 q 378 387 157 387 q 410 418 410 387 q 381 502 410 458 q 298 545 353 545 q 213 506 248 545 q 165 427 178 467 q 157 387 153 387 m 151 336 q 151 327 151 331 q 214 142 151 208 q 372 76 278 76 q 460 100 420 76 q 521 148 499 123 q 524 146 522 148 q 529 139 526 144 q 532 129 532 134 q 524 104 532 118 q 447 26 498 62 q 326 -11 396 -11 q 130 70 206 -11 q 54 271 54 151 q 140 498 54 401 q 321 594 227 594 q 421 574 378 594 q 485 522 464 553 q 515 462 506 490 q 525 410 525 434 q 492 346 525 347 q 151 336 345 336 m 195 887 q 232 876 221 887 q 314 764 264 836 q 363 688 363 693 q 351 670 363 670 q 241 745 336 670 q 146 848 146 819 q 195 887 146 887 z "},"":{"ha":583,"x_min":54,"x_max":532,"o":"m 157 387 q 378 387 157 387 q 410 418 410 387 q 381 502 410 458 q 298 545 353 545 q 213 506 248 545 q 165 427 178 467 q 157 387 153 387 m 151 336 q 151 327 151 331 q 214 142 151 208 q 372 76 278 76 q 460 100 420 76 q 521 148 499 123 q 524 146 522 148 q 529 139 526 144 q 532 129 532 134 q 524 104 532 118 q 447 26 498 62 q 326 -11 396 -11 q 130 70 206 -11 q 54 271 54 151 q 140 498 54 401 q 321 594 227 594 q 421 574 378 594 q 485 522 464 553 q 515 462 506 490 q 525 410 525 434 q 492 346 525 347 q 151 336 345 336 m 407 887 q 456 848 456 887 q 361 745 456 819 q 251 670 266 670 q 239 688 239 670 q 288 764 239 693 q 370 876 338 836 q 407 887 381 887 z "},"":{"ha":583,"x_min":54,"x_max":532,"o":"m 157 387 q 378 387 157 387 q 410 418 410 387 q 381 502 410 458 q 298 545 353 545 q 213 506 248 545 q 165 427 178 467 q 157 387 153 387 m 151 336 q 151 327 151 331 q 214 142 151 208 q 372 76 278 76 q 460 100 420 76 q 521 148 499 123 q 524 146 522 148 q 529 139 526 144 q 532 129 532 134 q 524 104 532 118 q 447 26 498 62 q 326 -11 396 -11 q 130 70 206 -11 q 54 271 54 151 q 140 498 54 401 q 321 594 227 594 q 421 574 378 594 q 485 522 464 553 q 515 462 506 490 q 525 410 525 434 q 492 346 525 347 q 151 336 345 336 m 288 864 q 302 876 294 876 q 317 864 311 876 q 445 685 357 800 q 440 673 445 678 q 430 667 435 667 l 302 770 q 175 667 222 705 q 165 673 170 667 q 160 685 160 678 q 288 864 248 800 z "},"":{"ha":583,"x_min":54,"x_max":532,"o":"m 157 387 q 378 387 157 387 q 410 418 410 387 q 381 502 410 458 q 298 545 353 545 q 213 506 248 545 q 165 427 178 467 q 157 387 153 387 m 151 336 q 151 327 151 331 q 214 142 151 208 q 372 76 278 76 q 460 100 420 76 q 521 148 499 123 q 524 146 522 148 q 529 139 526 144 q 532 129 532 134 q 524 104 532 118 q 447 26 498 62 q 326 -11 396 -11 q 130 70 206 -11 q 54 271 54 151 q 140 498 54 401 q 321 594 227 594 q 421 574 378 594 q 485 522 464 553 q 515 462 506 490 q 525 410 525 434 q 492 346 525 347 q 151 336 345 336 m 393 785 q 402 794 393 785 q 438 803 412 803 q 482 784 464 803 q 500 739 500 765 q 481 696 500 713 q 437 678 463 678 q 392 696 411 678 q 373 741 373 715 q 393 785 373 766 m 144 785 q 154 794 144 785 q 190 803 164 803 q 234 784 216 803 q 252 739 252 765 q 233 696 252 713 q 189 678 214 678 q 144 696 163 678 q 125 741 125 715 q 144 785 125 766 z "},"":{"ha":366,"x_min":27,"x_max":338,"o":"m 245 441 l 245 157 q 252 57 245 79 q 287 41 255 47 q 338 35 319 35 q 342 16 342 30 q 338 -4 343 1 q 193 3 198 3 q 49 -4 187 3 q 44 16 43 1 q 49 35 45 30 q 100 41 68 35 q 134 57 132 47 q 141 157 141 79 l 141 410 q 134 480 141 464 q 46 505 125 505 q 43 521 43 507 q 46 540 42 534 q 240 597 161 556 q 250 589 245 597 q 255 575 255 581 q 245 486 245 509 l 245 441 m 76 887 q 113 876 102 887 q 195 764 145 836 q 244 688 244 693 q 232 670 244 670 q 122 745 217 670 q 27 848 27 819 q 76 887 27 887 z "},"":{"ha":366,"x_min":46,"x_max":338,"o":"m 245 441 l 245 157 q 252 57 245 79 q 287 41 255 47 q 338 35 319 35 q 342 16 342 30 q 338 -4 343 1 q 193 3 198 3 q 49 -4 187 3 q 44 16 43 1 q 49 35 45 30 q 100 41 68 35 q 134 57 132 47 q 141 157 141 79 l 141 410 q 134 480 141 464 q 46 505 125 505 q 43 521 43 507 q 46 540 42 534 q 240 597 161 556 q 250 589 245 597 q 255 575 255 581 q 245 486 245 509 l 245 441 m 282 887 q 331 848 331 887 q 236 745 331 819 q 126 670 141 670 q 114 688 114 670 q 163 764 114 693 q 245 876 213 836 q 282 887 256 887 z "},"":{"ha":366,"x_min":46,"x_max":354,"o":"m 245 441 l 245 157 q 252 57 245 79 q 287 41 255 47 q 338 35 319 35 q 342 16 342 30 q 338 -4 343 1 q 193 3 198 3 q 49 -4 187 3 q 44 16 43 1 q 49 35 45 30 q 100 41 68 35 q 134 57 132 47 q 141 157 141 79 l 141 410 q 134 480 141 464 q 46 505 125 505 q 43 521 43 507 q 46 540 42 534 q 240 597 161 556 q 250 589 245 597 q 255 575 255 581 q 245 486 245 509 l 245 441 m 197 864 q 212 876 203 876 q 227 864 220 876 q 354 685 266 800 q 349 673 354 678 q 339 667 345 667 l 212 770 q 84 667 132 705 q 74 673 79 667 q 69 685 69 678 q 197 864 157 800 z "},"":{"ha":369,"x_min":11,"x_max":363,"o":"m 249 787 q 259 797 249 787 q 297 807 270 807 q 344 787 324 807 q 363 739 363 766 q 343 693 363 712 q 296 674 323 674 q 248 694 269 674 q 228 741 228 713 q 249 787 228 768 m 32 787 q 42 797 32 787 q 80 807 53 807 q 127 787 107 807 q 146 739 146 766 q 126 693 146 712 q 79 674 106 674 q 31 694 52 674 q 11 741 11 713 q 32 787 11 768 m 245 441 l 245 157 q 252 57 245 79 q 287 41 255 47 q 338 35 319 35 q 342 16 342 30 q 338 -4 343 1 q 193 3 198 3 q 49 -4 187 3 q 44 16 43 1 q 49 35 45 30 q 100 41 68 35 q 134 57 132 47 q 141 157 141 79 l 141 410 q 134 480 141 464 q 46 505 125 505 q 43 521 43 507 q 46 540 42 534 q 240 597 161 556 q 250 589 245 597 q 255 575 255 581 q 245 486 245 509 l 245 441 z "},"":{"ha":701,"x_min":54,"x_max":627,"o":"m 335 595 q 450 574 414 595 q 424 635 435 610 q 382 703 412 661 q 309 783 351 746 l 174 690 q 154 713 164 697 q 151 734 144 728 l 270 814 q 110 901 202 863 q 116 921 110 909 q 129 933 122 933 q 319 848 224 911 l 469 948 q 490 926 479 941 q 494 906 500 911 l 361 817 q 471 713 422 770 q 627 335 627 534 q 544 84 627 178 q 347 -9 461 -9 q 134 75 213 -9 q 54 286 54 160 q 128 501 54 407 q 335 595 202 595 m 317 551 q 206 481 241 551 q 171 308 171 412 q 222 119 171 202 q 351 35 273 35 q 469 102 429 35 q 509 274 509 168 q 481 446 509 395 q 317 551 426 551 z "},"":{"ha":722,"x_min":46,"x_max":704,"o":"m 437 594 q 576 529 541 594 q 612 307 612 464 l 612 157 q 618 57 612 79 q 653 41 621 47 q 704 35 685 35 q 709 16 708 30 q 704 -4 709 1 q 559 3 564 3 q 415 -4 553 3 q 410 16 410 1 q 415 35 411 30 q 466 41 434 35 q 500 57 498 47 q 507 157 507 79 l 507 293 q 480 468 507 420 q 374 515 453 515 q 293 484 340 515 q 245 441 245 453 l 245 157 q 252 57 245 79 q 287 41 255 47 q 338 35 319 35 q 342 16 342 30 q 338 -4 343 1 q 193 3 198 3 q 49 -4 187 3 q 44 16 43 1 q 49 35 45 30 q 100 41 68 35 q 134 57 132 47 q 141 157 141 79 l 141 404 q 134 480 141 464 q 46 505 125 505 q 43 521 43 507 q 46 540 42 534 q 240 597 161 556 q 250 589 245 597 q 255 575 255 581 q 247 498 247 518 q 250 492 247 492 q 254 495 251 492 q 337 559 281 525 q 437 594 393 594 m 286 800 q 369 769 317 800 q 448 736 420 736 q 486 748 469 736 q 512 774 502 760 q 524 789 522 788 q 532 777 532 789 q 513 726 532 754 q 429 675 476 675 q 347 705 396 675 q 267 739 293 739 q 231 728 245 739 q 208 702 216 716 q 197 686 199 688 q 186 701 186 686 q 202 751 186 727 q 286 800 239 800 z "},"":{"ha":690,"x_min":56,"x_max":635,"o":"m 330 551 q 211 483 250 551 q 172 316 172 415 q 224 121 172 208 q 361 35 275 35 q 479 103 441 35 q 518 269 518 171 q 467 463 518 376 q 330 551 415 551 m 345 595 q 555 512 476 595 q 635 300 635 429 q 553 79 635 168 q 347 -9 471 -9 q 136 75 216 -9 q 56 289 56 159 q 138 508 56 420 q 345 595 221 595 m 264 887 q 301 876 290 887 q 383 764 334 836 q 433 688 433 693 q 420 670 433 670 q 311 745 406 670 q 216 848 216 819 q 264 887 216 887 z "},"":{"ha":690,"x_min":56,"x_max":635,"o":"m 330 551 q 211 483 250 551 q 172 316 172 415 q 224 121 172 208 q 361 35 275 35 q 479 103 441 35 q 518 269 518 171 q 467 463 518 376 q 330 551 415 551 m 345 595 q 555 512 476 595 q 635 300 635 429 q 553 79 635 168 q 347 -9 471 -9 q 136 75 216 -9 q 56 289 56 159 q 138 508 56 420 q 345 595 221 595 m 457 887 q 506 848 506 887 q 411 745 506 819 q 301 670 316 670 q 289 688 289 670 q 338 764 289 693 q 420 876 388 836 q 457 887 431 887 z "},"":{"ha":690,"x_min":56,"x_max":635,"o":"m 330 551 q 211 483 250 551 q 172 316 172 415 q 224 121 172 208 q 361 35 275 35 q 479 103 441 35 q 518 269 518 171 q 467 463 518 376 q 330 551 415 551 m 345 595 q 555 512 476 595 q 635 300 635 429 q 553 79 635 168 q 347 -9 471 -9 q 136 75 216 -9 q 56 289 56 159 q 138 508 56 420 q 345 595 221 595 m 334 864 q 349 876 340 876 q 363 864 357 876 q 491 685 403 800 q 486 673 491 678 q 476 667 481 667 l 349 770 q 221 667 269 705 q 211 673 216 667 q 206 685 206 678 q 334 864 294 800 z "},"":{"ha":690,"x_min":56,"x_max":635,"o":"m 330 551 q 211 483 250 551 q 172 316 172 415 q 224 121 172 208 q 361 35 275 35 q 479 103 441 35 q 518 269 518 171 q 467 463 518 376 q 330 551 415 551 m 345 595 q 555 512 476 595 q 635 300 635 429 q 553 79 635 168 q 347 -9 471 -9 q 136 75 216 -9 q 56 289 56 159 q 138 508 56 420 q 345 595 221 595 m 279 799 q 362 768 311 799 q 441 735 414 735 q 479 747 463 735 q 505 772 495 758 q 517 788 515 787 q 525 776 525 788 q 506 724 525 753 q 422 674 469 674 q 340 704 389 674 q 260 738 286 738 q 224 726 239 738 q 201 701 209 715 q 190 685 193 686 q 179 700 179 685 q 195 750 179 726 q 279 799 232 799 z "},"":{"ha":690,"x_min":56,"x_max":635,"o":"m 330 551 q 211 483 250 551 q 172 316 172 415 q 224 121 172 208 q 361 35 275 35 q 479 103 441 35 q 518 269 518 171 q 467 463 518 376 q 330 551 415 551 m 345 595 q 555 512 476 595 q 635 300 635 429 q 553 79 635 168 q 347 -9 471 -9 q 136 75 216 -9 q 56 289 56 159 q 138 508 56 420 q 345 595 221 595 m 425 785 q 435 794 425 785 q 471 803 445 803 q 515 784 496 803 q 533 739 533 765 q 514 696 533 713 q 469 678 495 678 q 425 696 444 678 q 406 741 406 715 q 425 785 406 766 m 177 785 q 187 794 177 785 q 222 803 197 803 q 267 784 248 803 q 285 739 285 765 q 266 696 285 713 q 221 678 247 678 q 176 696 195 678 q 157 741 157 715 q 177 785 157 766 z "},"":{"ha":812,"x_min":81,"x_max":732,"o":"m 90 297 q 81 311 81 297 q 88 342 81 319 q 104 373 95 366 l 720 373 q 732 357 732 373 q 711 297 732 319 l 90 297 m 361 546 q 352 556 361 546 q 342 594 342 566 q 361 642 342 623 q 410 662 381 662 q 458 642 438 662 q 477 594 477 623 q 458 546 477 566 q 410 526 438 526 q 361 546 381 526 m 361 26 q 352 36 361 26 q 342 75 342 46 q 361 123 342 103 q 410 142 381 142 q 458 123 438 142 q 477 75 477 103 q 458 26 477 46 q 410 7 438 7 q 361 26 381 7 z "},"":{"ha":690,"x_min":57,"x_max":636,"o":"m 175 -11 q 138 18 134 9 l 505 593 q 541 566 545 575 l 175 -11 m 331 551 q 212 483 251 551 q 174 316 174 415 q 225 121 174 208 q 362 35 277 35 q 481 103 442 35 q 519 269 519 171 q 468 463 519 376 q 331 551 416 551 m 346 595 q 557 512 477 595 q 636 300 636 429 q 554 79 636 168 q 349 -9 472 -9 q 137 75 217 -9 q 57 289 57 159 q 140 508 57 420 q 346 595 222 595 z "},"":{"ha":699,"x_min":23,"x_max":673,"o":"m 475 434 q 464 507 475 487 q 388 534 449 534 q 385 551 385 537 q 388 570 384 564 q 574 597 499 574 q 583 584 578 597 q 589 564 589 571 q 579 476 579 545 l 579 414 l 579 191 q 589 88 579 133 q 604 73 591 79 q 629 66 616 68 q 656 65 643 65 l 669 64 q 673 49 673 62 q 669 36 673 45 q 662 27 666 27 q 616 22 642 26 q 570 12 591 18 q 528 1 548 7 q 496 -8 509 -4 l 486 -11 q 475 11 475 -11 l 475 73 l 472 80 q 385 18 441 46 q 279 -9 328 -9 q 110 260 110 -9 l 110 434 q 99 507 110 487 q 23 534 84 534 q 20 551 20 537 q 23 570 19 564 q 209 597 134 574 q 218 586 213 597 q 224 570 224 575 q 214 476 214 551 l 214 418 l 214 277 q 247 117 214 168 q 350 66 279 66 q 434 92 393 66 q 475 141 475 117 l 475 434 m 225 887 q 262 876 251 887 q 344 764 294 836 q 393 688 393 693 q 381 670 393 670 q 271 745 366 670 q 176 848 176 819 q 225 887 176 887 z "},"":{"ha":699,"x_min":23,"x_max":673,"o":"m 475 434 q 464 507 475 487 q 388 534 449 534 q 385 551 385 537 q 388 570 384 564 q 574 597 499 574 q 583 584 578 597 q 589 564 589 571 q 579 476 579 545 l 579 414 l 579 191 q 589 88 579 133 q 604 73 591 79 q 629 66 616 68 q 656 65 643 65 l 669 64 q 673 49 673 62 q 669 36 673 45 q 662 27 666 27 q 616 22 642 26 q 570 12 591 18 q 528 1 548 7 q 496 -8 509 -4 l 486 -11 q 475 11 475 -11 l 475 73 l 472 80 q 385 18 441 46 q 279 -9 328 -9 q 110 260 110 -9 l 110 434 q 99 507 110 487 q 23 534 84 534 q 20 551 20 537 q 23 570 19 564 q 209 597 134 574 q 218 586 213 597 q 224 570 224 575 q 214 476 214 551 l 214 418 l 214 277 q 247 117 214 168 q 350 66 279 66 q 434 92 393 66 q 475 141 475 117 l 475 434 m 467 887 q 515 848 515 887 q 420 745 515 819 q 311 670 326 670 q 298 688 298 670 q 348 764 298 693 q 430 876 397 836 q 467 887 441 887 z "},"":{"ha":699,"x_min":23,"x_max":673,"o":"m 475 434 q 464 507 475 487 q 388 534 449 534 q 385 551 385 537 q 388 570 384 564 q 574 597 499 574 q 583 584 578 597 q 589 564 589 571 q 579 476 579 545 l 579 414 l 579 191 q 589 88 579 133 q 604 73 591 79 q 629 66 616 68 q 656 65 643 65 l 669 64 q 673 49 673 62 q 669 36 673 45 q 662 27 666 27 q 616 22 642 26 q 570 12 591 18 q 528 1 548 7 q 496 -8 509 -4 l 486 -11 q 475 11 475 -11 l 475 73 l 472 80 q 385 18 441 46 q 279 -9 328 -9 q 110 260 110 -9 l 110 434 q 99 507 110 487 q 23 534 84 534 q 20 551 20 537 q 23 570 19 564 q 209 597 134 574 q 218 586 213 597 q 224 570 224 575 q 214 476 214 551 l 214 418 l 214 277 q 247 117 214 168 q 350 66 279 66 q 434 92 393 66 q 475 141 475 117 l 475 434 m 331 864 q 346 876 338 876 q 361 864 354 876 q 488 685 400 800 q 484 673 488 678 q 473 667 479 667 l 346 770 q 218 667 266 705 q 208 673 213 667 q 203 685 203 678 q 331 864 292 800 z "},"":{"ha":699,"x_min":23,"x_max":673,"o":"m 475 434 q 464 507 475 487 q 388 534 449 534 q 385 551 385 537 q 388 570 384 564 q 574 597 499 574 q 583 584 578 597 q 589 564 589 571 q 579 476 579 545 l 579 414 l 579 191 q 589 88 579 133 q 604 73 591 79 q 629 66 616 68 q 656 65 643 65 l 669 64 q 673 49 673 62 q 669 36 673 45 q 662 27 666 27 q 616 22 642 26 q 570 12 591 18 q 528 1 548 7 q 496 -8 509 -4 l 486 -11 q 475 11 475 -11 l 475 73 l 472 80 q 385 18 441 46 q 279 -9 328 -9 q 110 260 110 -9 l 110 434 q 99 507 110 487 q 23 534 84 534 q 20 551 20 537 q 23 570 19 564 q 209 597 134 574 q 218 586 213 597 q 224 570 224 575 q 214 476 214 551 l 214 418 l 214 277 q 247 117 214 168 q 350 66 279 66 q 434 92 393 66 q 475 141 475 117 l 475 434 m 412 785 q 421 794 412 785 q 457 803 431 803 q 501 784 483 803 q 519 739 519 765 q 500 696 519 713 q 456 678 481 678 q 411 696 430 678 q 392 741 392 715 q 412 785 392 766 m 163 785 q 173 794 163 785 q 209 803 183 803 q 253 784 235 803 q 271 739 271 765 q 252 696 271 713 q 208 678 233 678 q 163 696 182 678 q 144 741 144 715 q 163 785 144 766 z "},"":{"ha":636,"x_min":3,"x_max":632,"o":"m 138 576 q 274 583 217 576 q 275 561 277 578 q 269 544 273 544 q 201 521 201 544 l 203 515 l 347 149 q 467 457 415 330 q 475 500 475 476 q 453 532 475 521 q 396 544 431 544 q 391 561 391 544 q 396 583 391 578 q 518 576 448 576 q 632 583 564 576 q 635 561 636 578 q 629 544 633 544 q 583 533 612 544 q 543 498 553 522 q 339 8 397 152 q 310 -68 331 -11 q 271 -163 289 -126 q 232 -233 254 -201 q 114 -309 180 -309 q 54 -251 54 -309 q 71 -212 54 -231 q 156 -198 125 -212 q 225 -134 187 -184 q 263 -64 240 -115 q 290 3 286 -12 q 76 517 163 330 q 3 544 62 544 q 0 562 0 544 q 3 583 0 581 q 138 576 68 576 m 483 887 q 532 848 532 887 q 437 745 532 819 q 327 670 342 670 q 315 688 315 670 q 364 764 315 693 q 446 876 414 836 q 483 887 457 887 z "},"":{"ha":671,"x_min":-1,"x_max":618,"o":"m 373 594 q 553 505 488 594 q 618 315 618 416 q 519 87 618 186 q 301 -11 419 -11 q 206 4 254 -11 q 201 -14 201 -3 l 201 -145 q 208 -245 201 -224 q 242 -261 210 -255 q 293 -267 274 -267 q 298 -287 297 -273 q 293 -307 298 -301 q 148 -300 155 -300 q 4 -307 144 -300 q -1 -287 -1 -301 q 4 -267 0 -273 q 55 -261 23 -267 q 90 -245 87 -255 q 96 -145 96 -224 l 96 757 q 90 827 96 811 q 7 852 79 852 q 5 861 5 852 q 5 878 4 869 q 8 887 5 887 q 201 941 102 897 q 211 934 206 941 q 216 920 216 926 q 201 802 201 876 l 201 521 q 203 514 201 514 q 208 517 205 514 q 288 569 240 544 q 373 594 336 594 m 315 514 q 238 495 275 514 q 201 461 201 476 l 201 136 q 242 62 201 88 q 327 37 283 37 q 456 106 407 37 q 505 264 505 176 q 450 448 505 381 q 315 514 396 514 z "},"":{"ha":636,"x_min":3,"x_max":632,"o":"m 138 576 q 274 583 217 576 q 275 561 277 578 q 269 544 273 544 q 201 521 201 544 l 203 515 l 347 149 q 467 457 415 330 q 475 500 475 476 q 453 532 475 521 q 396 544 431 544 q 391 561 391 544 q 396 583 391 578 q 518 576 448 576 q 632 583 564 576 q 635 561 636 578 q 629 544 633 544 q 583 533 612 544 q 543 498 553 522 q 339 8 397 152 q 310 -68 331 -11 q 271 -163 289 -126 q 232 -233 254 -201 q 114 -309 180 -309 q 54 -251 54 -309 q 71 -212 54 -231 q 156 -198 125 -212 q 225 -134 187 -184 q 263 -64 240 -115 q 290 3 286 -12 q 76 517 163 330 q 3 544 62 544 q 0 562 0 544 q 3 583 0 581 q 138 576 68 576 m 421 785 q 431 794 421 785 q 467 803 441 803 q 511 784 492 803 q 529 739 529 765 q 510 696 529 713 q 465 678 491 678 q 420 696 439 678 q 401 741 401 715 q 421 785 401 766 m 173 785 q 183 794 173 785 q 218 803 193 803 q 262 784 244 803 q 281 739 281 765 q 262 696 281 713 q 217 678 243 678 q 172 696 191 678 q 153 741 153 715 q 173 785 153 766 z "},"":{"ha":850,"x_min":-16,"x_max":856,"o":"m 129 189 q 391 860 308 648 q 414 885 396 871 q 442 899 433 899 q 446 898 445 899 q 450 895 449 895 l 727 171 l 761 81 q 803 48 769 61 q 853 35 837 35 q 856 -4 864 20 q 707 3 720 3 q 549 -4 705 3 q 545 16 544 1 q 551 35 545 30 q 627 53 606 35 q 632 72 632 58 q 609 156 632 90 q 563 279 586 222 l 540 336 q 532 342 536 342 q 397 343 514 343 q 251 339 312 343 l 244 335 q 183 170 206 235 q 164 73 164 114 q 199 44 164 53 q 258 35 235 35 q 262 17 260 33 q 260 -4 263 1 q 218 -1 241 -3 q 176 1 195 0 q 129 3 156 3 q 80 1 102 3 q 33 -1 58 0 q -16 -4 7 -3 q -19 14 -19 -1 q -16 35 -19 28 q 28 42 1 35 q 65 61 56 49 q 129 189 94 98 m 395 735 l 270 404 q 273 399 270 399 q 396 396 343 396 q 510 400 448 396 l 514 407 l 395 735 m 595 1025 q 262 1025 595 1025 q 256 1053 252 1029 q 270 1082 260 1076 l 604 1082 q 608 1057 610 1077 q 595 1025 605 1036 z "},"":{"ha":585,"x_min":50,"x_max":567,"o":"m 254 62 q 329 84 286 62 q 372 118 372 106 l 372 302 q 245 263 267 271 q 163 157 163 231 q 189 91 163 119 q 254 62 216 62 m 327 591 q 430 537 385 591 q 475 406 475 483 l 475 126 q 517 62 475 62 q 562 80 534 62 q 567 69 567 80 q 560 43 567 54 q 511 10 544 28 q 458 -8 477 -8 q 406 19 430 -8 q 376 80 382 46 q 298 25 357 61 q 209 -11 240 -11 q 96 34 141 -11 q 50 145 50 79 q 71 214 50 184 q 118 254 92 244 q 355 339 349 336 q 369 349 366 343 q 372 373 372 355 l 372 410 q 337 498 372 457 q 255 540 302 540 q 205 519 221 540 q 180 456 189 498 q 117 391 170 391 q 83 408 96 391 q 71 448 71 426 q 80 480 71 468 q 191 555 122 519 q 327 591 260 591 m 437 712 q 133 712 437 712 q 127 739 123 716 q 141 769 132 762 l 445 769 q 449 743 452 764 q 437 712 446 723 z "},"":{"ha":850,"x_min":-16,"x_max":856,"o":"m 129 189 q 391 860 308 648 q 414 885 396 871 q 442 899 433 899 q 446 898 445 899 q 450 895 449 895 l 727 171 l 761 81 q 803 48 769 61 q 853 35 837 35 q 856 -4 864 20 q 707 3 720 3 q 549 -4 705 3 q 545 16 544 1 q 551 35 545 30 q 627 53 606 35 q 632 72 632 58 q 609 156 632 90 q 563 279 586 222 l 540 336 q 532 342 536 342 q 397 343 514 343 q 251 339 312 343 l 244 335 q 183 170 206 235 q 164 73 164 114 q 199 44 164 53 q 258 35 235 35 q 262 17 260 33 q 260 -4 263 1 q 218 -1 241 -3 q 176 1 195 0 q 129 3 156 3 q 80 1 102 3 q 33 -1 58 0 q -16 -4 7 -3 q -19 14 -19 -1 q -16 35 -19 28 q 28 42 1 35 q 65 61 56 49 q 129 189 94 98 m 395 735 l 270 404 q 273 399 270 399 q 396 396 343 396 q 510 400 448 396 l 514 407 l 395 735 m 560 1130 q 580 1122 570 1130 q 590 1107 590 1114 q 589 1099 590 1101 q 534 1015 575 1047 q 442 983 492 983 q 351 1015 392 983 q 296 1099 309 1047 q 294 1107 294 1101 q 304 1122 294 1114 q 324 1130 315 1130 q 442 1046 353 1046 q 560 1130 532 1046 z "},"":{"ha":585,"x_min":50,"x_max":567,"o":"m 254 62 q 329 84 286 62 q 372 118 372 106 l 372 302 q 245 263 267 271 q 163 157 163 231 q 189 91 163 119 q 254 62 216 62 m 327 591 q 430 537 385 591 q 475 406 475 483 l 475 126 q 517 62 475 62 q 562 80 534 62 q 567 69 567 80 q 560 43 567 54 q 511 10 544 28 q 458 -8 477 -8 q 406 19 430 -8 q 376 80 382 46 q 298 25 357 61 q 209 -11 240 -11 q 96 34 141 -11 q 50 145 50 79 q 71 214 50 184 q 118 254 92 244 q 355 339 349 336 q 369 349 366 343 q 372 373 372 355 l 372 410 q 337 498 372 457 q 255 540 302 540 q 205 519 221 540 q 180 456 189 498 q 117 391 170 391 q 83 408 96 391 q 71 448 71 426 q 80 480 71 468 q 191 555 122 519 q 327 591 260 591 m 214 764 q 231 750 214 764 q 289 736 247 736 q 363 764 331 736 q 407 834 396 791 q 412 838 407 838 q 428 832 419 838 q 437 821 437 826 l 437 817 q 435 810 435 811 q 385 714 426 754 q 289 674 343 674 q 193 713 235 674 q 142 811 152 753 q 141 817 142 812 l 141 821 q 150 832 141 826 q 165 838 159 838 q 171 834 171 838 q 214 764 182 791 z "},"":{"ha":850,"x_min":-19,"x_max":856,"o":"m 856 -4 q 804 -1 836 -3 q 758 1 773 1 q 662 -77 705 -30 q 618 -164 618 -123 q 631 -204 618 -186 q 674 -222 643 -222 q 730 -210 705 -222 q 769 -184 755 -197 q 784 -171 783 -171 q 791 -189 791 -171 q 784 -213 791 -203 q 642 -302 716 -302 q 568 -269 591 -302 q 545 -198 545 -235 q 591 -92 545 -146 q 697 3 636 -37 l 694 3 q 549 -4 692 3 q 545 16 544 1 q 551 35 545 30 q 627 53 606 35 q 632 72 632 58 q 609 156 632 90 q 563 279 586 222 l 540 336 q 532 342 536 342 q 397 343 514 343 q 251 339 312 343 l 244 335 q 183 170 206 235 q 164 73 164 114 q 200 44 165 53 q 258 35 235 35 q 262 17 260 33 q 260 -4 263 1 q 218 -1 241 -3 q 174 1 194 0 q 129 3 155 3 q 80 1 102 3 q 33 -1 58 0 q -16 -4 7 -3 q -19 14 -19 -1 q -16 35 -19 28 q 28 42 1 35 q 65 61 56 49 q 129 189 94 98 q 391 860 308 648 q 414 885 396 871 q 442 899 433 899 q 446 898 445 899 q 450 895 449 895 l 727 171 l 761 81 q 803 48 769 61 q 853 35 837 35 q 856 -4 864 20 m 395 735 l 270 404 q 273 399 270 399 q 396 396 343 396 q 510 400 448 396 l 514 407 l 395 735 z "},"":{"ha":585,"x_min":50,"x_max":567,"o":"m 254 62 q 329 84 286 62 q 372 118 372 106 l 372 302 q 245 263 267 271 q 163 157 163 231 q 189 91 163 119 q 254 62 216 62 m 376 80 q 298 25 357 61 q 209 -11 240 -11 q 96 34 141 -11 q 50 145 50 79 q 71 214 50 184 q 118 254 92 244 q 355 339 349 336 q 369 349 366 343 q 372 373 372 355 l 372 410 q 337 498 372 457 q 255 540 302 540 q 205 519 221 540 q 180 456 189 498 q 117 391 170 391 q 83 408 96 391 q 71 448 71 426 q 80 480 71 468 q 191 555 122 519 q 327 591 260 591 q 430 537 385 591 q 475 406 475 483 l 475 126 q 517 62 475 62 q 562 80 534 62 q 567 69 567 80 q 560 43 567 54 q 511 9 519 15 q 490 -5 509 8 q 465 -23 472 -18 q 441 -42 458 -28 q 415 -64 423 -56 q 393 -86 407 -72 q 374 -112 380 -100 q 363 -137 368 -123 q 358 -164 358 -151 q 370 -204 358 -186 q 414 -222 382 -222 q 470 -210 445 -222 q 509 -184 495 -197 q 524 -171 522 -171 q 530 -189 530 -171 q 524 -213 530 -203 q 381 -302 456 -302 q 308 -269 331 -302 q 285 -198 285 -235 q 328 -99 285 -156 q 425 1 370 -42 q 392 35 407 12 q 376 80 377 57 z "},"":{"ha":914,"x_min":65,"x_max":857,"o":"m 524 905 q 811 876 680 905 q 842 675 842 689 q 833 664 844 670 q 812 658 823 658 q 796 662 803 658 q 530 860 758 860 q 293 739 387 860 q 199 465 199 617 q 237 260 199 355 q 357 101 274 165 q 552 37 439 37 q 731 102 658 37 q 814 259 792 156 q 857 248 837 262 q 840 143 857 222 q 810 53 822 64 q 518 -8 701 -8 q 193 122 321 -8 q 65 437 65 252 q 196 768 65 631 q 524 905 327 905 m 483 1000 q 548 1073 483 1008 q 647 1164 613 1138 q 671 1168 655 1168 q 734 1127 734 1168 q 625 1042 734 1096 q 491 987 517 987 q 483 1000 483 987 z "},"":{"ha":574,"x_min":53,"x_max":533,"o":"m 518 524 q 503 474 518 490 q 467 458 487 458 q 439 467 453 458 q 410 490 426 476 q 388 509 395 505 q 311 534 350 534 q 205 471 252 534 q 159 308 159 408 q 220 136 159 194 q 378 79 281 79 q 522 148 463 79 q 526 146 524 148 q 530 139 528 144 q 533 129 533 134 q 525 104 533 118 q 448 26 499 62 q 327 -11 397 -11 q 130 71 208 -11 q 53 263 53 153 q 160 498 53 403 q 382 594 267 594 q 505 562 456 594 q 518 524 518 548 m 430 887 q 479 848 479 887 q 384 745 479 819 q 274 670 289 670 q 262 688 262 670 q 311 764 262 693 q 393 876 361 836 q 430 887 404 887 z "},"":{"ha":914,"x_min":65,"x_max":857,"o":"m 524 905 q 811 876 680 905 q 842 675 842 689 q 833 664 844 670 q 812 658 823 658 q 796 662 803 658 q 530 860 758 860 q 293 739 387 860 q 199 465 199 617 q 237 260 199 355 q 357 101 274 165 q 552 37 439 37 q 731 102 658 37 q 814 259 792 156 q 857 248 837 262 q 840 143 857 222 q 810 53 822 64 q 518 -8 701 -8 q 193 122 321 -8 q 65 437 65 252 q 196 768 65 631 q 524 905 327 905 m 522 1154 q 538 1165 533 1165 q 555 1154 544 1165 q 623 1082 582 1124 q 693 1009 665 1040 q 680 986 693 986 l 538 1073 q 397 986 538 1073 q 387 994 392 986 q 382 1009 382 1002 q 445 1074 400 1028 q 522 1154 490 1119 z "},"":{"ha":574,"x_min":53,"x_max":533,"o":"m 518 524 q 503 474 518 490 q 467 458 487 458 q 439 467 453 458 q 410 490 426 476 q 388 509 395 505 q 311 534 350 534 q 205 471 252 534 q 159 308 159 408 q 220 136 159 194 q 378 79 281 79 q 522 148 463 79 q 526 146 524 148 q 530 139 528 144 q 533 129 533 134 q 525 104 533 118 q 448 26 499 62 q 327 -11 397 -11 q 130 71 208 -11 q 53 263 53 153 q 160 498 53 403 q 382 594 267 594 q 505 562 456 594 q 518 524 518 548 m 308 864 q 323 876 315 876 q 338 864 331 876 q 465 685 377 800 q 460 673 465 678 q 450 667 456 667 l 323 770 q 195 667 243 705 q 185 673 190 667 q 180 685 180 678 q 308 864 269 800 z "},"":{"ha":914,"x_min":65,"x_max":857,"o":"m 524 905 q 811 876 680 905 q 842 675 842 689 q 833 664 844 670 q 812 658 823 658 q 796 662 803 658 q 530 860 758 860 q 293 739 387 860 q 199 465 199 617 q 237 260 199 355 q 357 101 274 165 q 552 37 439 37 q 731 102 658 37 q 814 259 792 156 q 857 248 837 262 q 840 143 857 222 q 810 53 822 64 q 518 -8 701 -8 q 193 122 321 -8 q 65 437 65 252 q 196 768 65 631 q 524 905 327 905 z "},"":{"ha":574,"x_min":53,"x_max":533,"o":"m 518 524 q 503 474 518 490 q 467 458 487 458 q 439 467 453 458 q 410 490 426 476 q 388 509 395 505 q 311 534 350 534 q 205 471 252 534 q 159 308 159 408 q 220 136 159 194 q 378 79 281 79 q 522 148 463 79 q 526 146 524 148 q 530 139 528 144 q 533 129 533 134 q 525 104 533 118 q 448 26 499 62 q 327 -11 397 -11 q 130 71 208 -11 q 53 263 53 153 q 160 498 53 403 q 382 594 267 594 q 505 562 456 594 q 518 524 518 548 m 287 756 q 277 766 287 756 q 267 804 267 776 q 287 852 267 833 q 335 872 307 872 q 383 852 363 872 q 403 804 403 833 q 383 756 403 776 q 335 736 363 736 q 287 756 307 736 z "},"":{"ha":914,"x_min":65,"x_max":857,"o":"m 534 997 q 518 986 524 986 q 502 997 513 986 q 433 1069 475 1027 q 363 1142 392 1111 q 377 1165 363 1165 l 518 1078 q 659 1165 518 1078 q 669 1157 665 1165 q 674 1142 674 1149 q 612 1078 656 1123 q 534 997 567 1032 m 524 905 q 811 876 680 905 q 842 675 842 689 q 833 664 844 670 q 812 658 823 658 q 796 662 803 658 q 530 860 758 860 q 293 739 387 860 q 199 465 199 617 q 237 260 199 355 q 357 101 274 165 q 552 37 439 37 q 731 102 658 37 q 814 259 792 156 q 857 248 837 262 q 840 143 857 222 q 810 53 822 64 q 518 -8 701 -8 q 193 122 321 -8 q 65 437 65 252 q 196 768 65 631 q 524 905 327 905 z "},"":{"ha":574,"x_min":53,"x_max":533,"o":"m 518 524 q 503 474 518 490 q 467 458 487 458 q 439 467 453 458 q 410 490 426 476 q 388 509 395 505 q 311 534 350 534 q 205 471 252 534 q 159 308 159 408 q 220 136 159 194 q 378 79 281 79 q 522 148 463 79 q 526 146 524 148 q 530 139 528 144 q 533 129 533 134 q 525 104 533 118 q 448 26 499 62 q 327 -11 397 -11 q 130 71 208 -11 q 53 263 53 153 q 160 498 53 403 q 382 594 267 594 q 505 562 456 594 q 518 524 518 548 m 353 686 q 338 674 346 674 q 323 686 330 674 q 195 865 283 750 q 200 878 195 872 q 210 883 205 883 l 338 770 q 465 883 412 837 q 475 878 471 883 q 480 865 480 872 q 353 686 392 750 z "},"":{"ha":963,"x_min":61,"x_max":894,"o":"m 468 997 q 452 986 457 986 q 435 997 446 986 q 367 1069 408 1027 q 297 1142 326 1111 q 311 1165 297 1165 l 452 1078 q 593 1165 452 1078 q 603 1157 598 1165 q 608 1142 608 1149 q 545 1078 590 1123 q 468 997 500 1032 m 281 734 l 281 156 q 289 58 281 68 q 400 39 302 39 q 657 138 555 39 q 760 425 760 236 q 728 620 760 536 q 643 753 697 704 q 523 825 589 802 q 381 849 457 849 q 288 834 292 849 q 281 734 281 812 m 418 892 q 765 769 636 892 q 894 453 894 646 q 869 283 894 361 q 791 139 845 206 q 638 34 738 72 q 400 -4 538 -4 l 61 -4 q 56 16 56 1 q 61 35 57 30 q 117 41 81 35 q 155 57 152 47 q 161 157 161 79 l 161 736 q 155 837 161 815 q 117 852 152 846 q 61 859 81 859 q 56 878 57 864 q 61 898 56 892 q 221 891 201 891 q 317 892 247 891 q 418 892 387 892 z "},"":{"ha":722,"x_min":53,"x_max":803,"o":"m 376 594 q 469 581 435 594 q 476 609 476 581 l 476 757 q 469 827 476 811 q 387 852 458 852 q 385 861 385 852 q 385 878 384 869 q 388 887 385 887 q 581 941 481 897 q 591 934 586 941 q 595 920 595 926 q 581 802 581 876 l 581 221 q 590 88 581 110 q 607 75 594 80 q 633 67 620 69 q 658 65 646 65 l 670 64 q 674 47 674 62 q 671 35 674 43 q 663 27 667 27 q 618 22 643 26 q 571 12 593 18 q 530 1 549 7 q 499 -8 510 -4 l 487 -11 q 476 15 476 -11 l 476 62 q 472 71 475 72 q 393 19 452 49 q 292 -11 335 -11 q 125 73 197 -11 q 53 279 53 157 q 109 439 53 363 q 239 554 164 514 q 376 594 313 594 m 332 537 q 212 470 258 537 q 167 312 167 403 q 218 142 167 212 q 358 73 269 73 q 439 92 401 73 q 476 127 476 110 l 476 471 q 432 516 476 495 q 332 537 388 537 m 754 970 q 784 962 768 970 q 803 886 803 930 q 708 681 803 785 q 692 686 701 681 q 682 696 682 690 q 724 806 724 750 q 705 866 724 840 q 686 913 686 892 q 705 951 686 933 q 754 970 724 970 z "},"":{"ha":963,"x_min":61,"x_max":894,"o":"m 495 422 q 66 422 495 422 q 62 432 64 422 q 62 454 61 442 q 68 472 64 467 l 495 472 q 499 452 499 472 q 495 422 499 431 m 281 734 l 281 156 q 289 58 281 68 q 400 39 302 39 q 657 138 555 39 q 760 425 760 236 q 728 620 760 536 q 643 753 697 704 q 523 825 589 802 q 381 849 457 849 q 288 834 292 849 q 281 734 281 812 m 418 892 q 765 769 636 892 q 894 453 894 646 q 869 283 894 361 q 791 139 845 206 q 638 34 738 72 q 400 -4 538 -4 l 61 -4 q 56 16 56 1 q 61 35 57 30 q 117 41 81 35 q 155 57 152 47 q 161 157 161 79 l 161 736 q 155 837 161 815 q 117 852 152 846 q 61 859 81 859 q 56 878 57 864 q 61 898 56 892 q 221 891 201 891 q 317 892 247 891 q 418 892 387 892 z "},"":{"ha":699,"x_min":53,"x_max":674,"o":"m 297 760 q 656 760 297 760 q 665 749 665 760 q 656 712 665 728 q 296 712 656 712 q 289 728 289 712 q 297 760 289 746 m 376 594 q 469 581 435 594 q 476 609 476 581 l 476 757 q 469 827 476 811 q 387 852 458 852 q 385 861 385 852 q 385 878 384 869 q 388 887 385 887 q 581 941 481 897 q 591 934 586 941 q 595 920 595 926 q 581 802 581 876 l 581 221 q 590 88 581 110 q 607 75 594 80 q 633 67 620 69 q 658 65 646 65 l 670 64 q 674 47 674 62 q 671 35 674 43 q 663 27 667 27 q 618 22 643 26 q 571 12 593 18 q 530 1 549 7 q 499 -8 510 -4 l 487 -11 q 476 15 476 -11 l 476 62 q 472 71 475 72 q 393 19 452 49 q 292 -11 335 -11 q 125 73 197 -11 q 53 279 53 157 q 109 439 53 363 q 239 554 164 514 q 376 594 313 594 m 332 537 q 212 470 258 537 q 167 312 167 403 q 218 142 167 212 q 358 73 269 73 q 439 92 401 73 q 476 127 476 110 l 476 471 q 432 516 476 495 q 332 537 388 537 z "},"":{"ha":796,"x_min":61,"x_max":758,"o":"m 221 891 q 432 896 282 891 q 658 901 582 901 q 679 797 663 861 q 697 716 694 732 q 673 709 690 709 q 654 719 655 709 q 595 821 633 795 q 496 846 557 846 l 380 846 q 286 831 290 846 q 279 735 279 810 l 279 481 q 338 473 279 473 l 410 473 q 521 486 500 473 q 556 559 541 499 q 559 571 557 567 q 579 581 560 581 q 602 574 595 581 l 602 317 q 581 312 597 312 q 559 323 563 312 q 543 379 549 361 q 532 402 536 397 q 521 412 528 407 q 377 423 503 423 q 279 411 279 423 l 279 153 q 288 60 279 66 q 384 46 305 46 l 449 46 q 620 83 560 46 q 705 220 665 109 q 724 228 708 228 q 758 220 750 228 q 737 163 751 202 q 715 101 723 125 q 697 46 707 77 q 685 -5 688 15 q 467 -3 616 -5 q 222 0 317 0 q 138 -2 190 0 q 61 -4 87 -4 q 56 16 56 1 q 61 35 57 30 q 117 41 81 35 q 155 57 152 47 q 161 157 161 79 l 161 736 q 155 837 161 815 q 117 852 152 846 q 61 859 81 859 q 56 878 57 864 q 61 898 56 892 q 221 891 201 891 m 525 1025 q 191 1025 525 1025 q 186 1053 182 1029 q 199 1082 190 1076 l 533 1082 q 537 1057 540 1077 q 525 1025 534 1036 z "},"":{"ha":583,"x_min":54,"x_max":532,"o":"m 157 387 q 378 387 157 387 q 410 418 410 387 q 381 502 410 458 q 298 545 353 545 q 213 506 248 545 q 165 427 178 467 q 157 387 153 387 m 151 336 q 151 327 151 331 q 214 142 151 208 q 372 76 278 76 q 460 100 420 76 q 521 148 499 123 q 524 146 522 148 q 529 139 526 144 q 532 129 532 134 q 524 104 532 118 q 447 26 498 62 q 326 -11 396 -11 q 130 70 206 -11 q 54 271 54 151 q 140 498 54 401 q 321 594 227 594 q 421 574 378 594 q 485 522 464 553 q 515 462 506 490 q 525 410 525 434 q 492 346 525 347 q 151 336 345 336 m 441 712 q 137 712 441 712 q 132 739 127 716 q 145 769 136 762 l 449 769 q 453 743 456 764 q 441 712 450 723 z "},"":{"ha":796,"x_min":61,"x_max":758,"o":"m 221 891 q 432 896 282 891 q 658 901 582 901 q 679 797 663 861 q 697 716 694 732 q 673 709 690 709 q 654 719 655 709 q 595 821 633 795 q 496 846 557 846 l 380 846 q 286 831 290 846 q 279 735 279 810 l 279 481 q 338 473 279 473 l 410 473 q 521 486 500 473 q 556 559 541 499 q 559 571 557 567 q 579 581 560 581 q 602 574 595 581 l 602 317 q 581 312 597 312 q 559 323 563 312 q 543 379 549 361 q 532 402 536 397 q 521 412 528 407 q 377 423 503 423 q 279 411 279 423 l 279 153 q 288 60 279 66 q 384 46 305 46 l 449 46 q 620 83 560 46 q 705 220 665 109 q 724 228 708 228 q 758 220 750 228 q 737 163 751 202 q 715 101 723 125 q 697 46 707 77 q 685 -5 688 15 q 467 -3 616 -5 q 222 0 317 0 q 138 -2 190 0 q 61 -4 87 -4 q 56 16 56 1 q 61 35 57 30 q 117 41 81 35 q 155 57 152 47 q 161 157 161 79 l 161 736 q 155 837 161 815 q 117 852 152 846 q 61 859 81 859 q 56 878 57 864 q 61 898 56 892 q 221 891 201 891 m 519 1130 q 539 1122 529 1130 q 549 1107 549 1114 q 548 1099 549 1101 q 493 1015 534 1047 q 401 983 452 983 q 310 1015 351 983 q 255 1099 269 1047 q 254 1107 254 1101 q 264 1122 254 1114 q 283 1130 274 1130 q 401 1046 312 1046 q 519 1130 491 1046 z "},"":{"ha":583,"x_min":54,"x_max":532,"o":"m 157 387 q 378 387 157 387 q 410 418 410 387 q 381 502 410 458 q 298 545 353 545 q 213 506 248 545 q 165 427 178 467 q 157 387 153 387 m 151 336 q 151 327 151 331 q 214 142 151 208 q 372 76 278 76 q 460 100 420 76 q 521 148 499 123 q 524 146 522 148 q 529 139 526 144 q 532 129 532 134 q 524 104 532 118 q 447 26 498 62 q 326 -11 396 -11 q 130 70 206 -11 q 54 271 54 151 q 140 498 54 401 q 321 594 227 594 q 421 574 378 594 q 485 522 464 553 q 515 462 506 490 q 525 410 525 434 q 492 346 525 347 q 151 336 345 336 m 255 764 q 271 750 255 764 q 330 736 288 736 q 404 764 372 736 q 448 834 437 791 q 453 838 448 838 q 469 832 460 838 q 477 821 477 826 l 477 817 q 476 810 476 811 q 425 714 467 754 q 330 674 384 674 q 234 713 275 674 q 183 811 193 753 q 182 817 183 812 l 182 821 q 191 832 182 826 q 206 838 199 838 q 212 834 212 838 q 255 764 222 791 z "},"":{"ha":796,"x_min":61,"x_max":758,"o":"m 221 891 q 432 896 282 891 q 658 901 582 901 q 679 797 663 861 q 697 716 694 732 q 673 709 690 709 q 654 719 655 709 q 595 821 633 795 q 496 846 557 846 l 380 846 q 286 831 290 846 q 279 735 279 810 l 279 481 q 338 473 279 473 l 410 473 q 521 486 500 473 q 556 559 541 499 q 559 571 557 567 q 579 581 560 581 q 602 574 595 581 l 602 317 q 581 312 597 312 q 559 323 563 312 q 543 379 549 361 q 532 402 536 397 q 521 412 528 407 q 377 423 503 423 q 279 411 279 423 l 279 153 q 288 60 279 66 q 384 46 305 46 l 449 46 q 620 83 560 46 q 705 220 665 109 q 724 228 708 228 q 758 220 750 228 q 737 163 751 202 q 715 101 723 125 q 697 46 707 77 q 685 -5 688 15 q 467 -3 616 -5 q 222 0 317 0 q 138 -2 190 0 q 61 -4 87 -4 q 56 16 56 1 q 61 35 57 30 q 117 41 81 35 q 155 57 152 47 q 161 157 161 79 l 161 736 q 155 837 161 815 q 117 852 152 846 q 61 859 81 859 q 56 878 57 864 q 61 898 56 892 q 221 891 201 891 z "},"":{"ha":583,"x_min":54,"x_max":532,"o":"m 157 387 q 378 387 157 387 q 410 418 410 387 q 381 502 410 458 q 298 545 353 545 q 213 506 248 545 q 165 427 178 467 q 157 387 153 387 m 151 336 q 151 327 151 331 q 214 142 151 208 q 372 76 278 76 q 460 100 420 76 q 521 148 499 123 q 524 146 522 148 q 529 139 526 144 q 532 129 532 134 q 524 104 532 118 q 447 26 498 62 q 326 -11 396 -11 q 130 70 206 -11 q 54 271 54 151 q 140 498 54 401 q 321 594 227 594 q 421 574 378 594 q 485 522 464 553 q 515 462 506 490 q 525 410 525 434 q 492 346 525 347 q 151 336 345 336 m 287 756 q 277 766 287 756 q 267 804 267 776 q 287 852 267 833 q 335 872 307 872 q 383 852 363 872 q 403 804 403 833 q 383 756 403 776 q 335 736 363 736 q 287 756 307 736 z "},"":{"ha":796,"x_min":56,"x_max":758,"o":"m 221 891 q 432 896 282 891 q 658 901 582 901 q 679 797 663 861 q 697 716 694 732 q 673 709 690 709 q 654 719 655 709 q 595 821 633 795 q 496 846 557 846 l 380 846 q 286 831 290 846 q 279 735 279 810 l 279 481 q 338 473 279 473 l 410 473 q 521 486 500 473 q 556 559 541 499 q 559 571 557 567 q 579 581 560 581 q 602 574 595 581 l 602 317 q 581 312 597 312 q 559 323 563 312 q 543 379 549 361 q 532 402 536 397 q 521 412 528 407 q 377 423 503 423 q 279 411 279 423 l 279 153 q 288 60 279 66 q 384 46 305 46 l 449 46 q 620 83 560 46 q 705 220 665 109 q 724 228 708 228 q 758 220 750 228 q 737 163 751 202 q 715 101 723 125 q 697 46 707 77 q 685 -5 688 15 q 572 -62 628 -5 q 515 -165 515 -119 q 528 -205 515 -187 q 571 -224 540 -224 q 627 -211 602 -224 q 666 -185 652 -198 q 681 -172 680 -172 q 686 -190 686 -172 q 681 -214 686 -208 q 538 -304 613 -304 q 465 -270 488 -304 q 442 -199 442 -236 q 484 -98 442 -152 q 583 -4 526 -45 q 222 0 250 0 q 138 -2 190 0 q 61 -4 87 -4 q 56 16 56 1 q 61 35 57 30 q 117 41 81 35 q 155 57 152 47 q 161 157 161 79 l 161 736 q 155 837 161 815 q 117 852 152 846 q 61 859 81 859 q 56 878 57 864 q 61 898 56 892 q 221 891 201 891 z "},"":{"ha":585,"x_min":54,"x_max":532,"o":"m 458 34 q 361 -66 396 -19 q 326 -165 326 -113 q 338 -205 326 -187 q 381 -224 350 -224 q 437 -211 412 -224 q 476 -185 463 -198 q 491 -172 490 -172 q 496 -190 496 -172 q 491 -214 496 -208 q 349 -304 423 -304 q 275 -270 298 -304 q 252 -199 252 -236 q 283 -106 252 -160 q 358 -8 315 -52 q 326 -11 336 -11 q 130 70 206 -11 q 54 271 54 151 q 140 498 54 401 q 321 594 227 594 q 421 574 378 594 q 485 522 464 553 q 515 462 506 490 q 525 410 525 434 q 492 346 525 347 q 151 336 345 336 q 212 144 148 213 q 372 76 277 76 q 460 100 420 76 q 521 148 499 123 q 524 146 522 148 q 529 139 526 144 q 532 129 532 134 q 524 104 532 118 q 458 34 502 72 m 157 387 l 378 387 q 410 418 408 387 q 382 499 411 453 q 298 545 353 545 q 213 506 248 545 q 165 427 178 467 q 157 387 153 387 z "},"":{"ha":796,"x_min":61,"x_max":758,"o":"m 433 997 q 416 986 422 986 q 400 997 411 986 q 332 1069 373 1027 q 262 1142 290 1111 q 275 1165 262 1165 l 416 1078 q 557 1165 416 1078 q 568 1157 563 1165 q 572 1142 572 1149 q 510 1078 555 1123 q 433 997 465 1032 m 221 891 q 432 896 282 891 q 658 901 582 901 q 679 797 663 861 q 697 716 694 732 q 673 709 690 709 q 654 719 655 709 q 595 821 633 795 q 496 846 557 846 l 380 846 q 286 831 290 846 q 279 735 279 810 l 279 481 q 338 473 279 473 l 410 473 q 521 486 500 473 q 556 559 541 499 q 559 571 557 567 q 579 581 560 581 q 602 574 595 581 l 602 317 q 581 312 597 312 q 559 323 563 312 q 543 379 549 361 q 532 402 536 397 q 521 412 528 407 q 377 423 503 423 q 279 411 279 423 l 279 153 q 288 60 279 66 q 384 46 305 46 l 449 46 q 620 83 560 46 q 705 220 665 109 q 724 228 708 228 q 758 220 750 228 q 737 163 751 202 q 715 101 723 125 q 697 46 707 77 q 685 -5 688 15 q 467 -3 616 -5 q 222 0 317 0 q 138 -2 190 0 q 61 -4 87 -4 q 56 16 56 1 q 61 35 57 30 q 117 41 81 35 q 155 57 152 47 q 161 157 161 79 l 161 736 q 155 837 161 815 q 117 852 152 846 q 61 859 81 859 q 56 878 57 864 q 61 898 56 892 q 221 891 201 891 z "},"":{"ha":583,"x_min":54,"x_max":532,"o":"m 157 387 q 378 387 157 387 q 410 418 410 387 q 381 502 410 458 q 298 545 353 545 q 213 506 248 545 q 165 427 178 467 q 157 387 153 387 m 151 336 q 151 327 151 331 q 214 142 151 208 q 372 76 278 76 q 460 100 420 76 q 521 148 499 123 q 524 146 522 148 q 529 139 526 144 q 532 129 532 134 q 524 104 532 118 q 447 26 498 62 q 326 -11 396 -11 q 130 70 206 -11 q 54 271 54 151 q 140 498 54 401 q 321 594 227 594 q 421 574 378 594 q 485 522 464 553 q 515 462 506 490 q 525 410 525 434 q 492 346 525 347 q 151 336 345 336 m 340 686 q 326 674 334 674 q 311 686 317 674 q 183 865 271 750 q 188 878 183 872 q 198 883 193 883 l 326 770 q 453 883 400 837 q 463 878 458 883 q 468 865 468 872 q 340 686 380 750 z "},"":{"ha":977,"x_min":65,"x_max":937,"o":"m 726 237 q 719 338 726 316 q 682 353 716 347 q 627 359 647 359 q 622 379 623 365 q 627 399 621 393 q 785 392 765 392 q 937 399 798 392 q 942 379 943 393 q 937 359 941 365 q 884 353 917 359 q 849 338 852 347 q 842 237 842 316 l 842 141 q 849 109 842 125 q 856 87 856 92 q 829 62 856 77 q 760 29 788 41 q 667 5 732 18 q 518 -8 601 -8 q 193 122 321 -8 q 65 437 65 252 q 196 768 65 631 q 524 905 327 905 q 811 876 680 905 q 842 675 842 689 q 833 664 844 670 q 812 658 823 658 q 796 662 803 658 q 530 860 758 860 q 293 739 387 860 q 199 465 199 617 q 222 309 199 384 q 286 172 244 233 q 397 73 328 110 q 552 37 467 37 q 716 80 629 37 q 726 100 726 84 l 726 237 m 506 1154 q 522 1165 517 1165 q 538 1154 528 1165 q 607 1082 566 1124 q 677 1009 648 1040 q 663 986 677 986 l 522 1073 q 381 986 522 1073 q 371 994 376 986 q 366 1009 366 1002 q 429 1074 384 1028 q 506 1154 473 1119 z "},"":{"ha":632,"x_min":31,"x_max":618,"o":"m 292 555 q 205 507 237 555 q 172 396 172 458 q 208 278 172 330 q 302 227 244 227 q 387 273 355 227 q 418 381 418 320 q 385 503 418 450 q 292 555 351 555 m 346 -5 q 220 -12 232 -5 q 138 -103 138 -58 q 187 -213 138 -171 q 320 -255 236 -255 q 458 -210 392 -255 q 525 -110 525 -164 q 479 -39 525 -73 q 346 -5 433 -5 m 408 91 q 554 48 490 91 q 618 -52 618 5 q 510 -223 618 -140 q 266 -308 401 -307 q 103 -265 175 -309 q 31 -142 31 -221 q 77 -65 31 -103 q 175 -1 123 -27 q 98 45 133 12 q 64 125 64 79 q 118 174 79 144 q 180 217 157 203 q 99 292 130 244 q 68 391 68 340 q 134 534 68 472 q 297 595 201 595 q 420 566 343 595 q 452 556 438 559 l 597 576 q 610 563 610 572 q 600 533 610 553 q 579 507 589 513 l 490 513 q 484 509 484 513 q 508 463 494 499 q 522 385 522 426 q 454 248 522 311 q 293 186 387 186 q 217 198 247 186 q 167 138 167 170 q 189 108 167 125 q 248 91 212 91 l 408 91 m 292 905 q 307 917 298 917 q 321 905 315 917 q 449 726 361 841 q 444 713 449 719 q 434 708 439 708 l 307 811 q 179 708 227 746 q 169 713 174 708 q 164 726 164 719 q 292 905 252 841 z "},"":{"ha":977,"x_min":65,"x_max":937,"o":"m 726 237 q 719 338 726 316 q 682 353 716 347 q 627 359 647 359 q 622 379 623 365 q 627 399 621 393 q 785 392 765 392 q 937 399 798 392 q 942 379 943 393 q 937 359 941 365 q 884 353 917 359 q 849 338 852 347 q 842 237 842 316 l 842 141 q 849 109 842 125 q 856 87 856 92 q 829 62 856 77 q 760 29 788 41 q 667 5 732 18 q 518 -8 601 -8 q 193 122 321 -8 q 65 437 65 252 q 196 768 65 631 q 524 905 327 905 q 811 876 680 905 q 842 675 842 689 q 833 664 844 670 q 812 658 823 658 q 796 662 803 658 q 530 860 758 860 q 293 739 387 860 q 199 465 199 617 q 222 309 199 384 q 286 172 244 233 q 397 73 328 110 q 552 37 467 37 q 716 80 629 37 q 726 100 726 84 l 726 237 m 635 1130 q 654 1122 644 1130 q 665 1107 665 1114 q 663 1099 665 1101 q 608 1015 650 1047 q 517 983 567 983 q 425 1015 467 983 q 370 1099 384 1047 q 369 1107 369 1101 q 379 1122 369 1114 q 399 1130 389 1130 q 517 1046 427 1046 q 635 1130 606 1046 z "},"":{"ha":632,"x_min":31,"x_max":618,"o":"m 292 555 q 205 507 237 555 q 172 396 172 458 q 208 278 172 330 q 302 227 244 227 q 387 273 355 227 q 418 381 418 320 q 385 503 418 450 q 292 555 351 555 m 346 -5 q 220 -12 232 -5 q 138 -103 138 -58 q 187 -213 138 -171 q 320 -255 236 -255 q 458 -210 392 -255 q 525 -110 525 -164 q 479 -39 525 -73 q 346 -5 433 -5 m 408 91 q 554 48 490 91 q 618 -52 618 5 q 510 -223 618 -140 q 266 -308 401 -307 q 103 -265 175 -309 q 31 -142 31 -221 q 77 -65 31 -103 q 175 -1 123 -27 q 98 45 133 12 q 64 125 64 79 q 118 174 79 144 q 180 217 157 203 q 99 292 130 244 q 68 391 68 340 q 134 534 68 472 q 297 595 201 595 q 420 566 343 595 q 452 556 438 559 l 597 576 q 610 563 610 572 q 600 533 610 553 q 579 507 589 513 l 490 513 q 484 509 484 513 q 508 463 494 499 q 522 385 522 426 q 454 248 522 311 q 293 186 387 186 q 217 198 247 186 q 167 138 167 170 q 189 108 167 125 q 248 91 212 91 l 408 91 m 247 764 q 263 750 247 764 q 321 736 279 736 q 396 764 363 736 q 439 834 429 791 q 445 838 439 838 q 460 832 452 838 q 469 821 469 826 l 469 817 q 468 810 468 811 q 417 714 458 754 q 321 674 376 674 q 226 713 267 674 q 175 811 184 753 q 174 817 175 812 l 174 821 q 182 832 174 826 q 198 838 191 838 q 203 834 203 838 q 247 764 214 791 z "},"":{"ha":977,"x_min":65,"x_max":937,"o":"m 726 237 q 719 338 726 316 q 682 353 716 347 q 627 359 647 359 q 622 379 623 365 q 627 399 621 393 q 785 392 765 392 q 937 399 798 392 q 942 379 943 393 q 937 359 941 365 q 884 353 917 359 q 849 338 852 347 q 842 237 842 316 l 842 141 q 849 109 842 125 q 856 87 856 92 q 829 62 856 77 q 760 29 788 41 q 667 5 732 18 q 518 -8 601 -8 q 193 122 321 -8 q 65 437 65 252 q 196 768 65 631 q 524 905 327 905 q 811 876 680 905 q 842 675 842 689 q 833 664 844 670 q 812 658 823 658 q 796 662 803 658 q 530 860 758 860 q 293 739 387 860 q 199 465 199 617 q 222 309 199 384 q 286 172 244 233 q 397 73 328 110 q 552 37 467 37 q 716 80 629 37 q 726 100 726 84 l 726 237 z "},"":{"ha":632,"x_min":31,"x_max":618,"o":"m 292 555 q 205 507 237 555 q 172 396 172 458 q 208 278 172 330 q 302 227 244 227 q 387 273 355 227 q 418 381 418 320 q 385 503 418 450 q 292 555 351 555 m 346 -5 q 220 -12 232 -5 q 138 -103 138 -58 q 187 -213 138 -171 q 320 -255 236 -255 q 458 -210 392 -255 q 525 -110 525 -164 q 479 -39 525 -73 q 346 -5 433 -5 m 408 91 q 554 48 490 91 q 618 -52 618 5 q 510 -223 618 -140 q 266 -308 401 -307 q 103 -265 175 -309 q 31 -142 31 -221 q 77 -65 31 -103 q 175 -1 123 -27 q 98 45 133 12 q 64 125 64 79 q 118 174 79 144 q 180 217 157 203 q 99 292 130 244 q 68 391 68 340 q 134 534 68 472 q 297 595 201 595 q 420 566 343 595 q 452 556 438 559 l 597 576 q 610 563 610 572 q 600 533 610 553 q 579 507 589 513 l 490 513 q 484 509 484 513 q 508 463 494 499 q 522 385 522 426 q 454 248 522 311 q 293 186 387 186 q 217 198 247 186 q 167 138 167 170 q 189 108 167 125 q 248 91 212 91 l 408 91 m 260 756 q 250 766 260 756 q 240 804 240 776 q 260 852 240 833 q 308 872 279 872 q 356 852 336 872 q 376 804 376 833 q 356 756 376 776 q 308 736 336 736 q 260 756 279 736 z "},"":{"ha":977,"x_min":65,"x_max":937,"o":"m 726 237 q 719 338 726 316 q 682 353 716 347 q 627 359 647 359 q 622 379 623 365 q 627 399 621 393 q 785 392 765 392 q 937 399 798 392 q 942 379 943 393 q 937 359 941 365 q 884 353 917 359 q 849 338 852 347 q 842 237 842 316 l 842 141 q 849 109 842 125 q 856 87 856 92 q 829 62 856 77 q 760 29 788 41 q 667 5 732 18 q 518 -8 601 -8 q 193 122 321 -8 q 65 437 65 252 q 196 768 65 631 q 524 905 327 905 q 811 876 680 905 q 842 675 842 689 q 833 664 844 670 q 812 658 823 658 q 796 662 803 658 q 530 860 758 860 q 293 739 387 860 q 199 465 199 617 q 222 309 199 384 q 286 172 244 233 q 397 73 328 110 q 552 37 467 37 q 716 80 629 37 q 726 100 726 84 l 726 237 m 517 -62 q 560 -75 541 -62 q 574 -130 574 -95 q 534 -237 574 -187 q 439 -311 495 -286 q 425 -302 431 -309 q 418 -290 418 -294 q 464 -254 439 -279 q 488 -201 488 -228 q 465 -172 488 -190 q 441 -122 441 -153 q 459 -84 441 -106 q 517 -62 477 -62 z "},"":{"ha":632,"x_min":31,"x_max":618,"o":"m 292 555 q 205 507 237 555 q 172 396 172 458 q 208 278 172 330 q 302 227 244 227 q 387 273 355 227 q 418 381 418 320 q 385 503 418 450 q 292 555 351 555 m 346 -5 q 220 -12 232 -5 q 138 -103 138 -58 q 187 -213 138 -171 q 320 -255 236 -255 q 458 -210 392 -255 q 525 -110 525 -164 q 479 -39 525 -73 q 346 -5 433 -5 m 408 91 q 554 48 490 91 q 618 -52 618 5 q 510 -223 618 -140 q 266 -308 401 -307 q 103 -265 175 -309 q 31 -142 31 -221 q 77 -65 31 -103 q 175 -1 123 -27 q 98 45 133 12 q 64 125 64 79 q 118 174 79 144 q 180 217 157 203 q 99 292 130 244 q 68 391 68 340 q 134 534 68 472 q 297 595 201 595 q 420 566 343 595 q 452 556 438 559 l 597 576 q 610 563 610 572 q 600 533 610 553 q 579 507 589 513 l 490 513 q 484 509 484 513 q 508 463 494 499 q 522 385 522 426 q 454 248 522 311 q 293 186 387 186 q 217 198 247 186 q 167 138 167 170 q 189 108 167 125 q 248 91 212 91 l 408 91 m 376 730 q 350 677 376 700 q 269 655 324 655 q 248 687 256 665 q 239 727 239 709 q 275 833 239 788 q 350 898 312 878 q 361 901 353 901 q 388 891 388 901 l 357 861 q 326 811 326 830 q 351 772 326 793 q 376 730 376 750 z "},"":{"ha":985,"x_min":61,"x_max":924,"o":"m 61 898 q 221 891 201 891 q 380 898 241 891 q 385 876 385 892 q 380 854 384 860 q 324 848 359 854 q 286 833 289 842 q 279 732 279 811 l 279 495 l 282 491 q 495 487 481 487 q 703 491 519 487 q 705 496 705 494 l 705 732 q 699 833 705 811 q 661 848 696 842 q 605 854 625 854 q 600 876 601 860 q 605 898 600 892 q 765 891 743 891 q 924 898 784 891 q 928 876 929 892 q 924 854 928 860 q 868 848 903 854 q 830 833 833 842 q 823 732 823 811 l 823 161 q 830 61 823 83 q 868 45 833 52 q 924 39 903 39 q 928 18 928 34 q 924 -4 929 1 q 765 3 784 3 q 605 -4 743 3 q 600 18 600 1 q 605 39 601 34 q 661 45 625 39 q 699 61 696 52 q 705 161 705 83 l 705 430 l 703 435 q 611 438 686 435 q 495 441 536 441 q 281 433 297 441 l 279 430 l 279 161 q 286 61 279 83 q 324 45 289 52 q 380 39 359 39 q 385 18 384 34 q 380 -4 385 1 q 221 3 241 3 q 61 -4 201 3 q 56 18 56 1 q 61 39 57 34 q 117 45 81 39 q 155 61 152 52 q 161 161 161 83 l 161 732 q 155 833 161 811 q 117 848 152 842 q 61 854 81 854 q 56 876 57 860 q 61 898 56 892 m 481 1154 q 498 1165 492 1165 q 514 1154 503 1165 q 583 1082 541 1124 q 652 1009 624 1040 q 639 986 652 986 l 498 1073 q 357 986 498 1073 q 347 994 351 986 q 342 1009 342 1002 q 404 1074 359 1028 q 481 1154 449 1119 z "},"":{"ha":700,"x_min":14,"x_max":685,"o":"m 418 594 q 557 529 522 594 q 593 307 593 464 l 593 157 q 600 57 593 79 q 634 41 602 47 q 685 35 666 35 q 690 16 689 30 q 685 -4 690 1 q 540 3 547 3 q 396 -4 536 3 q 391 16 391 1 q 396 35 392 30 q 447 41 415 35 q 481 57 479 47 q 488 157 488 79 l 488 293 q 461 468 488 420 q 355 515 434 515 q 274 484 321 515 q 227 441 227 453 l 227 157 q 233 57 227 79 q 268 41 236 47 q 319 35 300 35 q 323 16 323 30 q 319 -4 324 1 q 174 3 180 3 q 30 -4 170 3 q 25 16 24 1 q 30 35 26 30 q 81 41 49 35 q 115 57 113 47 q 122 157 122 79 l 122 757 q 115 827 122 811 q 33 852 104 852 q 31 861 31 852 q 31 878 30 869 q 34 887 31 887 q 227 941 127 897 q 237 934 232 941 q 241 920 241 926 q 227 802 227 876 l 227 495 q 231 492 227 492 q 235 495 232 492 q 318 559 262 525 q 418 594 374 594 m 153 1154 q 170 1165 164 1165 q 186 1154 175 1165 q 254 1082 213 1124 q 324 1009 296 1040 q 311 986 324 986 l 170 1073 q 28 986 170 1073 q 18 994 23 986 q 14 1009 14 1002 q 76 1074 31 1028 q 153 1154 121 1119 z "},"":{"ha":985,"x_min":56,"x_max":929,"o":"m 117 637 q 110 655 110 637 q 118 689 110 677 l 867 689 q 873 671 873 689 q 865 637 873 650 q 117 637 865 637 m 61 898 q 221 891 201 891 q 380 898 241 891 q 385 876 385 892 q 380 854 384 860 q 324 848 359 854 q 286 833 289 842 q 279 732 279 811 l 279 495 l 282 491 q 495 487 481 487 q 703 491 519 487 q 705 496 705 494 l 705 732 q 699 833 705 811 q 661 848 696 842 q 605 854 625 854 q 600 876 601 860 q 605 898 600 892 q 765 891 743 891 q 924 898 784 891 q 928 876 929 892 q 924 854 928 860 q 868 848 903 854 q 830 833 833 842 q 823 732 823 811 l 823 161 q 830 61 823 83 q 868 45 833 52 q 924 39 903 39 q 928 18 928 34 q 924 -4 929 1 q 765 3 784 3 q 605 -4 743 3 q 600 18 600 1 q 605 39 601 34 q 661 45 625 39 q 699 61 696 52 q 705 161 705 83 l 705 430 l 703 435 q 611 438 686 435 q 495 441 536 441 q 281 433 297 441 l 279 430 l 279 161 q 286 61 279 83 q 324 45 289 52 q 380 39 359 39 q 385 18 384 34 q 380 -4 385 1 q 221 3 241 3 q 61 -4 201 3 q 56 18 56 1 q 61 39 57 34 q 117 45 81 39 q 155 61 152 52 q 161 161 161 83 l 161 732 q 155 833 161 811 q 117 848 152 842 q 61 854 81 854 q 56 876 57 860 q 61 898 56 892 z "},"":{"ha":700,"x_min":23,"x_max":689,"o":"m 39 760 q 399 760 39 760 q 407 749 407 760 q 399 712 407 728 q 38 712 399 712 q 31 728 31 712 q 39 760 31 746 m 416 594 q 556 529 521 594 q 591 307 591 464 l 591 157 q 598 57 591 79 q 633 41 601 47 q 684 35 665 35 q 688 16 688 30 q 684 -4 689 1 q 538 3 545 3 q 395 -4 534 3 q 390 16 389 1 q 395 35 391 30 q 446 41 414 35 q 480 57 477 47 q 487 157 487 79 l 487 293 q 460 468 487 420 q 354 515 433 515 q 273 484 320 515 q 225 441 225 453 l 225 157 q 232 57 225 79 q 267 41 235 47 q 317 35 298 35 q 322 16 321 30 q 317 -4 323 1 q 172 3 179 3 q 28 -4 168 3 q 24 16 23 1 q 28 35 24 30 q 79 41 47 35 q 114 57 111 47 q 121 157 121 79 l 121 757 q 114 827 121 811 q 31 852 103 852 q 29 861 30 852 q 29 878 28 869 q 33 887 30 887 q 225 941 126 897 q 235 934 231 941 q 240 920 240 926 q 225 802 225 876 l 225 495 q 229 492 225 492 q 233 495 231 492 q 317 559 260 525 q 416 594 373 594 z "},"":{"ha":439,"x_min":45,"x_max":427,"o":"m 60 898 q 220 891 199 891 q 378 898 240 891 q 383 878 384 892 q 378 859 382 864 q 323 852 358 859 q 285 837 288 846 q 278 736 278 815 l 278 157 q 285 57 278 79 q 323 41 288 47 q 378 35 358 35 q 383 16 382 30 q 378 -4 384 1 q 220 3 240 3 q 60 -4 199 3 q 55 16 54 1 q 60 35 56 30 q 115 41 80 35 q 153 57 151 47 q 160 157 160 79 l 160 736 q 153 837 160 815 q 115 852 151 846 q 60 859 80 859 q 55 878 56 864 q 60 898 54 892 m 157 1100 q 248 1070 194 1100 q 331 1038 305 1038 q 374 1049 355 1038 q 406 1075 393 1061 q 419 1089 418 1089 q 427 1076 427 1089 q 408 1028 427 1053 q 315 978 366 978 q 224 1008 278 978 q 140 1040 167 1040 q 96 1029 115 1040 q 66 1003 77 1017 q 53 989 54 989 q 45 1004 45 989 q 64 1051 45 1027 q 157 1100 104 1100 z "},"":{"ha":366,"x_min":37,"x_max":382,"o":"m 256 441 l 256 157 q 263 57 256 79 q 298 41 266 47 q 349 35 330 35 q 353 16 353 30 q 349 -4 354 1 q 203 3 209 3 q 60 -4 198 3 q 55 16 54 1 q 60 35 56 30 q 111 41 79 35 q 145 57 142 47 q 152 157 152 79 l 152 410 q 145 480 152 464 q 57 505 136 505 q 54 521 54 507 q 57 540 53 534 q 251 597 172 556 q 261 589 256 597 q 266 575 266 581 q 256 486 256 509 l 256 441 m 137 798 q 220 766 168 798 q 298 734 271 734 q 336 745 320 734 q 363 771 353 757 q 374 787 373 785 q 382 774 382 787 q 363 723 382 751 q 279 673 327 673 q 198 703 247 673 q 118 736 144 736 q 81 725 96 736 q 58 699 66 713 q 47 684 50 685 q 37 699 37 684 q 53 749 37 724 q 137 798 90 798 z "},"":{"ha":439,"x_min":61,"x_max":403,"o":"m 62 898 q 222 891 202 891 q 381 898 243 891 q 386 878 387 892 q 381 859 385 864 q 326 852 361 859 q 288 837 290 846 q 281 736 281 815 l 281 157 q 288 57 281 79 q 326 41 290 47 q 381 35 361 35 q 386 16 385 30 q 381 -4 387 1 q 222 3 243 3 q 62 -4 202 3 q 58 16 57 1 q 62 35 58 30 q 118 41 83 35 q 156 57 153 47 q 163 157 163 79 l 163 736 q 156 837 163 815 q 118 852 153 846 q 62 859 83 859 q 58 878 58 864 q 62 898 57 892 m 395 1025 q 61 1025 395 1025 q 56 1053 52 1029 q 69 1082 60 1076 l 403 1082 q 407 1057 410 1077 q 395 1025 404 1036 z "},"":{"ha":366,"x_min":28,"x_max":349,"o":"m 256 441 l 256 157 q 263 57 256 79 q 298 41 266 47 q 349 35 330 35 q 353 16 353 30 q 349 -4 354 1 q 203 3 209 3 q 60 -4 198 3 q 55 16 54 1 q 60 35 56 30 q 111 41 79 35 q 145 57 142 47 q 152 157 152 79 l 152 410 q 145 480 152 464 q 57 505 136 505 q 54 521 54 507 q 57 540 53 534 q 251 597 172 556 q 261 589 256 597 q 266 575 266 581 q 256 486 256 509 l 256 441 m 332 712 q 28 712 332 712 q 23 739 19 716 q 37 769 27 762 l 340 769 q 345 743 347 764 q 332 712 342 723 z "},"":{"ha":439,"x_min":61,"x_max":380,"o":"m 61 898 q 221 891 201 891 q 380 898 241 891 q 385 878 385 892 q 380 859 384 864 q 324 852 359 859 q 286 837 289 846 q 279 736 279 815 l 279 157 q 286 57 279 79 q 324 41 289 47 q 380 35 359 35 q 385 16 384 30 q 380 -4 385 1 q 221 3 241 3 q 61 -4 201 3 q 56 16 56 1 q 61 35 57 30 q 117 41 81 35 q 155 57 152 47 q 161 157 161 79 l 161 736 q 155 837 161 815 q 117 852 152 846 q 61 859 81 859 q 56 878 57 864 q 61 898 56 892 m 346 1130 q 366 1122 355 1130 q 376 1107 376 1114 q 374 1099 376 1101 q 319 1015 361 1047 q 228 983 278 983 q 136 1015 178 983 q 81 1099 95 1047 q 80 1107 80 1101 q 90 1122 80 1114 q 110 1130 100 1130 q 228 1046 138 1046 q 346 1130 317 1046 z "},"":{"ha":366,"x_min":56,"x_max":358,"o":"m 255 441 l 255 157 q 262 57 255 79 q 296 41 264 47 q 347 35 328 35 q 352 16 351 30 q 347 -4 353 1 q 202 3 208 3 q 58 -4 197 3 q 54 16 53 1 q 58 35 54 30 q 109 41 77 35 q 144 57 141 47 q 151 157 151 79 l 151 410 q 144 480 151 464 q 56 505 134 505 q 52 521 53 507 q 56 540 52 534 q 250 597 171 556 q 260 589 255 597 q 264 575 264 581 q 255 486 255 509 l 255 441 m 136 764 q 152 750 136 764 q 210 736 168 736 q 285 764 252 736 q 328 834 317 791 q 334 838 328 838 q 349 832 340 838 q 358 821 358 826 l 358 817 q 357 810 357 811 q 306 714 347 754 q 210 674 264 674 q 115 713 156 674 q 64 811 73 753 q 62 817 64 812 l 62 821 q 71 832 62 826 q 87 838 80 838 q 92 834 92 838 q 136 764 103 791 z "},"":{"ha":445,"x_min":57,"x_max":385,"o":"m 225 891 q 382 898 247 891 q 385 878 385 890 q 380 859 385 859 q 331 849 366 859 q 293 830 296 840 q 281 704 281 783 l 281 189 q 293 62 281 110 q 331 44 296 53 q 380 35 366 35 q 385 15 385 35 q 382 -4 385 4 q 311 0 321 0 q 211 -79 256 -33 q 165 -165 165 -125 q 178 -205 165 -187 q 221 -224 190 -224 q 277 -211 252 -224 q 316 -185 302 -198 q 331 -172 330 -172 q 336 -190 336 -172 q 331 -214 336 -208 q 189 -304 263 -304 q 115 -270 138 -304 q 92 -199 92 -236 q 140 -94 92 -149 q 250 3 187 -39 l 225 3 q 62 -4 218 3 q 57 16 57 1 q 62 35 57 35 q 115 43 80 35 q 153 62 149 52 q 163 183 163 99 l 163 709 q 153 830 163 793 q 115 850 149 841 q 62 859 80 859 q 57 876 57 859 q 62 898 57 892 q 225 891 218 891 z "},"":{"ha":363,"x_min":38,"x_max":336,"o":"m 43 -4 q 38 18 38 1 q 43 35 38 35 q 92 44 60 35 q 126 62 123 53 q 136 157 136 102 l 136 414 q 117 487 136 467 q 83 509 103 503 q 51 515 64 515 q 38 518 38 515 q 46 552 38 551 q 233 587 190 574 l 236 589 q 240 589 239 589 q 247 577 245 589 q 247 560 248 566 q 240 463 240 506 l 240 183 q 251 62 240 104 q 286 44 254 53 q 332 35 319 35 q 338 19 336 35 q 336 -4 339 3 q 311 -3 330 -4 q 286 -1 293 -3 q 188 -81 232 -35 q 144 -165 144 -126 q 156 -205 144 -187 q 199 -224 168 -224 q 256 -211 231 -224 q 294 -185 281 -198 q 309 -172 308 -172 q 315 -190 315 -172 q 309 -214 315 -208 q 167 -304 241 -304 q 94 -270 117 -304 q 71 -199 71 -236 q 117 -95 71 -149 q 228 1 164 -41 q 210 2 222 1 q 191 3 198 3 q 43 -4 182 3 m 142 756 q 132 766 142 756 q 122 804 122 776 q 142 852 122 833 q 190 872 161 872 q 238 852 218 872 q 258 804 258 833 q 238 756 258 776 q 190 736 218 736 q 142 756 161 736 z "},"":{"ha":439,"x_min":61,"x_max":380,"o":"m 61 898 q 221 891 201 891 q 380 898 241 891 q 385 878 385 892 q 380 859 384 864 q 324 852 359 859 q 286 837 289 846 q 279 736 279 815 l 279 157 q 286 57 279 79 q 324 41 289 47 q 380 35 359 35 q 385 16 384 30 q 380 -4 385 1 q 221 3 241 3 q 61 -4 201 3 q 56 16 56 1 q 61 35 57 30 q 117 41 81 35 q 155 57 152 47 q 161 157 161 79 l 161 736 q 155 837 161 815 q 117 852 152 846 q 61 859 81 859 q 56 878 57 864 q 61 898 56 892 z "},"":{"ha":366,"x_min":42,"x_max":343,"o":"m 245 441 l 245 157 q 252 57 245 79 q 287 41 255 47 q 338 35 319 35 q 342 16 342 30 q 338 -4 343 1 q 193 3 198 3 q 49 -4 187 3 q 44 16 43 1 q 49 35 45 30 q 100 41 68 35 q 134 57 132 47 q 141 157 141 79 l 141 410 q 134 480 141 464 q 46 505 125 505 q 43 521 43 507 q 46 540 42 534 q 240 597 161 556 q 250 589 245 597 q 255 575 255 581 q 245 486 245 509 l 245 441 z "},"":{"ha":774,"x_min":60,"x_max":723,"o":"m 564 891 q 723 898 583 891 q 728 878 728 892 q 723 859 727 864 q 667 852 703 859 q 629 837 632 846 q 623 736 623 815 l 623 164 q 537 -193 623 -79 q 305 -308 452 -308 q 260 -300 289 -308 q 220 -283 232 -292 q 209 -252 209 -273 q 226 -198 209 -220 q 274 -176 243 -176 q 339 -216 297 -176 q 400 -244 370 -244 q 453 -214 431 -244 q 490 -92 475 -184 q 505 157 505 1 l 505 736 q 498 837 505 815 q 460 852 495 846 q 404 859 425 859 q 399 878 400 864 q 404 898 399 892 q 564 891 543 891 m 60 898 q 220 891 199 891 q 378 898 240 891 q 383 878 384 892 q 378 859 382 864 q 323 852 358 859 q 285 837 288 846 q 278 736 278 815 l 278 157 q 285 57 278 79 q 323 41 288 47 q 378 35 358 35 q 383 16 382 30 q 378 -4 384 1 q 220 3 240 3 q 60 -4 199 3 q 55 16 54 1 q 60 35 56 30 q 115 41 80 35 q 153 57 151 47 q 160 157 160 79 l 160 736 q 153 837 160 815 q 115 852 151 846 q 60 859 80 859 q 55 878 56 864 q 60 898 54 892 z "},"":{"ha":642,"x_min":46,"x_max":556,"o":"m 442 61 l 442 410 q 435 480 442 464 q 347 505 426 505 q 344 521 345 507 q 347 540 343 534 q 541 597 463 556 q 551 589 547 597 q 556 575 556 581 q 547 486 547 509 l 547 439 l 547 92 q 524 -75 547 0 q 463 -195 500 -149 q 388 -269 425 -241 q 312 -313 351 -297 q 294 -293 300 -305 q 294 -283 292 -286 q 369 -219 342 -250 q 419 -117 396 -189 q 442 61 442 -45 m 427 756 q 417 766 427 756 q 407 804 407 776 q 427 852 407 833 q 475 872 446 872 q 523 852 503 872 q 543 804 543 833 q 523 756 543 776 q 475 736 503 736 q 427 756 446 736 m 245 441 l 245 157 q 252 57 245 79 q 287 41 255 47 q 338 35 319 35 q 342 16 342 30 q 338 -4 343 1 q 193 3 198 3 q 49 -4 187 3 q 44 16 43 1 q 49 35 45 30 q 100 41 68 35 q 134 57 132 47 q 141 157 141 79 l 141 410 q 134 480 141 464 q 46 505 125 505 q 43 521 43 507 q 46 540 42 534 q 240 597 161 556 q 250 589 245 597 q 255 575 255 581 q 245 486 245 509 l 245 441 m 135 756 q 125 766 135 756 q 115 804 115 776 q 135 852 115 833 q 183 872 155 872 q 231 852 212 872 q 251 804 251 833 q 231 756 251 776 q 183 736 212 736 q 135 756 155 736 z "},"":{"ha":425,"x_min":-141,"x_max":376,"o":"m 214 891 q 373 898 233 891 q 378 878 378 892 q 373 859 377 864 q 317 852 353 859 q 279 837 282 846 q 273 736 273 815 l 273 164 q 187 -193 273 -79 q -45 -308 102 -308 q -90 -300 -61 -308 q -130 -283 -118 -292 q -141 -252 -141 -273 q -124 -198 -141 -220 q -76 -176 -107 -176 q -11 -216 -53 -176 q 50 -244 20 -244 q 103 -214 81 -244 q 140 -92 125 -184 q 155 157 155 1 l 155 736 q 148 837 155 815 q 110 852 145 846 q 54 859 75 859 q 50 878 50 864 q 54 898 49 892 q 214 891 193 891 m 205 1154 q 221 1165 216 1165 q 237 1154 227 1165 q 306 1082 264 1124 q 376 1009 347 1040 q 362 986 376 986 l 221 1073 q 80 986 221 1073 q 70 994 75 986 q 65 1009 65 1002 q 127 1074 83 1028 q 205 1154 172 1119 z "},"":{"ha":324,"x_min":-19,"x_max":324,"o":"m 129 61 l 129 410 q 122 480 129 464 q 34 505 113 505 q 31 521 31 507 q 34 540 30 534 q 228 597 149 556 q 238 589 233 597 q 243 575 243 581 q 233 486 233 509 l 233 439 l 233 92 q 210 -75 233 0 q 149 -195 187 -149 q 75 -269 111 -241 q -1 -313 38 -297 q -19 -293 -14 -305 q -19 -283 -22 -286 q 56 -219 28 -250 q 106 -117 83 -189 q 129 61 129 -45 m 167 864 q 182 876 174 876 q 197 864 190 876 q 324 685 236 800 q 319 673 324 678 q 309 667 315 667 l 182 770 q 54 667 102 705 q 44 673 49 667 q 39 685 39 678 q 167 864 127 800 z "},"":{"ha":891,"x_min":61,"x_max":895,"o":"m 61 898 q 221 891 201 891 q 380 898 241 891 q 385 876 385 892 q 380 854 384 860 q 324 848 359 854 q 286 833 289 842 q 279 732 279 811 l 279 463 q 433 600 315 484 q 605 784 559 724 q 624 826 624 810 q 548 856 624 856 q 548 898 540 872 q 704 890 699 890 q 789 894 739 890 q 850 898 838 898 q 852 874 853 892 q 848 856 852 856 l 837 854 q 817 853 826 854 q 793 848 808 852 q 766 840 779 845 q 739 827 753 836 q 713 806 724 818 q 629 717 673 761 q 560 648 586 673 q 479 570 534 623 q 400 494 425 518 q 400 483 396 488 q 453 421 407 475 q 509 355 499 368 q 557 300 519 343 q 610 241 594 258 q 654 193 625 224 q 704 140 682 161 q 747 98 726 118 q 895 35 808 42 q 898 14 899 28 q 894 -4 897 0 q 701 11 743 -4 q 609 69 648 30 q 304 412 572 106 q 292 416 301 416 q 279 414 285 416 l 279 161 q 286 61 279 83 q 324 45 289 52 q 380 39 359 39 q 385 18 384 34 q 380 -4 385 1 q 221 3 241 3 q 61 -4 201 3 q 56 18 56 1 q 61 39 57 34 q 117 45 81 39 q 155 61 152 52 q 161 161 161 83 l 161 732 q 155 833 161 811 q 117 848 152 842 q 61 854 81 854 q 56 876 57 860 q 61 898 56 892 m 487 -62 q 530 -75 511 -62 q 544 -130 544 -95 q 505 -237 544 -187 q 410 -311 465 -286 q 395 -302 401 -309 q 388 -290 388 -294 q 434 -254 410 -279 q 458 -201 458 -228 q 435 -172 458 -190 q 411 -122 411 -153 q 429 -84 411 -106 q 487 -62 448 -62 z "},"":{"ha":703,"x_min":28,"x_max":694,"o":"m 225 157 q 232 57 225 79 q 267 41 235 47 q 317 35 298 35 q 322 16 321 30 q 317 -4 323 1 q 172 3 179 3 q 28 -4 168 3 q 24 16 23 1 q 28 35 24 30 q 79 41 47 35 q 114 57 111 47 q 121 157 121 79 l 121 757 q 114 827 121 811 q 31 852 103 852 q 29 861 30 852 q 29 878 28 869 q 33 887 30 887 q 225 941 126 897 q 235 934 231 941 q 240 920 240 926 q 225 802 225 876 l 225 319 q 336 401 250 327 q 376 435 354 416 q 412 464 399 453 q 437 486 425 475 q 456 503 450 496 q 461 514 461 510 q 396 537 461 530 q 392 559 391 544 q 399 576 393 574 q 529 570 464 570 q 648 576 598 570 q 652 555 652 570 q 648 537 651 541 q 597 528 631 537 q 544 506 563 519 q 324 338 393 397 q 421 230 362 296 q 517 124 480 164 q 568 72 553 84 q 693 35 617 33 q 696 20 696 31 q 694 3 697 8 q 606 -5 675 -5 q 505 14 552 -5 q 439 54 458 34 q 245 264 323 180 l 225 277 l 225 157 m 355 -62 q 399 -75 380 -62 q 412 -130 412 -95 q 373 -237 412 -187 q 278 -311 334 -286 q 263 -302 270 -309 q 256 -290 256 -294 q 302 -254 278 -279 q 327 -201 327 -228 q 303 -172 327 -190 q 279 -122 279 -153 q 298 -84 279 -106 q 355 -62 316 -62 z "},"":{"ha":723,"x_min":42,"x_max":718,"o":"m 245 486 l 245 319 q 357 401 270 327 q 397 435 374 416 q 432 464 419 453 q 458 486 445 475 q 476 503 471 496 q 481 514 481 510 q 416 537 481 530 q 412 559 411 544 q 419 576 414 574 q 549 570 484 570 q 669 576 618 570 q 672 555 673 570 q 669 537 671 541 q 617 528 651 537 q 564 506 583 519 q 345 338 414 397 q 441 230 382 296 q 537 124 500 164 q 589 72 574 84 q 713 35 637 33 q 717 20 716 31 q 715 3 718 8 q 627 -5 696 -5 q 526 14 572 -5 q 460 54 479 34 q 266 264 343 180 l 245 277 l 245 157 q 252 57 245 79 q 287 41 255 47 q 338 35 319 35 q 342 16 342 30 q 338 -4 343 1 q 193 3 198 3 q 49 -4 187 3 q 44 16 43 1 q 49 35 45 30 q 100 41 68 35 q 134 57 132 47 q 141 157 141 79 l 141 410 q 134 480 141 464 q 46 505 125 505 q 43 521 43 507 q 46 540 42 534 q 240 597 161 556 q 250 589 245 597 q 255 575 255 581 q 245 486 245 509 z "},"":{"ha":765,"x_min":61,"x_max":758,"o":"m 279 157 q 288 60 279 66 q 384 46 305 46 l 461 46 q 620 83 566 46 q 705 220 675 121 q 724 228 708 228 q 758 220 750 228 q 737 163 751 202 q 715 101 723 125 q 697 46 707 77 q 685 -5 688 15 q 467 -3 616 -5 q 222 0 317 0 q 138 -2 190 0 q 61 -4 87 -4 q 56 16 56 1 q 61 35 57 30 q 117 41 81 35 q 155 57 152 47 q 161 157 161 79 l 161 736 q 155 837 161 815 q 117 852 152 846 q 61 859 81 859 q 56 878 57 864 q 61 898 56 892 q 221 891 201 891 q 380 898 241 891 q 385 878 385 892 q 380 859 384 864 q 324 852 359 859 q 286 837 289 846 q 279 736 279 815 l 279 157 m 182 1000 q 247 1073 182 1008 q 346 1164 312 1138 q 370 1168 354 1168 q 433 1127 433 1168 q 324 1042 433 1096 q 190 987 216 987 q 182 1000 182 987 z "},"":{"ha":346,"x_min":28,"x_max":350,"o":"m 121 757 q 114 827 121 811 q 31 852 103 852 q 29 861 30 852 q 29 878 28 869 q 33 887 30 887 q 225 941 126 897 q 235 934 231 941 q 240 920 240 926 q 225 802 225 876 l 225 157 q 232 57 225 79 q 267 41 235 47 q 317 35 298 35 q 322 16 321 30 q 317 -4 323 1 q 172 3 179 3 q 28 -4 168 3 q 24 16 23 1 q 28 35 24 30 q 79 41 47 35 q 114 57 111 47 q 121 157 121 79 l 121 757 m 99 1000 q 164 1073 99 1008 q 263 1164 229 1138 q 288 1168 271 1168 q 350 1127 350 1168 q 241 1042 350 1096 q 107 987 133 987 q 99 1000 99 987 z "},"":{"ha":765,"x_min":61,"x_max":758,"o":"m 279 157 q 288 60 279 66 q 384 46 305 46 l 461 46 q 620 83 566 46 q 705 220 675 121 q 724 228 708 228 q 758 220 750 228 q 737 163 751 202 q 715 101 723 125 q 697 46 707 77 q 685 -5 688 15 q 467 -3 616 -5 q 222 0 317 0 q 138 -2 190 0 q 61 -4 87 -4 q 56 16 56 1 q 61 35 57 30 q 117 41 81 35 q 155 57 152 47 q 161 157 161 79 l 161 736 q 155 837 161 815 q 117 852 152 846 q 61 859 81 859 q 56 878 57 864 q 61 898 56 892 q 221 891 201 891 q 380 898 241 891 q 385 878 385 892 q 380 859 384 864 q 324 852 359 859 q 286 837 289 846 q 279 736 279 815 l 279 157 m 437 -62 q 480 -75 461 -62 q 494 -130 494 -95 q 454 -237 494 -187 q 359 -311 415 -286 q 345 -302 351 -309 q 338 -290 338 -294 q 384 -254 359 -279 q 408 -201 408 -228 q 385 -172 408 -190 q 361 -122 361 -153 q 379 -84 361 -106 q 437 -62 397 -62 z "},"":{"ha":346,"x_min":27,"x_max":316,"o":"m 119 757 q 113 827 119 811 q 30 852 102 852 q 28 861 28 852 q 28 878 27 869 q 31 887 28 887 q 224 941 125 897 q 234 934 229 941 q 239 920 239 926 q 224 802 224 876 l 224 157 q 231 57 224 79 q 265 41 233 47 q 316 35 297 35 q 321 16 320 30 q 316 -4 321 1 q 171 3 178 3 q 27 -4 167 3 q 22 16 22 1 q 27 35 23 30 q 78 41 46 35 q 113 57 110 47 q 119 157 119 79 l 119 757 m 183 -62 q 227 -75 208 -62 q 240 -130 240 -95 q 201 -237 240 -187 q 106 -311 161 -286 q 91 -302 98 -309 q 84 -290 84 -294 q 130 -254 106 -279 q 155 -201 155 -228 q 131 -172 155 -190 q 107 -122 107 -153 q 125 -84 107 -106 q 183 -62 144 -62 z "},"":{"ha":789,"x_min":61,"x_max":758,"o":"m 279 157 q 288 60 279 66 q 384 46 305 46 l 461 46 q 620 83 566 46 q 705 220 675 121 q 724 228 708 228 q 758 220 750 228 q 737 163 751 202 q 715 101 723 125 q 697 46 707 77 q 685 -5 688 15 q 467 -3 616 -5 q 222 0 317 0 q 138 -2 190 0 q 61 -4 87 -4 q 56 16 56 1 q 61 35 57 30 q 117 41 81 35 q 155 57 152 47 q 161 157 161 79 l 161 736 q 155 837 161 815 q 117 852 152 846 q 61 859 81 859 q 56 878 57 864 q 61 898 56 892 q 221 891 201 891 q 380 898 241 891 q 385 878 385 892 q 380 859 384 864 q 324 852 359 859 q 286 837 289 846 q 279 736 279 815 l 279 157 m 693 905 q 723 897 707 905 q 742 821 742 865 q 647 616 742 720 q 631 621 640 616 q 621 631 621 625 q 663 741 663 685 q 644 801 663 774 q 625 848 625 827 q 644 886 625 868 q 693 905 663 905 z "},"":{"ha":370,"x_min":28,"x_max":454,"o":"m 121 757 q 114 827 121 811 q 31 852 103 852 q 29 861 30 852 q 29 878 28 869 q 33 887 30 887 q 225 941 126 897 q 235 934 231 941 q 240 920 240 926 q 225 802 225 876 l 225 157 q 232 57 225 79 q 267 41 235 47 q 317 35 298 35 q 322 16 321 30 q 317 -4 323 1 q 172 3 179 3 q 28 -4 168 3 q 24 16 23 1 q 28 35 24 30 q 79 41 47 35 q 114 57 111 47 q 121 157 121 79 l 121 757 m 406 941 q 435 933 419 941 q 454 857 454 902 q 359 652 454 757 q 343 657 353 652 q 334 667 334 662 q 376 777 376 722 q 357 838 376 811 q 338 884 338 864 q 357 923 338 905 q 406 941 376 941 z "},"":{"ha":765,"x_min":61,"x_max":758,"o":"m 279 157 q 288 60 279 66 q 384 46 305 46 l 461 46 q 620 83 566 46 q 705 220 675 121 q 724 228 708 228 q 758 220 750 228 q 737 163 751 202 q 715 101 723 125 q 697 46 707 77 q 685 -5 688 15 q 467 -3 616 -5 q 222 0 317 0 q 138 -2 190 0 q 61 -4 87 -4 q 56 16 56 1 q 61 35 57 30 q 117 41 81 35 q 155 57 152 47 q 161 157 161 79 l 161 736 q 155 837 161 815 q 117 852 152 846 q 61 859 81 859 q 56 878 57 864 q 61 898 56 892 q 221 891 201 891 q 380 898 241 891 q 385 878 385 892 q 380 859 384 864 q 324 852 359 859 q 286 837 289 846 q 279 736 279 815 l 279 157 m 558 378 q 548 388 558 378 q 538 426 538 397 q 558 474 538 454 q 606 494 578 494 q 654 474 635 494 q 674 426 674 454 q 654 378 674 397 q 606 358 635 358 q 558 378 578 358 z "},"":{"ha":524,"x_min":28,"x_max":500,"o":"m 121 757 q 114 827 121 811 q 31 852 103 852 q 29 861 30 852 q 29 878 28 869 q 33 887 30 887 q 225 941 126 897 q 235 934 231 941 q 240 920 240 926 q 225 802 225 876 l 225 157 q 232 57 225 79 q 267 41 235 47 q 317 35 298 35 q 322 16 321 30 q 317 -4 323 1 q 172 3 179 3 q 28 -4 168 3 q 24 16 23 1 q 28 35 24 30 q 79 41 47 35 q 114 57 111 47 q 121 157 121 79 l 121 757 m 385 351 q 375 360 385 351 q 365 399 365 370 q 385 447 365 427 q 433 467 404 467 q 481 447 461 467 q 500 399 500 427 q 481 351 500 370 q 433 331 461 331 q 385 351 404 331 z "},"":{"ha":765,"x_min":46,"x_max":758,"o":"m 521 606 q 538 583 528 600 q 545 564 549 567 l 69 241 q 52 264 61 250 q 46 281 42 278 l 521 606 m 279 157 q 288 60 279 66 q 384 46 305 46 l 461 46 q 620 83 566 46 q 705 220 675 121 q 724 228 708 228 q 758 220 750 228 q 737 163 751 202 q 715 101 723 125 q 697 46 707 77 q 685 -5 688 15 q 467 -3 616 -5 q 222 0 317 0 q 138 -2 190 0 q 61 -4 87 -4 q 56 16 56 1 q 61 35 57 30 q 117 41 81 35 q 155 57 152 47 q 161 157 161 79 l 161 736 q 155 837 161 815 q 117 852 152 846 q 61 859 81 859 q 56 878 57 864 q 61 898 56 892 q 221 891 201 891 q 380 898 241 891 q 385 878 385 892 q 380 859 384 864 q 324 852 359 859 q 286 837 289 846 q 279 736 279 815 l 279 157 z "},"":{"ha":346,"x_min":23,"x_max":323,"o":"m 47 353 q 27 391 19 382 l 294 574 q 316 537 323 545 l 47 353 m 121 757 q 114 827 121 811 q 31 852 103 852 q 29 861 30 852 q 29 878 28 869 q 33 887 30 887 q 225 941 126 897 q 235 934 231 941 q 240 920 240 926 q 225 802 225 876 l 225 157 q 232 57 225 79 q 267 41 235 47 q 317 35 298 35 q 322 16 321 30 q 317 -4 323 1 q 172 3 179 3 q 28 -4 168 3 q 24 16 23 1 q 28 35 24 30 q 79 41 47 35 q 114 57 111 47 q 121 157 121 79 l 121 757 z "},"":{"ha":1053,"x_min":56,"x_max":1010,"o":"m 194 895 q 297 898 259 895 q 541 589 331 845 q 829 225 751 332 l 829 304 l 829 739 q 815 833 829 811 q 771 851 810 842 q 712 860 732 860 q 709 899 701 875 q 865 892 845 892 q 914 894 892 892 q 962 897 936 895 q 1010 899 987 898 q 1010 860 1020 882 q 951 852 991 860 q 905 833 911 844 q 891 741 891 810 l 891 189 q 894 1 891 72 q 876 -7 892 -7 q 829 24 853 -7 l 237 772 l 237 156 q 251 62 237 84 q 294 44 256 53 q 353 35 332 35 q 355 -4 363 20 q 201 3 220 3 q 152 1 174 3 q 104 -1 130 0 q 56 -4 79 -3 q 56 35 46 14 q 115 43 75 35 q 161 62 155 52 q 175 155 175 85 l 175 743 q 161 836 175 812 q 115 854 155 846 q 56 863 75 863 q 56 902 46 884 q 123 898 77 901 q 194 895 168 895 m 418 1000 q 483 1073 418 1008 q 582 1164 548 1138 q 606 1168 590 1168 q 669 1127 669 1168 q 560 1042 669 1096 q 426 987 452 987 q 418 1000 418 987 z "},"":{"ha":722,"x_min":46,"x_max":704,"o":"m 437 594 q 576 529 541 594 q 612 307 612 464 l 612 157 q 618 57 612 79 q 653 41 621 47 q 704 35 685 35 q 709 16 708 30 q 704 -4 709 1 q 559 3 564 3 q 415 -4 553 3 q 410 16 410 1 q 415 35 411 30 q 466 41 434 35 q 500 57 498 47 q 507 157 507 79 l 507 293 q 480 468 507 420 q 374 515 453 515 q 293 484 340 515 q 245 441 245 453 l 245 157 q 252 57 245 79 q 287 41 255 47 q 338 35 319 35 q 342 16 342 30 q 338 -4 343 1 q 193 3 198 3 q 49 -4 187 3 q 44 16 43 1 q 49 35 45 30 q 100 41 68 35 q 134 57 132 47 q 141 157 141 79 l 141 404 q 134 480 141 464 q 46 505 125 505 q 43 521 43 507 q 46 540 42 534 q 240 597 161 556 q 250 589 245 597 q 255 575 255 581 q 247 498 247 518 q 250 492 247 492 q 254 495 251 492 q 337 559 281 525 q 437 594 393 594 m 494 890 q 543 850 543 890 q 448 747 543 822 q 338 673 353 673 q 326 690 326 673 q 375 767 326 696 q 457 879 425 838 q 494 890 468 890 z "},"":{"ha":1053,"x_min":56,"x_max":1010,"o":"m 194 895 q 297 898 259 895 q 541 589 331 845 q 829 225 751 332 l 829 304 l 829 739 q 815 833 829 811 q 771 851 810 842 q 712 860 732 860 q 709 899 701 875 q 865 892 845 892 q 914 894 892 892 q 962 897 936 895 q 1010 899 987 898 q 1010 860 1020 882 q 951 852 991 860 q 905 833 911 844 q 891 741 891 810 l 891 189 q 894 1 891 72 q 876 -7 892 -7 q 829 24 853 -7 l 237 772 l 237 156 q 251 62 237 84 q 294 44 256 53 q 353 35 332 35 q 355 -4 363 20 q 201 3 220 3 q 152 1 174 3 q 104 -1 130 0 q 56 -4 79 -3 q 56 35 46 14 q 115 43 75 35 q 161 62 155 52 q 175 155 175 85 l 175 743 q 161 836 175 812 q 115 854 155 846 q 56 863 75 863 q 56 902 46 884 q 123 898 77 901 q 194 895 168 895 m 530 -62 q 574 -75 555 -62 q 587 -130 587 -95 q 548 -237 587 -187 q 453 -311 509 -286 q 438 -302 445 -309 q 431 -290 431 -294 q 477 -254 453 -279 q 502 -201 502 -228 q 478 -172 502 -190 q 454 -122 454 -153 q 473 -84 454 -106 q 530 -62 491 -62 z "},"":{"ha":722,"x_min":45,"x_max":703,"o":"m 435 594 q 575 529 540 594 q 610 307 610 464 l 610 157 q 617 57 610 79 q 652 41 620 47 q 703 35 684 35 q 707 16 707 30 q 703 -4 708 1 q 557 3 563 3 q 414 -4 552 3 q 409 16 408 1 q 414 35 410 30 q 465 41 433 35 q 499 57 496 47 q 506 157 506 79 l 506 293 q 479 468 506 420 q 373 515 452 515 q 292 484 339 515 q 244 441 244 453 l 244 157 q 251 57 244 79 q 286 41 254 47 q 336 35 317 35 q 341 16 340 30 q 336 -4 342 1 q 191 3 197 3 q 47 -4 186 3 q 43 16 42 1 q 47 35 43 30 q 98 41 66 35 q 133 57 130 47 q 140 157 140 79 l 140 404 q 133 480 140 464 q 45 505 123 505 q 41 521 42 507 q 45 540 41 534 q 239 597 160 556 q 249 589 244 597 q 254 575 254 581 q 245 498 245 518 q 248 492 245 492 q 252 495 250 492 q 336 559 279 525 q 435 594 392 594 m 377 -62 q 420 -75 401 -62 q 434 -130 434 -95 q 395 -237 434 -187 q 300 -311 355 -286 q 285 -302 292 -309 q 278 -290 278 -294 q 324 -254 300 -279 q 349 -201 349 -228 q 325 -172 349 -190 q 301 -122 301 -153 q 319 -84 301 -106 q 377 -62 338 -62 z "},"":{"ha":1053,"x_min":56,"x_max":1010,"o":"m 528 997 q 511 986 517 986 q 495 997 506 986 q 427 1069 468 1027 q 357 1142 385 1111 q 370 1165 357 1165 l 511 1078 q 652 1165 511 1078 q 663 1157 658 1165 q 667 1142 667 1149 q 605 1078 650 1123 q 528 997 560 1032 m 194 895 q 297 898 259 895 q 541 589 331 845 q 829 225 751 332 l 829 304 l 829 739 q 815 833 829 811 q 771 851 810 842 q 712 860 732 860 q 709 899 701 875 q 865 892 845 892 q 914 894 892 892 q 962 897 936 895 q 1010 899 987 898 q 1010 860 1020 882 q 951 852 991 860 q 905 833 911 844 q 891 741 891 810 l 891 189 q 894 1 891 72 q 876 -7 892 -7 q 829 24 853 -7 l 237 772 l 237 156 q 251 62 237 84 q 294 44 256 53 q 353 35 332 35 q 355 -4 363 20 q 201 3 220 3 q 152 1 174 3 q 104 -1 130 0 q 56 -4 79 -3 q 56 35 46 14 q 115 43 75 35 q 161 62 155 52 q 175 155 175 85 l 175 743 q 161 836 175 812 q 115 854 155 846 q 56 863 75 863 q 56 902 46 884 q 123 898 77 901 q 194 895 168 895 z "},"":{"ha":722,"x_min":46,"x_max":704,"o":"m 437 594 q 576 529 541 594 q 612 307 612 464 l 612 157 q 618 57 612 79 q 653 41 621 47 q 704 35 685 35 q 709 16 708 30 q 704 -4 709 1 q 559 3 564 3 q 415 -4 553 3 q 410 16 410 1 q 415 35 411 30 q 466 41 434 35 q 500 57 498 47 q 507 157 507 79 l 507 293 q 480 468 507 420 q 374 515 453 515 q 293 484 340 515 q 245 441 245 453 l 245 157 q 252 57 245 79 q 287 41 255 47 q 338 35 319 35 q 342 16 342 30 q 338 -4 343 1 q 193 3 198 3 q 49 -4 187 3 q 44 16 43 1 q 49 35 45 30 q 100 41 68 35 q 134 57 132 47 q 141 157 141 79 l 141 404 q 134 480 141 464 q 46 505 125 505 q 43 521 43 507 q 46 540 42 534 q 240 597 161 556 q 250 589 245 597 q 255 575 255 581 q 247 498 247 518 q 250 492 247 492 q 254 495 251 492 q 337 559 281 525 q 437 594 393 594 m 403 689 q 388 677 396 677 q 373 689 380 677 q 245 868 334 753 q 250 880 245 875 q 260 886 255 886 l 388 773 q 515 886 463 840 q 526 880 521 886 q 530 868 530 875 q 403 689 442 753 z "},"":{"ha":722,"x_min":-66,"x_max":707,"o":"m 439 594 q 579 529 544 594 q 614 307 614 464 l 614 157 q 621 57 614 79 q 656 41 624 47 q 707 35 688 35 q 711 16 711 30 q 707 -4 712 1 q 562 3 567 3 q 418 -4 556 3 q 413 16 412 1 q 418 35 414 30 q 469 41 437 35 q 503 57 500 47 q 510 157 510 79 l 510 293 q 483 468 510 420 q 377 515 456 515 q 296 484 343 515 q 248 441 248 453 l 248 157 q 255 57 248 79 q 290 41 258 47 q 340 35 321 35 q 345 16 345 30 q 340 -4 346 1 q 195 3 201 3 q 52 -4 190 3 q 47 16 46 1 q 52 35 47 30 q 102 41 71 35 q 137 57 134 47 q 144 157 144 79 l 144 404 q 137 480 144 464 q 49 505 127 505 q 45 521 46 507 q 49 540 45 534 q 243 597 164 556 q 253 589 248 597 q 258 575 258 581 q 250 498 250 518 q 252 492 250 492 q 256 495 254 492 q 340 559 283 525 q 439 594 396 594 m 5 914 q 35 906 19 914 q 54 830 54 875 q -41 625 54 730 q -57 630 -47 625 q -66 640 -66 635 q -24 750 -24 694 q -43 810 -24 784 q -62 857 -62 837 q -43 896 -62 878 q 5 914 -24 914 z "},"":{"ha":1053,"x_min":56,"x_max":1010,"o":"m 807 52 l 237 772 l 237 156 q 251 62 237 84 q 294 44 256 53 q 353 35 332 35 q 355 -4 363 20 q 201 3 220 3 q 152 1 174 3 q 104 -1 130 0 q 56 -4 79 -3 q 56 35 46 14 q 115 43 75 35 q 161 62 155 52 q 175 155 175 85 l 175 743 q 161 836 175 812 q 115 854 155 846 q 56 863 75 863 q 56 902 46 884 q 123 898 77 901 q 194 895 168 895 q 297 898 259 895 q 541 589 331 845 q 829 225 751 332 l 829 304 l 829 739 q 815 833 829 811 q 771 851 810 842 q 712 860 732 860 q 709 899 701 875 q 865 892 845 892 q 914 894 892 892 q 962 897 936 895 q 1010 899 987 898 q 1010 860 1020 882 q 951 852 991 860 q 905 833 911 844 q 891 741 891 810 l 891 164 q 806 -193 891 -79 q 574 -308 720 -308 q 529 -300 557 -308 q 488 -283 500 -292 q 477 -252 477 -273 q 494 -198 477 -220 q 543 -176 511 -176 q 608 -216 566 -176 q 669 -244 639 -244 q 724 -222 697 -244 q 774 -130 750 -199 q 807 52 799 -60 z "},"":{"ha":707,"x_min":42,"x_max":612,"o":"m 507 62 l 507 293 q 480 468 507 420 q 374 515 453 515 q 293 484 340 515 q 245 441 245 453 l 245 157 q 252 57 245 79 q 287 41 255 47 q 338 35 319 35 q 342 16 342 30 q 338 -4 343 1 q 193 3 198 3 q 49 -4 187 3 q 44 16 43 1 q 49 35 45 30 q 100 41 68 35 q 134 57 132 47 q 141 157 141 79 l 141 410 q 134 480 141 464 q 46 505 125 505 q 43 521 43 507 q 46 540 42 534 q 240 597 161 556 q 250 589 245 597 q 255 575 255 581 q 247 498 247 518 q 250 492 247 492 q 254 495 251 492 q 337 559 281 525 q 437 594 393 594 q 576 529 541 594 q 612 307 612 464 l 612 92 q 589 -75 612 0 q 528 -195 566 -149 q 453 -269 490 -241 q 377 -313 416 -297 q 359 -293 365 -305 q 359 -283 357 -286 q 416 -236 395 -258 q 461 -176 438 -214 q 496 -78 484 -137 q 507 62 507 -19 z "},"":{"ha":1015,"x_min":66,"x_max":948,"o":"m 486 859 q 355 825 412 859 q 266 734 298 791 q 217 612 233 678 q 201 475 201 545 q 237 267 201 366 q 351 100 274 168 q 528 33 427 33 q 658 66 601 33 q 747 157 715 100 q 797 281 780 214 q 814 419 814 347 q 777 626 814 528 q 663 791 739 724 q 486 859 586 859 m 506 905 q 819 774 689 905 q 948 445 948 644 q 817 121 948 256 q 506 -14 686 -14 q 195 117 324 -14 q 66 445 66 247 q 197 770 66 635 q 506 905 327 905 m 671 1025 q 338 1025 671 1025 q 332 1053 328 1029 q 346 1082 336 1076 l 680 1082 q 684 1057 686 1077 q 671 1025 681 1036 z "},"":{"ha":690,"x_min":56,"x_max":635,"o":"m 330 551 q 211 483 250 551 q 172 316 172 415 q 224 121 172 208 q 361 35 275 35 q 479 103 441 35 q 518 269 518 171 q 467 463 518 376 q 330 551 415 551 m 345 595 q 555 512 476 595 q 635 300 635 429 q 553 79 635 168 q 347 -9 471 -9 q 136 75 216 -9 q 56 289 56 159 q 138 508 56 420 q 345 595 221 595 m 500 712 q 197 712 500 712 q 191 739 187 716 q 205 769 195 762 l 509 769 q 513 743 515 764 q 500 712 510 723 z "},"":{"ha":1015,"x_min":66,"x_max":948,"o":"m 486 859 q 355 825 412 859 q 266 734 298 791 q 217 612 233 678 q 201 475 201 545 q 237 267 201 366 q 351 100 274 168 q 528 33 427 33 q 658 66 601 33 q 747 157 715 100 q 797 281 780 214 q 814 419 814 347 q 777 626 814 528 q 663 791 739 724 q 486 859 586 859 m 506 905 q 819 774 689 905 q 948 445 948 644 q 817 121 948 256 q 506 -14 686 -14 q 195 117 324 -14 q 66 445 66 247 q 197 770 66 635 q 506 905 327 905 m 624 1130 q 644 1122 633 1130 q 654 1107 654 1114 q 652 1099 654 1101 q 597 1015 639 1047 q 506 983 556 983 q 414 1015 456 983 q 359 1099 373 1047 q 358 1107 358 1101 q 368 1122 358 1114 q 388 1130 378 1130 q 506 1046 416 1046 q 624 1130 595 1046 z "},"":{"ha":690,"x_min":56,"x_max":635,"o":"m 330 551 q 211 483 250 551 q 172 316 172 415 q 224 121 172 208 q 361 35 275 35 q 479 103 441 35 q 518 269 518 171 q 467 463 518 376 q 330 551 415 551 m 345 595 q 555 512 476 595 q 635 300 635 429 q 553 79 635 168 q 347 -9 471 -9 q 136 75 216 -9 q 56 289 56 159 q 138 508 56 420 q 345 595 221 595 m 267 764 q 283 750 267 764 q 342 736 300 736 q 416 764 384 736 q 460 834 449 791 q 465 838 460 838 q 481 832 472 838 q 490 821 490 826 l 490 817 q 488 810 488 811 q 437 714 479 754 q 342 674 396 674 q 246 713 288 674 q 195 811 205 753 q 194 817 195 812 l 194 821 q 203 832 194 826 q 218 838 212 838 q 224 834 224 838 q 267 764 235 791 z "},"":{"ha":1015,"x_min":66,"x_max":948,"o":"m 486 859 q 355 825 412 859 q 266 734 298 791 q 217 612 233 678 q 201 475 201 545 q 237 267 201 366 q 351 100 274 168 q 528 33 427 33 q 658 66 601 33 q 747 157 715 100 q 797 281 780 214 q 814 419 814 347 q 777 626 814 528 q 663 791 739 724 q 486 859 586 859 m 506 905 q 819 774 689 905 q 948 445 948 644 q 817 121 948 256 q 506 -14 686 -14 q 195 117 324 -14 q 66 445 66 247 q 197 770 66 635 q 506 905 327 905 z "},"":{"ha":690,"x_min":56,"x_max":635,"o":"m 330 551 q 211 483 250 551 q 172 316 172 415 q 224 121 172 208 q 361 35 275 35 q 479 103 441 35 q 518 269 518 171 q 467 463 518 376 q 330 551 415 551 m 345 595 q 555 512 476 595 q 635 300 635 429 q 553 79 635 168 q 347 -9 471 -9 q 136 75 216 -9 q 56 289 56 159 q 138 508 56 420 q 345 595 221 595 m 397 887 q 446 848 446 887 q 351 745 446 819 q 241 670 256 670 q 229 688 229 670 q 279 764 229 693 q 361 876 328 836 q 397 887 372 887 m 566 887 q 614 848 614 887 q 519 745 614 819 q 410 670 425 670 q 397 688 397 670 q 447 764 397 693 q 529 876 496 836 q 566 887 540 887 z "},"":{"ha":1379,"x_min":66,"x_max":1341,"o":"m 806 0 q 646 -4 705 0 q 492 -9 564 -9 q 190 123 313 -9 q 66 445 66 255 q 196 769 66 633 q 499 905 326 905 q 629 897 506 905 q 804 891 753 890 q 1015 896 865 891 q 1241 901 1165 901 q 1262 797 1246 861 q 1280 716 1278 732 q 1256 709 1274 709 q 1237 719 1238 709 q 1179 821 1217 795 q 1080 846 1141 846 l 963 846 q 869 831 873 846 q 863 735 863 810 l 863 481 q 921 473 863 473 l 993 473 q 1104 486 1084 473 q 1139 559 1124 499 q 1142 571 1141 567 q 1162 581 1143 581 q 1185 574 1179 581 l 1185 317 q 1164 312 1180 312 q 1142 323 1146 312 q 1126 379 1133 361 q 1115 402 1119 397 q 1104 412 1111 407 q 960 423 1086 423 q 863 411 863 423 l 863 153 q 871 60 863 66 q 967 46 888 46 l 1032 46 q 1203 83 1143 46 q 1289 220 1248 109 q 1308 228 1291 228 q 1341 220 1333 228 q 1320 163 1335 202 q 1298 101 1306 125 q 1280 46 1290 77 q 1268 -5 1271 15 q 1050 -3 1199 -5 q 806 0 901 0 m 484 859 q 324 799 391 859 q 229 655 258 739 q 201 475 201 571 q 237 267 201 366 q 350 100 274 168 q 526 33 426 33 q 712 85 677 33 q 734 136 727 109 q 743 186 742 164 q 745 254 745 208 l 745 671 q 697 804 745 755 q 616 848 666 837 q 484 859 566 859 z "},"":{"ha":1055,"x_min":56,"x_max":1004,"o":"m 770 545 q 685 506 720 545 q 637 427 650 467 q 629 387 625 387 l 850 387 q 882 418 880 387 q 854 499 883 453 q 770 545 825 545 m 330 551 q 211 483 250 551 q 172 316 172 415 q 224 121 172 208 q 361 35 275 35 q 479 103 441 35 q 518 269 518 171 q 467 463 518 376 q 330 551 415 551 m 844 76 q 932 100 892 76 q 993 148 971 123 q 996 146 994 148 q 1001 139 998 144 q 1004 129 1004 134 q 996 104 1004 118 q 919 26 970 62 q 798 -11 868 -11 q 574 106 651 -11 q 347 -9 490 -9 q 136 75 216 -9 q 56 289 56 159 q 138 508 56 420 q 345 595 221 595 q 590 469 510 595 q 686 561 631 528 q 793 594 741 594 q 893 574 850 594 q 957 522 936 553 q 987 462 978 490 q 997 410 997 434 q 964 346 997 347 q 623 336 876 343 q 689 138 623 201 q 844 76 755 76 z "},"":{"ha":842,"x_min":61,"x_max":876,"o":"m 414 894 q 603 831 517 894 q 689 659 689 768 q 633 524 689 589 q 505 435 576 460 q 723 117 595 286 q 787 58 753 77 q 876 35 822 39 q 879 14 880 28 q 875 -4 878 0 q 696 12 742 -4 q 608 72 637 33 q 392 393 545 156 q 351 410 381 410 l 279 410 l 279 157 q 286 57 279 79 q 324 41 289 47 q 380 35 359 35 q 385 16 384 30 q 380 -4 385 1 q 221 3 241 3 q 61 -4 201 3 q 56 16 56 1 q 61 35 57 30 q 117 41 81 35 q 155 57 152 47 q 161 157 161 79 l 161 736 q 155 837 161 815 q 117 852 152 846 q 61 859 81 859 q 56 878 57 864 q 61 898 56 892 q 221 891 201 891 q 307 892 244 891 q 414 894 370 894 m 563 647 q 512 795 563 741 q 354 850 461 850 q 286 837 292 850 q 279 735 279 821 l 279 452 l 353 452 q 500 507 437 452 q 563 647 563 562 m 324 1000 q 389 1073 324 1008 q 488 1164 454 1138 q 513 1168 496 1168 q 575 1127 575 1168 q 467 1042 575 1096 q 332 987 358 987 q 324 1000 324 987 z "},"":{"ha":519,"x_min":46,"x_max":499,"o":"m 411 593 q 460 581 437 593 q 494 553 484 570 q 499 517 499 537 q 484 465 499 483 q 454 446 468 446 q 438 450 446 446 q 418 462 430 453 q 404 472 406 471 q 354 488 380 488 q 280 442 315 488 q 245 366 245 396 l 245 157 q 252 57 245 79 q 300 41 255 47 q 369 35 346 35 q 374 16 373 30 q 369 -4 374 1 q 201 3 231 3 q 49 -4 187 3 q 44 16 43 1 q 49 35 45 30 q 100 41 68 35 q 134 57 132 47 q 141 157 141 79 l 141 410 q 134 480 141 464 q 46 505 125 505 q 43 521 43 507 q 46 540 42 534 q 240 597 161 556 q 250 589 245 597 q 255 575 255 581 q 245 450 245 509 q 251 448 245 442 q 321 545 274 498 q 411 593 369 593 m 426 894 q 475 854 475 894 q 380 751 475 826 q 270 677 285 677 q 258 694 258 677 q 307 771 258 700 q 389 883 357 842 q 426 894 400 894 z "},"":{"ha":842,"x_min":61,"x_max":876,"o":"m 414 894 q 603 831 517 894 q 689 659 689 768 q 633 524 689 589 q 505 435 576 460 q 723 117 595 286 q 787 58 753 77 q 876 35 822 39 q 879 14 880 28 q 875 -4 878 0 q 696 12 742 -4 q 608 72 637 33 q 392 393 545 156 q 351 410 381 410 l 279 410 l 279 157 q 286 57 279 79 q 324 41 289 47 q 380 35 359 35 q 385 16 384 30 q 380 -4 385 1 q 221 3 241 3 q 61 -4 201 3 q 56 16 56 1 q 61 35 57 30 q 117 41 81 35 q 155 57 152 47 q 161 157 161 79 l 161 736 q 155 837 161 815 q 117 852 152 846 q 61 859 81 859 q 56 878 57 864 q 61 898 56 892 q 221 891 201 891 q 307 892 244 891 q 414 894 370 894 m 563 647 q 512 795 563 741 q 354 850 461 850 q 286 837 292 850 q 279 735 279 821 l 279 452 l 353 452 q 500 507 437 452 q 563 647 563 562 m 499 -62 q 543 -75 524 -62 q 556 -130 556 -95 q 517 -237 556 -187 q 422 -311 477 -286 q 407 -302 414 -309 q 400 -290 400 -294 q 446 -254 422 -279 q 471 -201 471 -228 q 447 -172 471 -190 q 423 -122 423 -153 q 441 -84 423 -106 q 499 -62 460 -62 z "}}}
